%TF.GenerationSoftware,KiCad,Pcbnew,7.0.10*%
%TF.CreationDate,2025-02-01T12:29:48+01:00*%
%TF.ProjectId,Multi Sensor Board,4d756c74-6920-4536-956e-736f7220426f,rev?*%
%TF.SameCoordinates,Original*%
%TF.FileFunction,Drillmap*%
%TF.FilePolarity,Positive*%
%FSLAX45Y45*%
G04 Gerber Fmt 4.5, Leading zero omitted, Abs format (unit mm)*
G04 Created by KiCad (PCBNEW 7.0.10) date 2025-02-01 12:29:48*
%MOMM*%
%LPD*%
G01*
G04 APERTURE LIST*
%ADD10C,0.050000*%
%ADD11C,0.200000*%
%ADD12C,0.100000*%
%ADD13C,0.120000*%
%ADD14C,0.250000*%
G04 APERTURE END LIST*
D10*
X12000000Y-11500000D02*
X12000000Y-8000000D01*
X12000000Y-8000000D02*
X16500000Y-8000000D01*
X12000000Y-11500000D02*
X16500000Y-11500000D01*
X16500000Y-11500000D02*
X16500000Y-8000000D01*
D11*
D12*
X13213400Y-9301800D02*
X13253400Y-9341800D01*
X13253400Y-9301800D02*
X13213400Y-9341800D01*
X13670600Y-9581200D02*
X13710600Y-9621200D01*
X13710600Y-9581200D02*
X13670600Y-9621200D01*
X14026200Y-10063800D02*
X14066200Y-10103800D01*
X14066200Y-10063800D02*
X14026200Y-10103800D01*
X14381800Y-9835200D02*
X14421800Y-9875200D01*
X14421800Y-9835200D02*
X14381800Y-9875200D01*
X14661200Y-10013000D02*
X14701200Y-10053000D01*
X14701200Y-10013000D02*
X14661200Y-10053000D01*
X14889800Y-8692200D02*
X14929800Y-8732200D01*
X14929800Y-8692200D02*
X14889800Y-8732200D01*
X15143800Y-10597200D02*
X15183800Y-10637200D01*
X15183800Y-10597200D02*
X15143800Y-10637200D01*
X15372400Y-8819200D02*
X15412400Y-8859200D01*
X15412400Y-8819200D02*
X15372400Y-8859200D01*
X15499400Y-10267000D02*
X15539400Y-10307000D01*
X15539400Y-10267000D02*
X15499400Y-10307000D01*
X15956600Y-10267000D02*
X15996600Y-10307000D01*
X15996600Y-10267000D02*
X15956600Y-10307000D01*
X13986547Y-8237600D02*
G75*
G03*
X13911547Y-8237600I-37500J0D01*
G01*
X13911547Y-8237600D02*
G75*
G03*
X13986547Y-8237600I37500J0D01*
G01*
X13986547Y-11262113D02*
G75*
G03*
X13911547Y-11262113I-37500J0D01*
G01*
X13911547Y-11262113D02*
G75*
G03*
X13986547Y-11262113I37500J0D01*
G01*
X14186547Y-8237600D02*
G75*
G03*
X14111547Y-8237600I-37500J0D01*
G01*
X14111547Y-8237600D02*
G75*
G03*
X14186547Y-8237600I37500J0D01*
G01*
X14186547Y-11262113D02*
G75*
G03*
X14111547Y-11262113I-37500J0D01*
G01*
X14111547Y-11262113D02*
G75*
G03*
X14186547Y-11262113I37500J0D01*
G01*
X14386547Y-8237600D02*
G75*
G03*
X14311547Y-8237600I-37500J0D01*
G01*
X14311547Y-8237600D02*
G75*
G03*
X14386547Y-8237600I37500J0D01*
G01*
X14386547Y-11262113D02*
G75*
G03*
X14311547Y-11262113I-37500J0D01*
G01*
X14311547Y-11262113D02*
G75*
G03*
X14386547Y-11262113I37500J0D01*
G01*
X14586547Y-8237600D02*
G75*
G03*
X14511547Y-8237600I-37500J0D01*
G01*
X14511547Y-8237600D02*
G75*
G03*
X14586547Y-8237600I37500J0D01*
G01*
X14586547Y-11262113D02*
G75*
G03*
X14511547Y-11262113I-37500J0D01*
G01*
X14511547Y-11262113D02*
G75*
G03*
X14586547Y-11262113I37500J0D01*
G01*
X12268200Y-10301800D02*
X12268200Y-10381800D01*
X12228200Y-10341800D02*
X12308200Y-10341800D01*
X12268200Y-10551800D02*
X12268200Y-10631800D01*
X12228200Y-10591800D02*
X12308200Y-10591800D01*
X15551220Y-8287320D02*
X15551220Y-8223680D01*
X15487580Y-8223680D01*
X15487580Y-8287320D01*
X15551220Y-8287320D01*
X15551220Y-8541320D02*
X15551220Y-8477680D01*
X15487580Y-8477680D01*
X15487580Y-8541320D01*
X15551220Y-8541320D01*
X15551220Y-11005120D02*
X15551220Y-10941480D01*
X15487580Y-10941480D01*
X15487580Y-11005120D01*
X15551220Y-11005120D01*
X15551220Y-11259120D02*
X15551220Y-11195480D01*
X15487580Y-11195480D01*
X15487580Y-11259120D01*
X15551220Y-11259120D01*
X12623800Y-9524200D02*
X12673800Y-9474200D01*
X12623800Y-9424200D01*
X12573800Y-9474200D01*
X12623800Y-9524200D01*
X12623800Y-9778200D02*
X12673800Y-9728200D01*
X12623800Y-9678200D01*
X12573800Y-9728200D01*
X12623800Y-9778200D01*
X12623800Y-10032200D02*
X12673800Y-9982200D01*
X12623800Y-9932200D01*
X12573800Y-9982200D01*
X12623800Y-10032200D01*
X13536600Y-9524200D02*
X13586600Y-9474200D01*
X13536600Y-9424200D01*
X13486600Y-9474200D01*
X13536600Y-9524200D01*
X13536600Y-9778200D02*
X13586600Y-9728200D01*
X13536600Y-9678200D01*
X13486600Y-9728200D01*
X13536600Y-9778200D01*
X13536600Y-10032200D02*
X13586600Y-9982200D01*
X13536600Y-9932200D01*
X13486600Y-9982200D01*
X13536600Y-10032200D01*
X14249400Y-9524200D02*
X14299400Y-9474200D01*
X14249400Y-9424200D01*
X14199400Y-9474200D01*
X14249400Y-9524200D01*
X14249400Y-9778200D02*
X14299400Y-9728200D01*
X14249400Y-9678200D01*
X14199400Y-9728200D01*
X14249400Y-9778200D01*
X14249400Y-10032200D02*
X14299400Y-9982200D01*
X14249400Y-9932200D01*
X14199400Y-9982200D01*
X14249400Y-10032200D01*
X14962200Y-9524200D02*
X15012200Y-9474200D01*
X14962200Y-9424200D01*
X14912200Y-9474200D01*
X14962200Y-9524200D01*
X14962200Y-9778200D02*
X15012200Y-9728200D01*
X14962200Y-9678200D01*
X14912200Y-9728200D01*
X14962200Y-9778200D01*
X14962200Y-10032200D02*
X15012200Y-9982200D01*
X14962200Y-9932200D01*
X14912200Y-9982200D01*
X14962200Y-10032200D01*
X15475000Y-9524200D02*
X15525000Y-9474200D01*
X15475000Y-9424200D01*
X15425000Y-9474200D01*
X15475000Y-9524200D01*
X15475000Y-9778200D02*
X15525000Y-9728200D01*
X15475000Y-9678200D01*
X15425000Y-9728200D01*
X15475000Y-9778200D01*
X15475000Y-10032200D02*
X15525000Y-9982200D01*
X15475000Y-9932200D01*
X15425000Y-9982200D01*
X15475000Y-10032200D01*
X15875000Y-9524200D02*
X15925000Y-9474200D01*
X15875000Y-9424200D01*
X15825000Y-9474200D01*
X15875000Y-9524200D01*
X15875000Y-9778200D02*
X15925000Y-9728200D01*
X15875000Y-9678200D01*
X15825000Y-9728200D01*
X15875000Y-9778200D01*
X15875000Y-10032200D02*
X15925000Y-9982200D01*
X15875000Y-9932200D01*
X15825000Y-9982200D01*
X15875000Y-10032200D01*
D13*
X12208200Y-9668200D02*
X12328200Y-9788200D01*
X12328200Y-9668200D02*
X12208200Y-9788200D01*
X12328200Y-9728200D02*
G75*
G03*
X12208200Y-9728200I-60000J0D01*
G01*
X12208200Y-9728200D02*
G75*
G03*
X12328200Y-9728200I60000J0D01*
G01*
X16170600Y-9666700D02*
X16290600Y-9786700D01*
X16290600Y-9666700D02*
X16170600Y-9786700D01*
X16290600Y-9726700D02*
G75*
G03*
X16170600Y-9726700I-60000J0D01*
G01*
X16170600Y-9726700D02*
G75*
G03*
X16290600Y-9726700I60000J0D01*
G01*
D14*
X12270200Y-8257000D02*
X12520200Y-8507000D01*
X12520200Y-8257000D02*
X12270200Y-8507000D01*
X12395200Y-8257000D02*
X12395200Y-8507000D01*
X12270200Y-8382000D02*
X12520200Y-8382000D01*
X12270200Y-10974800D02*
X12520200Y-11224800D01*
X12520200Y-10974800D02*
X12270200Y-11224800D01*
X12395200Y-10974800D02*
X12395200Y-11224800D01*
X12270200Y-11099800D02*
X12520200Y-11099800D01*
X12981400Y-8257000D02*
X13231400Y-8507000D01*
X13231400Y-8257000D02*
X12981400Y-8507000D01*
X13106400Y-8257000D02*
X13106400Y-8507000D01*
X12981400Y-8382000D02*
X13231400Y-8382000D01*
X12981400Y-10974800D02*
X13231400Y-11224800D01*
X13231400Y-10974800D02*
X12981400Y-11224800D01*
X13106400Y-10974800D02*
X13106400Y-11224800D01*
X12981400Y-11099800D02*
X13231400Y-11099800D01*
X15978600Y-8257000D02*
X16228600Y-8507000D01*
X16228600Y-8257000D02*
X15978600Y-8507000D01*
X16103600Y-8257000D02*
X16103600Y-8507000D01*
X15978600Y-8382000D02*
X16228600Y-8382000D01*
X15978600Y-10974800D02*
X16228600Y-11224800D01*
X16228600Y-10974800D02*
X15978600Y-11224800D01*
X16103600Y-10974800D02*
X16103600Y-11224800D01*
X15978600Y-11099800D02*
X16228600Y-11099800D01*
D11*
X12258277Y-11813984D02*
X12258277Y-11613984D01*
X12258277Y-11613984D02*
X12305896Y-11613984D01*
X12305896Y-11613984D02*
X12334467Y-11623508D01*
X12334467Y-11623508D02*
X12353515Y-11642555D01*
X12353515Y-11642555D02*
X12363039Y-11661603D01*
X12363039Y-11661603D02*
X12372562Y-11699698D01*
X12372562Y-11699698D02*
X12372562Y-11728269D01*
X12372562Y-11728269D02*
X12363039Y-11766365D01*
X12363039Y-11766365D02*
X12353515Y-11785412D01*
X12353515Y-11785412D02*
X12334467Y-11804460D01*
X12334467Y-11804460D02*
X12305896Y-11813984D01*
X12305896Y-11813984D02*
X12258277Y-11813984D01*
X12458277Y-11813984D02*
X12458277Y-11680650D01*
X12458277Y-11718746D02*
X12467801Y-11699698D01*
X12467801Y-11699698D02*
X12477324Y-11690174D01*
X12477324Y-11690174D02*
X12496372Y-11680650D01*
X12496372Y-11680650D02*
X12515420Y-11680650D01*
X12582086Y-11813984D02*
X12582086Y-11680650D01*
X12582086Y-11613984D02*
X12572562Y-11623508D01*
X12572562Y-11623508D02*
X12582086Y-11633031D01*
X12582086Y-11633031D02*
X12591610Y-11623508D01*
X12591610Y-11623508D02*
X12582086Y-11613984D01*
X12582086Y-11613984D02*
X12582086Y-11633031D01*
X12705896Y-11813984D02*
X12686848Y-11804460D01*
X12686848Y-11804460D02*
X12677324Y-11785412D01*
X12677324Y-11785412D02*
X12677324Y-11613984D01*
X12810658Y-11813984D02*
X12791610Y-11804460D01*
X12791610Y-11804460D02*
X12782086Y-11785412D01*
X12782086Y-11785412D02*
X12782086Y-11613984D01*
X13039229Y-11813984D02*
X13039229Y-11613984D01*
X13039229Y-11613984D02*
X13105896Y-11756841D01*
X13105896Y-11756841D02*
X13172562Y-11613984D01*
X13172562Y-11613984D02*
X13172562Y-11813984D01*
X13353515Y-11813984D02*
X13353515Y-11709222D01*
X13353515Y-11709222D02*
X13343991Y-11690174D01*
X13343991Y-11690174D02*
X13324943Y-11680650D01*
X13324943Y-11680650D02*
X13286848Y-11680650D01*
X13286848Y-11680650D02*
X13267801Y-11690174D01*
X13353515Y-11804460D02*
X13334467Y-11813984D01*
X13334467Y-11813984D02*
X13286848Y-11813984D01*
X13286848Y-11813984D02*
X13267801Y-11804460D01*
X13267801Y-11804460D02*
X13258277Y-11785412D01*
X13258277Y-11785412D02*
X13258277Y-11766365D01*
X13258277Y-11766365D02*
X13267801Y-11747317D01*
X13267801Y-11747317D02*
X13286848Y-11737793D01*
X13286848Y-11737793D02*
X13334467Y-11737793D01*
X13334467Y-11737793D02*
X13353515Y-11728269D01*
X13448753Y-11680650D02*
X13448753Y-11880650D01*
X13448753Y-11690174D02*
X13467801Y-11680650D01*
X13467801Y-11680650D02*
X13505896Y-11680650D01*
X13505896Y-11680650D02*
X13524943Y-11690174D01*
X13524943Y-11690174D02*
X13534467Y-11699698D01*
X13534467Y-11699698D02*
X13543991Y-11718746D01*
X13543991Y-11718746D02*
X13543991Y-11775888D01*
X13543991Y-11775888D02*
X13534467Y-11794936D01*
X13534467Y-11794936D02*
X13524943Y-11804460D01*
X13524943Y-11804460D02*
X13505896Y-11813984D01*
X13505896Y-11813984D02*
X13467801Y-11813984D01*
X13467801Y-11813984D02*
X13448753Y-11804460D01*
X13629705Y-11794936D02*
X13639229Y-11804460D01*
X13639229Y-11804460D02*
X13629705Y-11813984D01*
X13629705Y-11813984D02*
X13620182Y-11804460D01*
X13620182Y-11804460D02*
X13629705Y-11794936D01*
X13629705Y-11794936D02*
X13629705Y-11813984D01*
X13629705Y-11690174D02*
X13639229Y-11699698D01*
X13639229Y-11699698D02*
X13629705Y-11709222D01*
X13629705Y-11709222D02*
X13620182Y-11699698D01*
X13620182Y-11699698D02*
X13629705Y-11690174D01*
X13629705Y-11690174D02*
X13629705Y-11709222D01*
D12*
X11957500Y-12122500D02*
X11997500Y-12162500D01*
X11997500Y-12122500D02*
X11957500Y-12162500D01*
D11*
X12296372Y-12033984D02*
X12315420Y-12033984D01*
X12315420Y-12033984D02*
X12334467Y-12043508D01*
X12334467Y-12043508D02*
X12343991Y-12053031D01*
X12343991Y-12053031D02*
X12353515Y-12072079D01*
X12353515Y-12072079D02*
X12363039Y-12110174D01*
X12363039Y-12110174D02*
X12363039Y-12157793D01*
X12363039Y-12157793D02*
X12353515Y-12195888D01*
X12353515Y-12195888D02*
X12343991Y-12214936D01*
X12343991Y-12214936D02*
X12334467Y-12224460D01*
X12334467Y-12224460D02*
X12315420Y-12233984D01*
X12315420Y-12233984D02*
X12296372Y-12233984D01*
X12296372Y-12233984D02*
X12277324Y-12224460D01*
X12277324Y-12224460D02*
X12267801Y-12214936D01*
X12267801Y-12214936D02*
X12258277Y-12195888D01*
X12258277Y-12195888D02*
X12248753Y-12157793D01*
X12248753Y-12157793D02*
X12248753Y-12110174D01*
X12248753Y-12110174D02*
X12258277Y-12072079D01*
X12258277Y-12072079D02*
X12267801Y-12053031D01*
X12267801Y-12053031D02*
X12277324Y-12043508D01*
X12277324Y-12043508D02*
X12296372Y-12033984D01*
X12448753Y-12214936D02*
X12458277Y-12224460D01*
X12458277Y-12224460D02*
X12448753Y-12233984D01*
X12448753Y-12233984D02*
X12439229Y-12224460D01*
X12439229Y-12224460D02*
X12448753Y-12214936D01*
X12448753Y-12214936D02*
X12448753Y-12233984D01*
X12629705Y-12100650D02*
X12629705Y-12233984D01*
X12582086Y-12024460D02*
X12534467Y-12167317D01*
X12534467Y-12167317D02*
X12658277Y-12167317D01*
X12772562Y-12033984D02*
X12791610Y-12033984D01*
X12791610Y-12033984D02*
X12810658Y-12043508D01*
X12810658Y-12043508D02*
X12820182Y-12053031D01*
X12820182Y-12053031D02*
X12829705Y-12072079D01*
X12829705Y-12072079D02*
X12839229Y-12110174D01*
X12839229Y-12110174D02*
X12839229Y-12157793D01*
X12839229Y-12157793D02*
X12829705Y-12195888D01*
X12829705Y-12195888D02*
X12820182Y-12214936D01*
X12820182Y-12214936D02*
X12810658Y-12224460D01*
X12810658Y-12224460D02*
X12791610Y-12233984D01*
X12791610Y-12233984D02*
X12772562Y-12233984D01*
X12772562Y-12233984D02*
X12753515Y-12224460D01*
X12753515Y-12224460D02*
X12743991Y-12214936D01*
X12743991Y-12214936D02*
X12734467Y-12195888D01*
X12734467Y-12195888D02*
X12724943Y-12157793D01*
X12724943Y-12157793D02*
X12724943Y-12110174D01*
X12724943Y-12110174D02*
X12734467Y-12072079D01*
X12734467Y-12072079D02*
X12743991Y-12053031D01*
X12743991Y-12053031D02*
X12753515Y-12043508D01*
X12753515Y-12043508D02*
X12772562Y-12033984D01*
X12963039Y-12033984D02*
X12982086Y-12033984D01*
X12982086Y-12033984D02*
X13001134Y-12043508D01*
X13001134Y-12043508D02*
X13010658Y-12053031D01*
X13010658Y-12053031D02*
X13020182Y-12072079D01*
X13020182Y-12072079D02*
X13029705Y-12110174D01*
X13029705Y-12110174D02*
X13029705Y-12157793D01*
X13029705Y-12157793D02*
X13020182Y-12195888D01*
X13020182Y-12195888D02*
X13010658Y-12214936D01*
X13010658Y-12214936D02*
X13001134Y-12224460D01*
X13001134Y-12224460D02*
X12982086Y-12233984D01*
X12982086Y-12233984D02*
X12963039Y-12233984D01*
X12963039Y-12233984D02*
X12943991Y-12224460D01*
X12943991Y-12224460D02*
X12934467Y-12214936D01*
X12934467Y-12214936D02*
X12924943Y-12195888D01*
X12924943Y-12195888D02*
X12915420Y-12157793D01*
X12915420Y-12157793D02*
X12915420Y-12110174D01*
X12915420Y-12110174D02*
X12924943Y-12072079D01*
X12924943Y-12072079D02*
X12934467Y-12053031D01*
X12934467Y-12053031D02*
X12943991Y-12043508D01*
X12943991Y-12043508D02*
X12963039Y-12033984D01*
X13115420Y-12233984D02*
X13115420Y-12100650D01*
X13115420Y-12119698D02*
X13124943Y-12110174D01*
X13124943Y-12110174D02*
X13143991Y-12100650D01*
X13143991Y-12100650D02*
X13172563Y-12100650D01*
X13172563Y-12100650D02*
X13191610Y-12110174D01*
X13191610Y-12110174D02*
X13201134Y-12129222D01*
X13201134Y-12129222D02*
X13201134Y-12233984D01*
X13201134Y-12129222D02*
X13210658Y-12110174D01*
X13210658Y-12110174D02*
X13229705Y-12100650D01*
X13229705Y-12100650D02*
X13258277Y-12100650D01*
X13258277Y-12100650D02*
X13277324Y-12110174D01*
X13277324Y-12110174D02*
X13286848Y-12129222D01*
X13286848Y-12129222D02*
X13286848Y-12233984D01*
X13382086Y-12233984D02*
X13382086Y-12100650D01*
X13382086Y-12119698D02*
X13391610Y-12110174D01*
X13391610Y-12110174D02*
X13410658Y-12100650D01*
X13410658Y-12100650D02*
X13439229Y-12100650D01*
X13439229Y-12100650D02*
X13458277Y-12110174D01*
X13458277Y-12110174D02*
X13467801Y-12129222D01*
X13467801Y-12129222D02*
X13467801Y-12233984D01*
X13467801Y-12129222D02*
X13477324Y-12110174D01*
X13477324Y-12110174D02*
X13496372Y-12100650D01*
X13496372Y-12100650D02*
X13524943Y-12100650D01*
X13524943Y-12100650D02*
X13543991Y-12110174D01*
X13543991Y-12110174D02*
X13553515Y-12129222D01*
X13553515Y-12129222D02*
X13553515Y-12233984D01*
X13943991Y-12024460D02*
X13772563Y-12281603D01*
X14201134Y-12033984D02*
X14220182Y-12033984D01*
X14220182Y-12033984D02*
X14239229Y-12043508D01*
X14239229Y-12043508D02*
X14248753Y-12053031D01*
X14248753Y-12053031D02*
X14258277Y-12072079D01*
X14258277Y-12072079D02*
X14267801Y-12110174D01*
X14267801Y-12110174D02*
X14267801Y-12157793D01*
X14267801Y-12157793D02*
X14258277Y-12195888D01*
X14258277Y-12195888D02*
X14248753Y-12214936D01*
X14248753Y-12214936D02*
X14239229Y-12224460D01*
X14239229Y-12224460D02*
X14220182Y-12233984D01*
X14220182Y-12233984D02*
X14201134Y-12233984D01*
X14201134Y-12233984D02*
X14182086Y-12224460D01*
X14182086Y-12224460D02*
X14172563Y-12214936D01*
X14172563Y-12214936D02*
X14163039Y-12195888D01*
X14163039Y-12195888D02*
X14153515Y-12157793D01*
X14153515Y-12157793D02*
X14153515Y-12110174D01*
X14153515Y-12110174D02*
X14163039Y-12072079D01*
X14163039Y-12072079D02*
X14172563Y-12053031D01*
X14172563Y-12053031D02*
X14182086Y-12043508D01*
X14182086Y-12043508D02*
X14201134Y-12033984D01*
X14353515Y-12214936D02*
X14363039Y-12224460D01*
X14363039Y-12224460D02*
X14353515Y-12233984D01*
X14353515Y-12233984D02*
X14343991Y-12224460D01*
X14343991Y-12224460D02*
X14353515Y-12214936D01*
X14353515Y-12214936D02*
X14353515Y-12233984D01*
X14486848Y-12033984D02*
X14505896Y-12033984D01*
X14505896Y-12033984D02*
X14524944Y-12043508D01*
X14524944Y-12043508D02*
X14534467Y-12053031D01*
X14534467Y-12053031D02*
X14543991Y-12072079D01*
X14543991Y-12072079D02*
X14553515Y-12110174D01*
X14553515Y-12110174D02*
X14553515Y-12157793D01*
X14553515Y-12157793D02*
X14543991Y-12195888D01*
X14543991Y-12195888D02*
X14534467Y-12214936D01*
X14534467Y-12214936D02*
X14524944Y-12224460D01*
X14524944Y-12224460D02*
X14505896Y-12233984D01*
X14505896Y-12233984D02*
X14486848Y-12233984D01*
X14486848Y-12233984D02*
X14467801Y-12224460D01*
X14467801Y-12224460D02*
X14458277Y-12214936D01*
X14458277Y-12214936D02*
X14448753Y-12195888D01*
X14448753Y-12195888D02*
X14439229Y-12157793D01*
X14439229Y-12157793D02*
X14439229Y-12110174D01*
X14439229Y-12110174D02*
X14448753Y-12072079D01*
X14448753Y-12072079D02*
X14458277Y-12053031D01*
X14458277Y-12053031D02*
X14467801Y-12043508D01*
X14467801Y-12043508D02*
X14486848Y-12033984D01*
X14743991Y-12233984D02*
X14629706Y-12233984D01*
X14686848Y-12233984D02*
X14686848Y-12033984D01*
X14686848Y-12033984D02*
X14667801Y-12062555D01*
X14667801Y-12062555D02*
X14648753Y-12081603D01*
X14648753Y-12081603D02*
X14629706Y-12091127D01*
X14924944Y-12033984D02*
X14829706Y-12033984D01*
X14829706Y-12033984D02*
X14820182Y-12129222D01*
X14820182Y-12129222D02*
X14829706Y-12119698D01*
X14829706Y-12119698D02*
X14848753Y-12110174D01*
X14848753Y-12110174D02*
X14896372Y-12110174D01*
X14896372Y-12110174D02*
X14915420Y-12119698D01*
X14915420Y-12119698D02*
X14924944Y-12129222D01*
X14924944Y-12129222D02*
X14934467Y-12148269D01*
X14934467Y-12148269D02*
X14934467Y-12195888D01*
X14934467Y-12195888D02*
X14924944Y-12214936D01*
X14924944Y-12214936D02*
X14915420Y-12224460D01*
X14915420Y-12224460D02*
X14896372Y-12233984D01*
X14896372Y-12233984D02*
X14848753Y-12233984D01*
X14848753Y-12233984D02*
X14829706Y-12224460D01*
X14829706Y-12224460D02*
X14820182Y-12214936D01*
X15001134Y-12033984D02*
X15134467Y-12033984D01*
X15134467Y-12033984D02*
X15048753Y-12233984D01*
X15201134Y-12033984D02*
X15201134Y-12072079D01*
X15277325Y-12033984D02*
X15277325Y-12072079D01*
X15572563Y-12310174D02*
X15563039Y-12300650D01*
X15563039Y-12300650D02*
X15543991Y-12272079D01*
X15543991Y-12272079D02*
X15534468Y-12253031D01*
X15534468Y-12253031D02*
X15524944Y-12224460D01*
X15524944Y-12224460D02*
X15515420Y-12176841D01*
X15515420Y-12176841D02*
X15515420Y-12138746D01*
X15515420Y-12138746D02*
X15524944Y-12091127D01*
X15524944Y-12091127D02*
X15534468Y-12062555D01*
X15534468Y-12062555D02*
X15543991Y-12043508D01*
X15543991Y-12043508D02*
X15563039Y-12014936D01*
X15563039Y-12014936D02*
X15572563Y-12005412D01*
X15753515Y-12233984D02*
X15639229Y-12233984D01*
X15696372Y-12233984D02*
X15696372Y-12033984D01*
X15696372Y-12033984D02*
X15677325Y-12062555D01*
X15677325Y-12062555D02*
X15658277Y-12081603D01*
X15658277Y-12081603D02*
X15639229Y-12091127D01*
X15877325Y-12033984D02*
X15896372Y-12033984D01*
X15896372Y-12033984D02*
X15915420Y-12043508D01*
X15915420Y-12043508D02*
X15924944Y-12053031D01*
X15924944Y-12053031D02*
X15934468Y-12072079D01*
X15934468Y-12072079D02*
X15943991Y-12110174D01*
X15943991Y-12110174D02*
X15943991Y-12157793D01*
X15943991Y-12157793D02*
X15934468Y-12195888D01*
X15934468Y-12195888D02*
X15924944Y-12214936D01*
X15924944Y-12214936D02*
X15915420Y-12224460D01*
X15915420Y-12224460D02*
X15896372Y-12233984D01*
X15896372Y-12233984D02*
X15877325Y-12233984D01*
X15877325Y-12233984D02*
X15858277Y-12224460D01*
X15858277Y-12224460D02*
X15848753Y-12214936D01*
X15848753Y-12214936D02*
X15839229Y-12195888D01*
X15839229Y-12195888D02*
X15829706Y-12157793D01*
X15829706Y-12157793D02*
X15829706Y-12110174D01*
X15829706Y-12110174D02*
X15839229Y-12072079D01*
X15839229Y-12072079D02*
X15848753Y-12053031D01*
X15848753Y-12053031D02*
X15858277Y-12043508D01*
X15858277Y-12043508D02*
X15877325Y-12033984D01*
X16182087Y-12233984D02*
X16182087Y-12033984D01*
X16267801Y-12233984D02*
X16267801Y-12129222D01*
X16267801Y-12129222D02*
X16258277Y-12110174D01*
X16258277Y-12110174D02*
X16239230Y-12100650D01*
X16239230Y-12100650D02*
X16210658Y-12100650D01*
X16210658Y-12100650D02*
X16191610Y-12110174D01*
X16191610Y-12110174D02*
X16182087Y-12119698D01*
X16391610Y-12233984D02*
X16372563Y-12224460D01*
X16372563Y-12224460D02*
X16363039Y-12214936D01*
X16363039Y-12214936D02*
X16353515Y-12195888D01*
X16353515Y-12195888D02*
X16353515Y-12138746D01*
X16353515Y-12138746D02*
X16363039Y-12119698D01*
X16363039Y-12119698D02*
X16372563Y-12110174D01*
X16372563Y-12110174D02*
X16391610Y-12100650D01*
X16391610Y-12100650D02*
X16420182Y-12100650D01*
X16420182Y-12100650D02*
X16439230Y-12110174D01*
X16439230Y-12110174D02*
X16448753Y-12119698D01*
X16448753Y-12119698D02*
X16458277Y-12138746D01*
X16458277Y-12138746D02*
X16458277Y-12195888D01*
X16458277Y-12195888D02*
X16448753Y-12214936D01*
X16448753Y-12214936D02*
X16439230Y-12224460D01*
X16439230Y-12224460D02*
X16420182Y-12233984D01*
X16420182Y-12233984D02*
X16391610Y-12233984D01*
X16572563Y-12233984D02*
X16553515Y-12224460D01*
X16553515Y-12224460D02*
X16543991Y-12205412D01*
X16543991Y-12205412D02*
X16543991Y-12033984D01*
X16724944Y-12224460D02*
X16705896Y-12233984D01*
X16705896Y-12233984D02*
X16667801Y-12233984D01*
X16667801Y-12233984D02*
X16648753Y-12224460D01*
X16648753Y-12224460D02*
X16639230Y-12205412D01*
X16639230Y-12205412D02*
X16639230Y-12129222D01*
X16639230Y-12129222D02*
X16648753Y-12110174D01*
X16648753Y-12110174D02*
X16667801Y-12100650D01*
X16667801Y-12100650D02*
X16705896Y-12100650D01*
X16705896Y-12100650D02*
X16724944Y-12110174D01*
X16724944Y-12110174D02*
X16734468Y-12129222D01*
X16734468Y-12129222D02*
X16734468Y-12148269D01*
X16734468Y-12148269D02*
X16639230Y-12167317D01*
X16810658Y-12224460D02*
X16829706Y-12233984D01*
X16829706Y-12233984D02*
X16867801Y-12233984D01*
X16867801Y-12233984D02*
X16886849Y-12224460D01*
X16886849Y-12224460D02*
X16896373Y-12205412D01*
X16896373Y-12205412D02*
X16896373Y-12195888D01*
X16896373Y-12195888D02*
X16886849Y-12176841D01*
X16886849Y-12176841D02*
X16867801Y-12167317D01*
X16867801Y-12167317D02*
X16839230Y-12167317D01*
X16839230Y-12167317D02*
X16820182Y-12157793D01*
X16820182Y-12157793D02*
X16810658Y-12138746D01*
X16810658Y-12138746D02*
X16810658Y-12129222D01*
X16810658Y-12129222D02*
X16820182Y-12110174D01*
X16820182Y-12110174D02*
X16839230Y-12100650D01*
X16839230Y-12100650D02*
X16867801Y-12100650D01*
X16867801Y-12100650D02*
X16886849Y-12110174D01*
X16963039Y-12310174D02*
X16972563Y-12300650D01*
X16972563Y-12300650D02*
X16991611Y-12272079D01*
X16991611Y-12272079D02*
X17001134Y-12253031D01*
X17001134Y-12253031D02*
X17010658Y-12224460D01*
X17010658Y-12224460D02*
X17020182Y-12176841D01*
X17020182Y-12176841D02*
X17020182Y-12138746D01*
X17020182Y-12138746D02*
X17010658Y-12091127D01*
X17010658Y-12091127D02*
X17001134Y-12062555D01*
X17001134Y-12062555D02*
X16991611Y-12043508D01*
X16991611Y-12043508D02*
X16972563Y-12014936D01*
X16972563Y-12014936D02*
X16963039Y-12005412D01*
D12*
X11997500Y-12406500D02*
G75*
G03*
X11922500Y-12406500I-37500J0D01*
G01*
X11922500Y-12406500D02*
G75*
G03*
X11997500Y-12406500I37500J0D01*
G01*
D11*
X12296372Y-12297984D02*
X12315420Y-12297984D01*
X12315420Y-12297984D02*
X12334467Y-12307508D01*
X12334467Y-12307508D02*
X12343991Y-12317031D01*
X12343991Y-12317031D02*
X12353515Y-12336079D01*
X12353515Y-12336079D02*
X12363039Y-12374174D01*
X12363039Y-12374174D02*
X12363039Y-12421793D01*
X12363039Y-12421793D02*
X12353515Y-12459888D01*
X12353515Y-12459888D02*
X12343991Y-12478936D01*
X12343991Y-12478936D02*
X12334467Y-12488460D01*
X12334467Y-12488460D02*
X12315420Y-12497984D01*
X12315420Y-12497984D02*
X12296372Y-12497984D01*
X12296372Y-12497984D02*
X12277324Y-12488460D01*
X12277324Y-12488460D02*
X12267801Y-12478936D01*
X12267801Y-12478936D02*
X12258277Y-12459888D01*
X12258277Y-12459888D02*
X12248753Y-12421793D01*
X12248753Y-12421793D02*
X12248753Y-12374174D01*
X12248753Y-12374174D02*
X12258277Y-12336079D01*
X12258277Y-12336079D02*
X12267801Y-12317031D01*
X12267801Y-12317031D02*
X12277324Y-12307508D01*
X12277324Y-12307508D02*
X12296372Y-12297984D01*
X12448753Y-12478936D02*
X12458277Y-12488460D01*
X12458277Y-12488460D02*
X12448753Y-12497984D01*
X12448753Y-12497984D02*
X12439229Y-12488460D01*
X12439229Y-12488460D02*
X12448753Y-12478936D01*
X12448753Y-12478936D02*
X12448753Y-12497984D01*
X12524943Y-12297984D02*
X12658277Y-12297984D01*
X12658277Y-12297984D02*
X12572562Y-12497984D01*
X12829705Y-12297984D02*
X12734467Y-12297984D01*
X12734467Y-12297984D02*
X12724943Y-12393222D01*
X12724943Y-12393222D02*
X12734467Y-12383698D01*
X12734467Y-12383698D02*
X12753515Y-12374174D01*
X12753515Y-12374174D02*
X12801134Y-12374174D01*
X12801134Y-12374174D02*
X12820182Y-12383698D01*
X12820182Y-12383698D02*
X12829705Y-12393222D01*
X12829705Y-12393222D02*
X12839229Y-12412269D01*
X12839229Y-12412269D02*
X12839229Y-12459888D01*
X12839229Y-12459888D02*
X12829705Y-12478936D01*
X12829705Y-12478936D02*
X12820182Y-12488460D01*
X12820182Y-12488460D02*
X12801134Y-12497984D01*
X12801134Y-12497984D02*
X12753515Y-12497984D01*
X12753515Y-12497984D02*
X12734467Y-12488460D01*
X12734467Y-12488460D02*
X12724943Y-12478936D01*
X12963039Y-12297984D02*
X12982086Y-12297984D01*
X12982086Y-12297984D02*
X13001134Y-12307508D01*
X13001134Y-12307508D02*
X13010658Y-12317031D01*
X13010658Y-12317031D02*
X13020182Y-12336079D01*
X13020182Y-12336079D02*
X13029705Y-12374174D01*
X13029705Y-12374174D02*
X13029705Y-12421793D01*
X13029705Y-12421793D02*
X13020182Y-12459888D01*
X13020182Y-12459888D02*
X13010658Y-12478936D01*
X13010658Y-12478936D02*
X13001134Y-12488460D01*
X13001134Y-12488460D02*
X12982086Y-12497984D01*
X12982086Y-12497984D02*
X12963039Y-12497984D01*
X12963039Y-12497984D02*
X12943991Y-12488460D01*
X12943991Y-12488460D02*
X12934467Y-12478936D01*
X12934467Y-12478936D02*
X12924943Y-12459888D01*
X12924943Y-12459888D02*
X12915420Y-12421793D01*
X12915420Y-12421793D02*
X12915420Y-12374174D01*
X12915420Y-12374174D02*
X12924943Y-12336079D01*
X12924943Y-12336079D02*
X12934467Y-12317031D01*
X12934467Y-12317031D02*
X12943991Y-12307508D01*
X12943991Y-12307508D02*
X12963039Y-12297984D01*
X13115420Y-12497984D02*
X13115420Y-12364650D01*
X13115420Y-12383698D02*
X13124943Y-12374174D01*
X13124943Y-12374174D02*
X13143991Y-12364650D01*
X13143991Y-12364650D02*
X13172563Y-12364650D01*
X13172563Y-12364650D02*
X13191610Y-12374174D01*
X13191610Y-12374174D02*
X13201134Y-12393222D01*
X13201134Y-12393222D02*
X13201134Y-12497984D01*
X13201134Y-12393222D02*
X13210658Y-12374174D01*
X13210658Y-12374174D02*
X13229705Y-12364650D01*
X13229705Y-12364650D02*
X13258277Y-12364650D01*
X13258277Y-12364650D02*
X13277324Y-12374174D01*
X13277324Y-12374174D02*
X13286848Y-12393222D01*
X13286848Y-12393222D02*
X13286848Y-12497984D01*
X13382086Y-12497984D02*
X13382086Y-12364650D01*
X13382086Y-12383698D02*
X13391610Y-12374174D01*
X13391610Y-12374174D02*
X13410658Y-12364650D01*
X13410658Y-12364650D02*
X13439229Y-12364650D01*
X13439229Y-12364650D02*
X13458277Y-12374174D01*
X13458277Y-12374174D02*
X13467801Y-12393222D01*
X13467801Y-12393222D02*
X13467801Y-12497984D01*
X13467801Y-12393222D02*
X13477324Y-12374174D01*
X13477324Y-12374174D02*
X13496372Y-12364650D01*
X13496372Y-12364650D02*
X13524943Y-12364650D01*
X13524943Y-12364650D02*
X13543991Y-12374174D01*
X13543991Y-12374174D02*
X13553515Y-12393222D01*
X13553515Y-12393222D02*
X13553515Y-12497984D01*
X13943991Y-12288460D02*
X13772563Y-12545603D01*
X14201134Y-12297984D02*
X14220182Y-12297984D01*
X14220182Y-12297984D02*
X14239229Y-12307508D01*
X14239229Y-12307508D02*
X14248753Y-12317031D01*
X14248753Y-12317031D02*
X14258277Y-12336079D01*
X14258277Y-12336079D02*
X14267801Y-12374174D01*
X14267801Y-12374174D02*
X14267801Y-12421793D01*
X14267801Y-12421793D02*
X14258277Y-12459888D01*
X14258277Y-12459888D02*
X14248753Y-12478936D01*
X14248753Y-12478936D02*
X14239229Y-12488460D01*
X14239229Y-12488460D02*
X14220182Y-12497984D01*
X14220182Y-12497984D02*
X14201134Y-12497984D01*
X14201134Y-12497984D02*
X14182086Y-12488460D01*
X14182086Y-12488460D02*
X14172563Y-12478936D01*
X14172563Y-12478936D02*
X14163039Y-12459888D01*
X14163039Y-12459888D02*
X14153515Y-12421793D01*
X14153515Y-12421793D02*
X14153515Y-12374174D01*
X14153515Y-12374174D02*
X14163039Y-12336079D01*
X14163039Y-12336079D02*
X14172563Y-12317031D01*
X14172563Y-12317031D02*
X14182086Y-12307508D01*
X14182086Y-12307508D02*
X14201134Y-12297984D01*
X14353515Y-12478936D02*
X14363039Y-12488460D01*
X14363039Y-12488460D02*
X14353515Y-12497984D01*
X14353515Y-12497984D02*
X14343991Y-12488460D01*
X14343991Y-12488460D02*
X14353515Y-12478936D01*
X14353515Y-12478936D02*
X14353515Y-12497984D01*
X14486848Y-12297984D02*
X14505896Y-12297984D01*
X14505896Y-12297984D02*
X14524944Y-12307508D01*
X14524944Y-12307508D02*
X14534467Y-12317031D01*
X14534467Y-12317031D02*
X14543991Y-12336079D01*
X14543991Y-12336079D02*
X14553515Y-12374174D01*
X14553515Y-12374174D02*
X14553515Y-12421793D01*
X14553515Y-12421793D02*
X14543991Y-12459888D01*
X14543991Y-12459888D02*
X14534467Y-12478936D01*
X14534467Y-12478936D02*
X14524944Y-12488460D01*
X14524944Y-12488460D02*
X14505896Y-12497984D01*
X14505896Y-12497984D02*
X14486848Y-12497984D01*
X14486848Y-12497984D02*
X14467801Y-12488460D01*
X14467801Y-12488460D02*
X14458277Y-12478936D01*
X14458277Y-12478936D02*
X14448753Y-12459888D01*
X14448753Y-12459888D02*
X14439229Y-12421793D01*
X14439229Y-12421793D02*
X14439229Y-12374174D01*
X14439229Y-12374174D02*
X14448753Y-12336079D01*
X14448753Y-12336079D02*
X14458277Y-12317031D01*
X14458277Y-12317031D02*
X14467801Y-12307508D01*
X14467801Y-12307508D02*
X14486848Y-12297984D01*
X14629706Y-12317031D02*
X14639229Y-12307508D01*
X14639229Y-12307508D02*
X14658277Y-12297984D01*
X14658277Y-12297984D02*
X14705896Y-12297984D01*
X14705896Y-12297984D02*
X14724944Y-12307508D01*
X14724944Y-12307508D02*
X14734467Y-12317031D01*
X14734467Y-12317031D02*
X14743991Y-12336079D01*
X14743991Y-12336079D02*
X14743991Y-12355127D01*
X14743991Y-12355127D02*
X14734467Y-12383698D01*
X14734467Y-12383698D02*
X14620182Y-12497984D01*
X14620182Y-12497984D02*
X14743991Y-12497984D01*
X14839229Y-12497984D02*
X14877325Y-12497984D01*
X14877325Y-12497984D02*
X14896372Y-12488460D01*
X14896372Y-12488460D02*
X14905896Y-12478936D01*
X14905896Y-12478936D02*
X14924944Y-12450365D01*
X14924944Y-12450365D02*
X14934467Y-12412269D01*
X14934467Y-12412269D02*
X14934467Y-12336079D01*
X14934467Y-12336079D02*
X14924944Y-12317031D01*
X14924944Y-12317031D02*
X14915420Y-12307508D01*
X14915420Y-12307508D02*
X14896372Y-12297984D01*
X14896372Y-12297984D02*
X14858277Y-12297984D01*
X14858277Y-12297984D02*
X14839229Y-12307508D01*
X14839229Y-12307508D02*
X14829706Y-12317031D01*
X14829706Y-12317031D02*
X14820182Y-12336079D01*
X14820182Y-12336079D02*
X14820182Y-12383698D01*
X14820182Y-12383698D02*
X14829706Y-12402746D01*
X14829706Y-12402746D02*
X14839229Y-12412269D01*
X14839229Y-12412269D02*
X14858277Y-12421793D01*
X14858277Y-12421793D02*
X14896372Y-12421793D01*
X14896372Y-12421793D02*
X14915420Y-12412269D01*
X14915420Y-12412269D02*
X14924944Y-12402746D01*
X14924944Y-12402746D02*
X14934467Y-12383698D01*
X15115420Y-12297984D02*
X15020182Y-12297984D01*
X15020182Y-12297984D02*
X15010658Y-12393222D01*
X15010658Y-12393222D02*
X15020182Y-12383698D01*
X15020182Y-12383698D02*
X15039229Y-12374174D01*
X15039229Y-12374174D02*
X15086848Y-12374174D01*
X15086848Y-12374174D02*
X15105896Y-12383698D01*
X15105896Y-12383698D02*
X15115420Y-12393222D01*
X15115420Y-12393222D02*
X15124944Y-12412269D01*
X15124944Y-12412269D02*
X15124944Y-12459888D01*
X15124944Y-12459888D02*
X15115420Y-12478936D01*
X15115420Y-12478936D02*
X15105896Y-12488460D01*
X15105896Y-12488460D02*
X15086848Y-12497984D01*
X15086848Y-12497984D02*
X15039229Y-12497984D01*
X15039229Y-12497984D02*
X15020182Y-12488460D01*
X15020182Y-12488460D02*
X15010658Y-12478936D01*
X15201134Y-12297984D02*
X15201134Y-12336079D01*
X15277325Y-12297984D02*
X15277325Y-12336079D01*
X15572563Y-12574174D02*
X15563039Y-12564650D01*
X15563039Y-12564650D02*
X15543991Y-12536079D01*
X15543991Y-12536079D02*
X15534468Y-12517031D01*
X15534468Y-12517031D02*
X15524944Y-12488460D01*
X15524944Y-12488460D02*
X15515420Y-12440841D01*
X15515420Y-12440841D02*
X15515420Y-12402746D01*
X15515420Y-12402746D02*
X15524944Y-12355127D01*
X15524944Y-12355127D02*
X15534468Y-12326555D01*
X15534468Y-12326555D02*
X15543991Y-12307508D01*
X15543991Y-12307508D02*
X15563039Y-12278936D01*
X15563039Y-12278936D02*
X15572563Y-12269412D01*
X15677325Y-12383698D02*
X15658277Y-12374174D01*
X15658277Y-12374174D02*
X15648753Y-12364650D01*
X15648753Y-12364650D02*
X15639229Y-12345603D01*
X15639229Y-12345603D02*
X15639229Y-12336079D01*
X15639229Y-12336079D02*
X15648753Y-12317031D01*
X15648753Y-12317031D02*
X15658277Y-12307508D01*
X15658277Y-12307508D02*
X15677325Y-12297984D01*
X15677325Y-12297984D02*
X15715420Y-12297984D01*
X15715420Y-12297984D02*
X15734468Y-12307508D01*
X15734468Y-12307508D02*
X15743991Y-12317031D01*
X15743991Y-12317031D02*
X15753515Y-12336079D01*
X15753515Y-12336079D02*
X15753515Y-12345603D01*
X15753515Y-12345603D02*
X15743991Y-12364650D01*
X15743991Y-12364650D02*
X15734468Y-12374174D01*
X15734468Y-12374174D02*
X15715420Y-12383698D01*
X15715420Y-12383698D02*
X15677325Y-12383698D01*
X15677325Y-12383698D02*
X15658277Y-12393222D01*
X15658277Y-12393222D02*
X15648753Y-12402746D01*
X15648753Y-12402746D02*
X15639229Y-12421793D01*
X15639229Y-12421793D02*
X15639229Y-12459888D01*
X15639229Y-12459888D02*
X15648753Y-12478936D01*
X15648753Y-12478936D02*
X15658277Y-12488460D01*
X15658277Y-12488460D02*
X15677325Y-12497984D01*
X15677325Y-12497984D02*
X15715420Y-12497984D01*
X15715420Y-12497984D02*
X15734468Y-12488460D01*
X15734468Y-12488460D02*
X15743991Y-12478936D01*
X15743991Y-12478936D02*
X15753515Y-12459888D01*
X15753515Y-12459888D02*
X15753515Y-12421793D01*
X15753515Y-12421793D02*
X15743991Y-12402746D01*
X15743991Y-12402746D02*
X15734468Y-12393222D01*
X15734468Y-12393222D02*
X15715420Y-12383698D01*
X15991610Y-12497984D02*
X15991610Y-12297984D01*
X16077325Y-12497984D02*
X16077325Y-12393222D01*
X16077325Y-12393222D02*
X16067801Y-12374174D01*
X16067801Y-12374174D02*
X16048753Y-12364650D01*
X16048753Y-12364650D02*
X16020182Y-12364650D01*
X16020182Y-12364650D02*
X16001134Y-12374174D01*
X16001134Y-12374174D02*
X15991610Y-12383698D01*
X16201134Y-12497984D02*
X16182087Y-12488460D01*
X16182087Y-12488460D02*
X16172563Y-12478936D01*
X16172563Y-12478936D02*
X16163039Y-12459888D01*
X16163039Y-12459888D02*
X16163039Y-12402746D01*
X16163039Y-12402746D02*
X16172563Y-12383698D01*
X16172563Y-12383698D02*
X16182087Y-12374174D01*
X16182087Y-12374174D02*
X16201134Y-12364650D01*
X16201134Y-12364650D02*
X16229706Y-12364650D01*
X16229706Y-12364650D02*
X16248753Y-12374174D01*
X16248753Y-12374174D02*
X16258277Y-12383698D01*
X16258277Y-12383698D02*
X16267801Y-12402746D01*
X16267801Y-12402746D02*
X16267801Y-12459888D01*
X16267801Y-12459888D02*
X16258277Y-12478936D01*
X16258277Y-12478936D02*
X16248753Y-12488460D01*
X16248753Y-12488460D02*
X16229706Y-12497984D01*
X16229706Y-12497984D02*
X16201134Y-12497984D01*
X16382087Y-12497984D02*
X16363039Y-12488460D01*
X16363039Y-12488460D02*
X16353515Y-12469412D01*
X16353515Y-12469412D02*
X16353515Y-12297984D01*
X16534468Y-12488460D02*
X16515420Y-12497984D01*
X16515420Y-12497984D02*
X16477325Y-12497984D01*
X16477325Y-12497984D02*
X16458277Y-12488460D01*
X16458277Y-12488460D02*
X16448753Y-12469412D01*
X16448753Y-12469412D02*
X16448753Y-12393222D01*
X16448753Y-12393222D02*
X16458277Y-12374174D01*
X16458277Y-12374174D02*
X16477325Y-12364650D01*
X16477325Y-12364650D02*
X16515420Y-12364650D01*
X16515420Y-12364650D02*
X16534468Y-12374174D01*
X16534468Y-12374174D02*
X16543991Y-12393222D01*
X16543991Y-12393222D02*
X16543991Y-12412269D01*
X16543991Y-12412269D02*
X16448753Y-12431317D01*
X16620182Y-12488460D02*
X16639230Y-12497984D01*
X16639230Y-12497984D02*
X16677325Y-12497984D01*
X16677325Y-12497984D02*
X16696372Y-12488460D01*
X16696372Y-12488460D02*
X16705896Y-12469412D01*
X16705896Y-12469412D02*
X16705896Y-12459888D01*
X16705896Y-12459888D02*
X16696372Y-12440841D01*
X16696372Y-12440841D02*
X16677325Y-12431317D01*
X16677325Y-12431317D02*
X16648753Y-12431317D01*
X16648753Y-12431317D02*
X16629706Y-12421793D01*
X16629706Y-12421793D02*
X16620182Y-12402746D01*
X16620182Y-12402746D02*
X16620182Y-12393222D01*
X16620182Y-12393222D02*
X16629706Y-12374174D01*
X16629706Y-12374174D02*
X16648753Y-12364650D01*
X16648753Y-12364650D02*
X16677325Y-12364650D01*
X16677325Y-12364650D02*
X16696372Y-12374174D01*
X16772563Y-12574174D02*
X16782087Y-12564650D01*
X16782087Y-12564650D02*
X16801134Y-12536079D01*
X16801134Y-12536079D02*
X16810658Y-12517031D01*
X16810658Y-12517031D02*
X16820182Y-12488460D01*
X16820182Y-12488460D02*
X16829706Y-12440841D01*
X16829706Y-12440841D02*
X16829706Y-12402746D01*
X16829706Y-12402746D02*
X16820182Y-12355127D01*
X16820182Y-12355127D02*
X16810658Y-12326555D01*
X16810658Y-12326555D02*
X16801134Y-12307508D01*
X16801134Y-12307508D02*
X16782087Y-12278936D01*
X16782087Y-12278936D02*
X16772563Y-12269412D01*
D12*
X11957500Y-12630500D02*
X11957500Y-12710500D01*
X11917500Y-12670500D02*
X11997500Y-12670500D01*
D11*
X12296372Y-12561984D02*
X12315420Y-12561984D01*
X12315420Y-12561984D02*
X12334467Y-12571508D01*
X12334467Y-12571508D02*
X12343991Y-12581031D01*
X12343991Y-12581031D02*
X12353515Y-12600079D01*
X12353515Y-12600079D02*
X12363039Y-12638174D01*
X12363039Y-12638174D02*
X12363039Y-12685793D01*
X12363039Y-12685793D02*
X12353515Y-12723888D01*
X12353515Y-12723888D02*
X12343991Y-12742936D01*
X12343991Y-12742936D02*
X12334467Y-12752460D01*
X12334467Y-12752460D02*
X12315420Y-12761984D01*
X12315420Y-12761984D02*
X12296372Y-12761984D01*
X12296372Y-12761984D02*
X12277324Y-12752460D01*
X12277324Y-12752460D02*
X12267801Y-12742936D01*
X12267801Y-12742936D02*
X12258277Y-12723888D01*
X12258277Y-12723888D02*
X12248753Y-12685793D01*
X12248753Y-12685793D02*
X12248753Y-12638174D01*
X12248753Y-12638174D02*
X12258277Y-12600079D01*
X12258277Y-12600079D02*
X12267801Y-12581031D01*
X12267801Y-12581031D02*
X12277324Y-12571508D01*
X12277324Y-12571508D02*
X12296372Y-12561984D01*
X12448753Y-12742936D02*
X12458277Y-12752460D01*
X12458277Y-12752460D02*
X12448753Y-12761984D01*
X12448753Y-12761984D02*
X12439229Y-12752460D01*
X12439229Y-12752460D02*
X12448753Y-12742936D01*
X12448753Y-12742936D02*
X12448753Y-12761984D01*
X12572562Y-12647698D02*
X12553515Y-12638174D01*
X12553515Y-12638174D02*
X12543991Y-12628650D01*
X12543991Y-12628650D02*
X12534467Y-12609603D01*
X12534467Y-12609603D02*
X12534467Y-12600079D01*
X12534467Y-12600079D02*
X12543991Y-12581031D01*
X12543991Y-12581031D02*
X12553515Y-12571508D01*
X12553515Y-12571508D02*
X12572562Y-12561984D01*
X12572562Y-12561984D02*
X12610658Y-12561984D01*
X12610658Y-12561984D02*
X12629705Y-12571508D01*
X12629705Y-12571508D02*
X12639229Y-12581031D01*
X12639229Y-12581031D02*
X12648753Y-12600079D01*
X12648753Y-12600079D02*
X12648753Y-12609603D01*
X12648753Y-12609603D02*
X12639229Y-12628650D01*
X12639229Y-12628650D02*
X12629705Y-12638174D01*
X12629705Y-12638174D02*
X12610658Y-12647698D01*
X12610658Y-12647698D02*
X12572562Y-12647698D01*
X12572562Y-12647698D02*
X12553515Y-12657222D01*
X12553515Y-12657222D02*
X12543991Y-12666746D01*
X12543991Y-12666746D02*
X12534467Y-12685793D01*
X12534467Y-12685793D02*
X12534467Y-12723888D01*
X12534467Y-12723888D02*
X12543991Y-12742936D01*
X12543991Y-12742936D02*
X12553515Y-12752460D01*
X12553515Y-12752460D02*
X12572562Y-12761984D01*
X12572562Y-12761984D02*
X12610658Y-12761984D01*
X12610658Y-12761984D02*
X12629705Y-12752460D01*
X12629705Y-12752460D02*
X12639229Y-12742936D01*
X12639229Y-12742936D02*
X12648753Y-12723888D01*
X12648753Y-12723888D02*
X12648753Y-12685793D01*
X12648753Y-12685793D02*
X12639229Y-12666746D01*
X12639229Y-12666746D02*
X12629705Y-12657222D01*
X12629705Y-12657222D02*
X12610658Y-12647698D01*
X12772562Y-12561984D02*
X12791610Y-12561984D01*
X12791610Y-12561984D02*
X12810658Y-12571508D01*
X12810658Y-12571508D02*
X12820182Y-12581031D01*
X12820182Y-12581031D02*
X12829705Y-12600079D01*
X12829705Y-12600079D02*
X12839229Y-12638174D01*
X12839229Y-12638174D02*
X12839229Y-12685793D01*
X12839229Y-12685793D02*
X12829705Y-12723888D01*
X12829705Y-12723888D02*
X12820182Y-12742936D01*
X12820182Y-12742936D02*
X12810658Y-12752460D01*
X12810658Y-12752460D02*
X12791610Y-12761984D01*
X12791610Y-12761984D02*
X12772562Y-12761984D01*
X12772562Y-12761984D02*
X12753515Y-12752460D01*
X12753515Y-12752460D02*
X12743991Y-12742936D01*
X12743991Y-12742936D02*
X12734467Y-12723888D01*
X12734467Y-12723888D02*
X12724943Y-12685793D01*
X12724943Y-12685793D02*
X12724943Y-12638174D01*
X12724943Y-12638174D02*
X12734467Y-12600079D01*
X12734467Y-12600079D02*
X12743991Y-12581031D01*
X12743991Y-12581031D02*
X12753515Y-12571508D01*
X12753515Y-12571508D02*
X12772562Y-12561984D01*
X12963039Y-12561984D02*
X12982086Y-12561984D01*
X12982086Y-12561984D02*
X13001134Y-12571508D01*
X13001134Y-12571508D02*
X13010658Y-12581031D01*
X13010658Y-12581031D02*
X13020182Y-12600079D01*
X13020182Y-12600079D02*
X13029705Y-12638174D01*
X13029705Y-12638174D02*
X13029705Y-12685793D01*
X13029705Y-12685793D02*
X13020182Y-12723888D01*
X13020182Y-12723888D02*
X13010658Y-12742936D01*
X13010658Y-12742936D02*
X13001134Y-12752460D01*
X13001134Y-12752460D02*
X12982086Y-12761984D01*
X12982086Y-12761984D02*
X12963039Y-12761984D01*
X12963039Y-12761984D02*
X12943991Y-12752460D01*
X12943991Y-12752460D02*
X12934467Y-12742936D01*
X12934467Y-12742936D02*
X12924943Y-12723888D01*
X12924943Y-12723888D02*
X12915420Y-12685793D01*
X12915420Y-12685793D02*
X12915420Y-12638174D01*
X12915420Y-12638174D02*
X12924943Y-12600079D01*
X12924943Y-12600079D02*
X12934467Y-12581031D01*
X12934467Y-12581031D02*
X12943991Y-12571508D01*
X12943991Y-12571508D02*
X12963039Y-12561984D01*
X13115420Y-12761984D02*
X13115420Y-12628650D01*
X13115420Y-12647698D02*
X13124943Y-12638174D01*
X13124943Y-12638174D02*
X13143991Y-12628650D01*
X13143991Y-12628650D02*
X13172563Y-12628650D01*
X13172563Y-12628650D02*
X13191610Y-12638174D01*
X13191610Y-12638174D02*
X13201134Y-12657222D01*
X13201134Y-12657222D02*
X13201134Y-12761984D01*
X13201134Y-12657222D02*
X13210658Y-12638174D01*
X13210658Y-12638174D02*
X13229705Y-12628650D01*
X13229705Y-12628650D02*
X13258277Y-12628650D01*
X13258277Y-12628650D02*
X13277324Y-12638174D01*
X13277324Y-12638174D02*
X13286848Y-12657222D01*
X13286848Y-12657222D02*
X13286848Y-12761984D01*
X13382086Y-12761984D02*
X13382086Y-12628650D01*
X13382086Y-12647698D02*
X13391610Y-12638174D01*
X13391610Y-12638174D02*
X13410658Y-12628650D01*
X13410658Y-12628650D02*
X13439229Y-12628650D01*
X13439229Y-12628650D02*
X13458277Y-12638174D01*
X13458277Y-12638174D02*
X13467801Y-12657222D01*
X13467801Y-12657222D02*
X13467801Y-12761984D01*
X13467801Y-12657222D02*
X13477324Y-12638174D01*
X13477324Y-12638174D02*
X13496372Y-12628650D01*
X13496372Y-12628650D02*
X13524943Y-12628650D01*
X13524943Y-12628650D02*
X13543991Y-12638174D01*
X13543991Y-12638174D02*
X13553515Y-12657222D01*
X13553515Y-12657222D02*
X13553515Y-12761984D01*
X13943991Y-12552460D02*
X13772563Y-12809603D01*
X14201134Y-12561984D02*
X14220182Y-12561984D01*
X14220182Y-12561984D02*
X14239229Y-12571508D01*
X14239229Y-12571508D02*
X14248753Y-12581031D01*
X14248753Y-12581031D02*
X14258277Y-12600079D01*
X14258277Y-12600079D02*
X14267801Y-12638174D01*
X14267801Y-12638174D02*
X14267801Y-12685793D01*
X14267801Y-12685793D02*
X14258277Y-12723888D01*
X14258277Y-12723888D02*
X14248753Y-12742936D01*
X14248753Y-12742936D02*
X14239229Y-12752460D01*
X14239229Y-12752460D02*
X14220182Y-12761984D01*
X14220182Y-12761984D02*
X14201134Y-12761984D01*
X14201134Y-12761984D02*
X14182086Y-12752460D01*
X14182086Y-12752460D02*
X14172563Y-12742936D01*
X14172563Y-12742936D02*
X14163039Y-12723888D01*
X14163039Y-12723888D02*
X14153515Y-12685793D01*
X14153515Y-12685793D02*
X14153515Y-12638174D01*
X14153515Y-12638174D02*
X14163039Y-12600079D01*
X14163039Y-12600079D02*
X14172563Y-12581031D01*
X14172563Y-12581031D02*
X14182086Y-12571508D01*
X14182086Y-12571508D02*
X14201134Y-12561984D01*
X14353515Y-12742936D02*
X14363039Y-12752460D01*
X14363039Y-12752460D02*
X14353515Y-12761984D01*
X14353515Y-12761984D02*
X14343991Y-12752460D01*
X14343991Y-12752460D02*
X14353515Y-12742936D01*
X14353515Y-12742936D02*
X14353515Y-12761984D01*
X14486848Y-12561984D02*
X14505896Y-12561984D01*
X14505896Y-12561984D02*
X14524944Y-12571508D01*
X14524944Y-12571508D02*
X14534467Y-12581031D01*
X14534467Y-12581031D02*
X14543991Y-12600079D01*
X14543991Y-12600079D02*
X14553515Y-12638174D01*
X14553515Y-12638174D02*
X14553515Y-12685793D01*
X14553515Y-12685793D02*
X14543991Y-12723888D01*
X14543991Y-12723888D02*
X14534467Y-12742936D01*
X14534467Y-12742936D02*
X14524944Y-12752460D01*
X14524944Y-12752460D02*
X14505896Y-12761984D01*
X14505896Y-12761984D02*
X14486848Y-12761984D01*
X14486848Y-12761984D02*
X14467801Y-12752460D01*
X14467801Y-12752460D02*
X14458277Y-12742936D01*
X14458277Y-12742936D02*
X14448753Y-12723888D01*
X14448753Y-12723888D02*
X14439229Y-12685793D01*
X14439229Y-12685793D02*
X14439229Y-12638174D01*
X14439229Y-12638174D02*
X14448753Y-12600079D01*
X14448753Y-12600079D02*
X14458277Y-12581031D01*
X14458277Y-12581031D02*
X14467801Y-12571508D01*
X14467801Y-12571508D02*
X14486848Y-12561984D01*
X14620182Y-12561984D02*
X14743991Y-12561984D01*
X14743991Y-12561984D02*
X14677325Y-12638174D01*
X14677325Y-12638174D02*
X14705896Y-12638174D01*
X14705896Y-12638174D02*
X14724944Y-12647698D01*
X14724944Y-12647698D02*
X14734467Y-12657222D01*
X14734467Y-12657222D02*
X14743991Y-12676269D01*
X14743991Y-12676269D02*
X14743991Y-12723888D01*
X14743991Y-12723888D02*
X14734467Y-12742936D01*
X14734467Y-12742936D02*
X14724944Y-12752460D01*
X14724944Y-12752460D02*
X14705896Y-12761984D01*
X14705896Y-12761984D02*
X14648753Y-12761984D01*
X14648753Y-12761984D02*
X14629706Y-12752460D01*
X14629706Y-12752460D02*
X14620182Y-12742936D01*
X14934467Y-12761984D02*
X14820182Y-12761984D01*
X14877325Y-12761984D02*
X14877325Y-12561984D01*
X14877325Y-12561984D02*
X14858277Y-12590555D01*
X14858277Y-12590555D02*
X14839229Y-12609603D01*
X14839229Y-12609603D02*
X14820182Y-12619127D01*
X15115420Y-12561984D02*
X15020182Y-12561984D01*
X15020182Y-12561984D02*
X15010658Y-12657222D01*
X15010658Y-12657222D02*
X15020182Y-12647698D01*
X15020182Y-12647698D02*
X15039229Y-12638174D01*
X15039229Y-12638174D02*
X15086848Y-12638174D01*
X15086848Y-12638174D02*
X15105896Y-12647698D01*
X15105896Y-12647698D02*
X15115420Y-12657222D01*
X15115420Y-12657222D02*
X15124944Y-12676269D01*
X15124944Y-12676269D02*
X15124944Y-12723888D01*
X15124944Y-12723888D02*
X15115420Y-12742936D01*
X15115420Y-12742936D02*
X15105896Y-12752460D01*
X15105896Y-12752460D02*
X15086848Y-12761984D01*
X15086848Y-12761984D02*
X15039229Y-12761984D01*
X15039229Y-12761984D02*
X15020182Y-12752460D01*
X15020182Y-12752460D02*
X15010658Y-12742936D01*
X15201134Y-12561984D02*
X15201134Y-12600079D01*
X15277325Y-12561984D02*
X15277325Y-12600079D01*
X15572563Y-12838174D02*
X15563039Y-12828650D01*
X15563039Y-12828650D02*
X15543991Y-12800079D01*
X15543991Y-12800079D02*
X15534468Y-12781031D01*
X15534468Y-12781031D02*
X15524944Y-12752460D01*
X15524944Y-12752460D02*
X15515420Y-12704841D01*
X15515420Y-12704841D02*
X15515420Y-12666746D01*
X15515420Y-12666746D02*
X15524944Y-12619127D01*
X15524944Y-12619127D02*
X15534468Y-12590555D01*
X15534468Y-12590555D02*
X15543991Y-12571508D01*
X15543991Y-12571508D02*
X15563039Y-12542936D01*
X15563039Y-12542936D02*
X15572563Y-12533412D01*
X15639229Y-12581031D02*
X15648753Y-12571508D01*
X15648753Y-12571508D02*
X15667801Y-12561984D01*
X15667801Y-12561984D02*
X15715420Y-12561984D01*
X15715420Y-12561984D02*
X15734468Y-12571508D01*
X15734468Y-12571508D02*
X15743991Y-12581031D01*
X15743991Y-12581031D02*
X15753515Y-12600079D01*
X15753515Y-12600079D02*
X15753515Y-12619127D01*
X15753515Y-12619127D02*
X15743991Y-12647698D01*
X15743991Y-12647698D02*
X15629706Y-12761984D01*
X15629706Y-12761984D02*
X15753515Y-12761984D01*
X15991610Y-12761984D02*
X15991610Y-12561984D01*
X16077325Y-12761984D02*
X16077325Y-12657222D01*
X16077325Y-12657222D02*
X16067801Y-12638174D01*
X16067801Y-12638174D02*
X16048753Y-12628650D01*
X16048753Y-12628650D02*
X16020182Y-12628650D01*
X16020182Y-12628650D02*
X16001134Y-12638174D01*
X16001134Y-12638174D02*
X15991610Y-12647698D01*
X16201134Y-12761984D02*
X16182087Y-12752460D01*
X16182087Y-12752460D02*
X16172563Y-12742936D01*
X16172563Y-12742936D02*
X16163039Y-12723888D01*
X16163039Y-12723888D02*
X16163039Y-12666746D01*
X16163039Y-12666746D02*
X16172563Y-12647698D01*
X16172563Y-12647698D02*
X16182087Y-12638174D01*
X16182087Y-12638174D02*
X16201134Y-12628650D01*
X16201134Y-12628650D02*
X16229706Y-12628650D01*
X16229706Y-12628650D02*
X16248753Y-12638174D01*
X16248753Y-12638174D02*
X16258277Y-12647698D01*
X16258277Y-12647698D02*
X16267801Y-12666746D01*
X16267801Y-12666746D02*
X16267801Y-12723888D01*
X16267801Y-12723888D02*
X16258277Y-12742936D01*
X16258277Y-12742936D02*
X16248753Y-12752460D01*
X16248753Y-12752460D02*
X16229706Y-12761984D01*
X16229706Y-12761984D02*
X16201134Y-12761984D01*
X16382087Y-12761984D02*
X16363039Y-12752460D01*
X16363039Y-12752460D02*
X16353515Y-12733412D01*
X16353515Y-12733412D02*
X16353515Y-12561984D01*
X16534468Y-12752460D02*
X16515420Y-12761984D01*
X16515420Y-12761984D02*
X16477325Y-12761984D01*
X16477325Y-12761984D02*
X16458277Y-12752460D01*
X16458277Y-12752460D02*
X16448753Y-12733412D01*
X16448753Y-12733412D02*
X16448753Y-12657222D01*
X16448753Y-12657222D02*
X16458277Y-12638174D01*
X16458277Y-12638174D02*
X16477325Y-12628650D01*
X16477325Y-12628650D02*
X16515420Y-12628650D01*
X16515420Y-12628650D02*
X16534468Y-12638174D01*
X16534468Y-12638174D02*
X16543991Y-12657222D01*
X16543991Y-12657222D02*
X16543991Y-12676269D01*
X16543991Y-12676269D02*
X16448753Y-12695317D01*
X16620182Y-12752460D02*
X16639230Y-12761984D01*
X16639230Y-12761984D02*
X16677325Y-12761984D01*
X16677325Y-12761984D02*
X16696372Y-12752460D01*
X16696372Y-12752460D02*
X16705896Y-12733412D01*
X16705896Y-12733412D02*
X16705896Y-12723888D01*
X16705896Y-12723888D02*
X16696372Y-12704841D01*
X16696372Y-12704841D02*
X16677325Y-12695317D01*
X16677325Y-12695317D02*
X16648753Y-12695317D01*
X16648753Y-12695317D02*
X16629706Y-12685793D01*
X16629706Y-12685793D02*
X16620182Y-12666746D01*
X16620182Y-12666746D02*
X16620182Y-12657222D01*
X16620182Y-12657222D02*
X16629706Y-12638174D01*
X16629706Y-12638174D02*
X16648753Y-12628650D01*
X16648753Y-12628650D02*
X16677325Y-12628650D01*
X16677325Y-12628650D02*
X16696372Y-12638174D01*
X16772563Y-12838174D02*
X16782087Y-12828650D01*
X16782087Y-12828650D02*
X16801134Y-12800079D01*
X16801134Y-12800079D02*
X16810658Y-12781031D01*
X16810658Y-12781031D02*
X16820182Y-12752460D01*
X16820182Y-12752460D02*
X16829706Y-12704841D01*
X16829706Y-12704841D02*
X16829706Y-12666746D01*
X16829706Y-12666746D02*
X16820182Y-12619127D01*
X16820182Y-12619127D02*
X16810658Y-12590555D01*
X16810658Y-12590555D02*
X16801134Y-12571508D01*
X16801134Y-12571508D02*
X16782087Y-12542936D01*
X16782087Y-12542936D02*
X16772563Y-12533412D01*
D12*
X11984320Y-12966320D02*
X11984320Y-12902680D01*
X11920680Y-12902680D01*
X11920680Y-12966320D01*
X11984320Y-12966320D01*
D11*
X12296372Y-12825984D02*
X12315420Y-12825984D01*
X12315420Y-12825984D02*
X12334467Y-12835508D01*
X12334467Y-12835508D02*
X12343991Y-12845031D01*
X12343991Y-12845031D02*
X12353515Y-12864079D01*
X12353515Y-12864079D02*
X12363039Y-12902174D01*
X12363039Y-12902174D02*
X12363039Y-12949793D01*
X12363039Y-12949793D02*
X12353515Y-12987888D01*
X12353515Y-12987888D02*
X12343991Y-13006936D01*
X12343991Y-13006936D02*
X12334467Y-13016460D01*
X12334467Y-13016460D02*
X12315420Y-13025984D01*
X12315420Y-13025984D02*
X12296372Y-13025984D01*
X12296372Y-13025984D02*
X12277324Y-13016460D01*
X12277324Y-13016460D02*
X12267801Y-13006936D01*
X12267801Y-13006936D02*
X12258277Y-12987888D01*
X12258277Y-12987888D02*
X12248753Y-12949793D01*
X12248753Y-12949793D02*
X12248753Y-12902174D01*
X12248753Y-12902174D02*
X12258277Y-12864079D01*
X12258277Y-12864079D02*
X12267801Y-12845031D01*
X12267801Y-12845031D02*
X12277324Y-12835508D01*
X12277324Y-12835508D02*
X12296372Y-12825984D01*
X12448753Y-13006936D02*
X12458277Y-13016460D01*
X12458277Y-13016460D02*
X12448753Y-13025984D01*
X12448753Y-13025984D02*
X12439229Y-13016460D01*
X12439229Y-13016460D02*
X12448753Y-13006936D01*
X12448753Y-13006936D02*
X12448753Y-13025984D01*
X12553515Y-13025984D02*
X12591610Y-13025984D01*
X12591610Y-13025984D02*
X12610658Y-13016460D01*
X12610658Y-13016460D02*
X12620182Y-13006936D01*
X12620182Y-13006936D02*
X12639229Y-12978365D01*
X12639229Y-12978365D02*
X12648753Y-12940269D01*
X12648753Y-12940269D02*
X12648753Y-12864079D01*
X12648753Y-12864079D02*
X12639229Y-12845031D01*
X12639229Y-12845031D02*
X12629705Y-12835508D01*
X12629705Y-12835508D02*
X12610658Y-12825984D01*
X12610658Y-12825984D02*
X12572562Y-12825984D01*
X12572562Y-12825984D02*
X12553515Y-12835508D01*
X12553515Y-12835508D02*
X12543991Y-12845031D01*
X12543991Y-12845031D02*
X12534467Y-12864079D01*
X12534467Y-12864079D02*
X12534467Y-12911698D01*
X12534467Y-12911698D02*
X12543991Y-12930746D01*
X12543991Y-12930746D02*
X12553515Y-12940269D01*
X12553515Y-12940269D02*
X12572562Y-12949793D01*
X12572562Y-12949793D02*
X12610658Y-12949793D01*
X12610658Y-12949793D02*
X12629705Y-12940269D01*
X12629705Y-12940269D02*
X12639229Y-12930746D01*
X12639229Y-12930746D02*
X12648753Y-12911698D01*
X12772562Y-12825984D02*
X12791610Y-12825984D01*
X12791610Y-12825984D02*
X12810658Y-12835508D01*
X12810658Y-12835508D02*
X12820182Y-12845031D01*
X12820182Y-12845031D02*
X12829705Y-12864079D01*
X12829705Y-12864079D02*
X12839229Y-12902174D01*
X12839229Y-12902174D02*
X12839229Y-12949793D01*
X12839229Y-12949793D02*
X12829705Y-12987888D01*
X12829705Y-12987888D02*
X12820182Y-13006936D01*
X12820182Y-13006936D02*
X12810658Y-13016460D01*
X12810658Y-13016460D02*
X12791610Y-13025984D01*
X12791610Y-13025984D02*
X12772562Y-13025984D01*
X12772562Y-13025984D02*
X12753515Y-13016460D01*
X12753515Y-13016460D02*
X12743991Y-13006936D01*
X12743991Y-13006936D02*
X12734467Y-12987888D01*
X12734467Y-12987888D02*
X12724943Y-12949793D01*
X12724943Y-12949793D02*
X12724943Y-12902174D01*
X12724943Y-12902174D02*
X12734467Y-12864079D01*
X12734467Y-12864079D02*
X12743991Y-12845031D01*
X12743991Y-12845031D02*
X12753515Y-12835508D01*
X12753515Y-12835508D02*
X12772562Y-12825984D01*
X12963039Y-12825984D02*
X12982086Y-12825984D01*
X12982086Y-12825984D02*
X13001134Y-12835508D01*
X13001134Y-12835508D02*
X13010658Y-12845031D01*
X13010658Y-12845031D02*
X13020182Y-12864079D01*
X13020182Y-12864079D02*
X13029705Y-12902174D01*
X13029705Y-12902174D02*
X13029705Y-12949793D01*
X13029705Y-12949793D02*
X13020182Y-12987888D01*
X13020182Y-12987888D02*
X13010658Y-13006936D01*
X13010658Y-13006936D02*
X13001134Y-13016460D01*
X13001134Y-13016460D02*
X12982086Y-13025984D01*
X12982086Y-13025984D02*
X12963039Y-13025984D01*
X12963039Y-13025984D02*
X12943991Y-13016460D01*
X12943991Y-13016460D02*
X12934467Y-13006936D01*
X12934467Y-13006936D02*
X12924943Y-12987888D01*
X12924943Y-12987888D02*
X12915420Y-12949793D01*
X12915420Y-12949793D02*
X12915420Y-12902174D01*
X12915420Y-12902174D02*
X12924943Y-12864079D01*
X12924943Y-12864079D02*
X12934467Y-12845031D01*
X12934467Y-12845031D02*
X12943991Y-12835508D01*
X12943991Y-12835508D02*
X12963039Y-12825984D01*
X13115420Y-13025984D02*
X13115420Y-12892650D01*
X13115420Y-12911698D02*
X13124943Y-12902174D01*
X13124943Y-12902174D02*
X13143991Y-12892650D01*
X13143991Y-12892650D02*
X13172563Y-12892650D01*
X13172563Y-12892650D02*
X13191610Y-12902174D01*
X13191610Y-12902174D02*
X13201134Y-12921222D01*
X13201134Y-12921222D02*
X13201134Y-13025984D01*
X13201134Y-12921222D02*
X13210658Y-12902174D01*
X13210658Y-12902174D02*
X13229705Y-12892650D01*
X13229705Y-12892650D02*
X13258277Y-12892650D01*
X13258277Y-12892650D02*
X13277324Y-12902174D01*
X13277324Y-12902174D02*
X13286848Y-12921222D01*
X13286848Y-12921222D02*
X13286848Y-13025984D01*
X13382086Y-13025984D02*
X13382086Y-12892650D01*
X13382086Y-12911698D02*
X13391610Y-12902174D01*
X13391610Y-12902174D02*
X13410658Y-12892650D01*
X13410658Y-12892650D02*
X13439229Y-12892650D01*
X13439229Y-12892650D02*
X13458277Y-12902174D01*
X13458277Y-12902174D02*
X13467801Y-12921222D01*
X13467801Y-12921222D02*
X13467801Y-13025984D01*
X13467801Y-12921222D02*
X13477324Y-12902174D01*
X13477324Y-12902174D02*
X13496372Y-12892650D01*
X13496372Y-12892650D02*
X13524943Y-12892650D01*
X13524943Y-12892650D02*
X13543991Y-12902174D01*
X13543991Y-12902174D02*
X13553515Y-12921222D01*
X13553515Y-12921222D02*
X13553515Y-13025984D01*
X13943991Y-12816460D02*
X13772563Y-13073603D01*
X14201134Y-12825984D02*
X14220182Y-12825984D01*
X14220182Y-12825984D02*
X14239229Y-12835508D01*
X14239229Y-12835508D02*
X14248753Y-12845031D01*
X14248753Y-12845031D02*
X14258277Y-12864079D01*
X14258277Y-12864079D02*
X14267801Y-12902174D01*
X14267801Y-12902174D02*
X14267801Y-12949793D01*
X14267801Y-12949793D02*
X14258277Y-12987888D01*
X14258277Y-12987888D02*
X14248753Y-13006936D01*
X14248753Y-13006936D02*
X14239229Y-13016460D01*
X14239229Y-13016460D02*
X14220182Y-13025984D01*
X14220182Y-13025984D02*
X14201134Y-13025984D01*
X14201134Y-13025984D02*
X14182086Y-13016460D01*
X14182086Y-13016460D02*
X14172563Y-13006936D01*
X14172563Y-13006936D02*
X14163039Y-12987888D01*
X14163039Y-12987888D02*
X14153515Y-12949793D01*
X14153515Y-12949793D02*
X14153515Y-12902174D01*
X14153515Y-12902174D02*
X14163039Y-12864079D01*
X14163039Y-12864079D02*
X14172563Y-12845031D01*
X14172563Y-12845031D02*
X14182086Y-12835508D01*
X14182086Y-12835508D02*
X14201134Y-12825984D01*
X14353515Y-13006936D02*
X14363039Y-13016460D01*
X14363039Y-13016460D02*
X14353515Y-13025984D01*
X14353515Y-13025984D02*
X14343991Y-13016460D01*
X14343991Y-13016460D02*
X14353515Y-13006936D01*
X14353515Y-13006936D02*
X14353515Y-13025984D01*
X14486848Y-12825984D02*
X14505896Y-12825984D01*
X14505896Y-12825984D02*
X14524944Y-12835508D01*
X14524944Y-12835508D02*
X14534467Y-12845031D01*
X14534467Y-12845031D02*
X14543991Y-12864079D01*
X14543991Y-12864079D02*
X14553515Y-12902174D01*
X14553515Y-12902174D02*
X14553515Y-12949793D01*
X14553515Y-12949793D02*
X14543991Y-12987888D01*
X14543991Y-12987888D02*
X14534467Y-13006936D01*
X14534467Y-13006936D02*
X14524944Y-13016460D01*
X14524944Y-13016460D02*
X14505896Y-13025984D01*
X14505896Y-13025984D02*
X14486848Y-13025984D01*
X14486848Y-13025984D02*
X14467801Y-13016460D01*
X14467801Y-13016460D02*
X14458277Y-13006936D01*
X14458277Y-13006936D02*
X14448753Y-12987888D01*
X14448753Y-12987888D02*
X14439229Y-12949793D01*
X14439229Y-12949793D02*
X14439229Y-12902174D01*
X14439229Y-12902174D02*
X14448753Y-12864079D01*
X14448753Y-12864079D02*
X14458277Y-12845031D01*
X14458277Y-12845031D02*
X14467801Y-12835508D01*
X14467801Y-12835508D02*
X14486848Y-12825984D01*
X14620182Y-12825984D02*
X14743991Y-12825984D01*
X14743991Y-12825984D02*
X14677325Y-12902174D01*
X14677325Y-12902174D02*
X14705896Y-12902174D01*
X14705896Y-12902174D02*
X14724944Y-12911698D01*
X14724944Y-12911698D02*
X14734467Y-12921222D01*
X14734467Y-12921222D02*
X14743991Y-12940269D01*
X14743991Y-12940269D02*
X14743991Y-12987888D01*
X14743991Y-12987888D02*
X14734467Y-13006936D01*
X14734467Y-13006936D02*
X14724944Y-13016460D01*
X14724944Y-13016460D02*
X14705896Y-13025984D01*
X14705896Y-13025984D02*
X14648753Y-13025984D01*
X14648753Y-13025984D02*
X14629706Y-13016460D01*
X14629706Y-13016460D02*
X14620182Y-13006936D01*
X14924944Y-12825984D02*
X14829706Y-12825984D01*
X14829706Y-12825984D02*
X14820182Y-12921222D01*
X14820182Y-12921222D02*
X14829706Y-12911698D01*
X14829706Y-12911698D02*
X14848753Y-12902174D01*
X14848753Y-12902174D02*
X14896372Y-12902174D01*
X14896372Y-12902174D02*
X14915420Y-12911698D01*
X14915420Y-12911698D02*
X14924944Y-12921222D01*
X14924944Y-12921222D02*
X14934467Y-12940269D01*
X14934467Y-12940269D02*
X14934467Y-12987888D01*
X14934467Y-12987888D02*
X14924944Y-13006936D01*
X14924944Y-13006936D02*
X14915420Y-13016460D01*
X14915420Y-13016460D02*
X14896372Y-13025984D01*
X14896372Y-13025984D02*
X14848753Y-13025984D01*
X14848753Y-13025984D02*
X14829706Y-13016460D01*
X14829706Y-13016460D02*
X14820182Y-13006936D01*
X15105896Y-12892650D02*
X15105896Y-13025984D01*
X15058277Y-12816460D02*
X15010658Y-12959317D01*
X15010658Y-12959317D02*
X15134467Y-12959317D01*
X15201134Y-12825984D02*
X15201134Y-12864079D01*
X15277325Y-12825984D02*
X15277325Y-12864079D01*
X15572563Y-13102174D02*
X15563039Y-13092650D01*
X15563039Y-13092650D02*
X15543991Y-13064079D01*
X15543991Y-13064079D02*
X15534468Y-13045031D01*
X15534468Y-13045031D02*
X15524944Y-13016460D01*
X15524944Y-13016460D02*
X15515420Y-12968841D01*
X15515420Y-12968841D02*
X15515420Y-12930746D01*
X15515420Y-12930746D02*
X15524944Y-12883127D01*
X15524944Y-12883127D02*
X15534468Y-12854555D01*
X15534468Y-12854555D02*
X15543991Y-12835508D01*
X15543991Y-12835508D02*
X15563039Y-12806936D01*
X15563039Y-12806936D02*
X15572563Y-12797412D01*
X15734468Y-12892650D02*
X15734468Y-13025984D01*
X15686848Y-12816460D02*
X15639229Y-12959317D01*
X15639229Y-12959317D02*
X15763039Y-12959317D01*
X15991610Y-13025984D02*
X15991610Y-12825984D01*
X16077325Y-13025984D02*
X16077325Y-12921222D01*
X16077325Y-12921222D02*
X16067801Y-12902174D01*
X16067801Y-12902174D02*
X16048753Y-12892650D01*
X16048753Y-12892650D02*
X16020182Y-12892650D01*
X16020182Y-12892650D02*
X16001134Y-12902174D01*
X16001134Y-12902174D02*
X15991610Y-12911698D01*
X16201134Y-13025984D02*
X16182087Y-13016460D01*
X16182087Y-13016460D02*
X16172563Y-13006936D01*
X16172563Y-13006936D02*
X16163039Y-12987888D01*
X16163039Y-12987888D02*
X16163039Y-12930746D01*
X16163039Y-12930746D02*
X16172563Y-12911698D01*
X16172563Y-12911698D02*
X16182087Y-12902174D01*
X16182087Y-12902174D02*
X16201134Y-12892650D01*
X16201134Y-12892650D02*
X16229706Y-12892650D01*
X16229706Y-12892650D02*
X16248753Y-12902174D01*
X16248753Y-12902174D02*
X16258277Y-12911698D01*
X16258277Y-12911698D02*
X16267801Y-12930746D01*
X16267801Y-12930746D02*
X16267801Y-12987888D01*
X16267801Y-12987888D02*
X16258277Y-13006936D01*
X16258277Y-13006936D02*
X16248753Y-13016460D01*
X16248753Y-13016460D02*
X16229706Y-13025984D01*
X16229706Y-13025984D02*
X16201134Y-13025984D01*
X16382087Y-13025984D02*
X16363039Y-13016460D01*
X16363039Y-13016460D02*
X16353515Y-12997412D01*
X16353515Y-12997412D02*
X16353515Y-12825984D01*
X16534468Y-13016460D02*
X16515420Y-13025984D01*
X16515420Y-13025984D02*
X16477325Y-13025984D01*
X16477325Y-13025984D02*
X16458277Y-13016460D01*
X16458277Y-13016460D02*
X16448753Y-12997412D01*
X16448753Y-12997412D02*
X16448753Y-12921222D01*
X16448753Y-12921222D02*
X16458277Y-12902174D01*
X16458277Y-12902174D02*
X16477325Y-12892650D01*
X16477325Y-12892650D02*
X16515420Y-12892650D01*
X16515420Y-12892650D02*
X16534468Y-12902174D01*
X16534468Y-12902174D02*
X16543991Y-12921222D01*
X16543991Y-12921222D02*
X16543991Y-12940269D01*
X16543991Y-12940269D02*
X16448753Y-12959317D01*
X16620182Y-13016460D02*
X16639230Y-13025984D01*
X16639230Y-13025984D02*
X16677325Y-13025984D01*
X16677325Y-13025984D02*
X16696372Y-13016460D01*
X16696372Y-13016460D02*
X16705896Y-12997412D01*
X16705896Y-12997412D02*
X16705896Y-12987888D01*
X16705896Y-12987888D02*
X16696372Y-12968841D01*
X16696372Y-12968841D02*
X16677325Y-12959317D01*
X16677325Y-12959317D02*
X16648753Y-12959317D01*
X16648753Y-12959317D02*
X16629706Y-12949793D01*
X16629706Y-12949793D02*
X16620182Y-12930746D01*
X16620182Y-12930746D02*
X16620182Y-12921222D01*
X16620182Y-12921222D02*
X16629706Y-12902174D01*
X16629706Y-12902174D02*
X16648753Y-12892650D01*
X16648753Y-12892650D02*
X16677325Y-12892650D01*
X16677325Y-12892650D02*
X16696372Y-12902174D01*
X16772563Y-13102174D02*
X16782087Y-13092650D01*
X16782087Y-13092650D02*
X16801134Y-13064079D01*
X16801134Y-13064079D02*
X16810658Y-13045031D01*
X16810658Y-13045031D02*
X16820182Y-13016460D01*
X16820182Y-13016460D02*
X16829706Y-12968841D01*
X16829706Y-12968841D02*
X16829706Y-12930746D01*
X16829706Y-12930746D02*
X16820182Y-12883127D01*
X16820182Y-12883127D02*
X16810658Y-12854555D01*
X16810658Y-12854555D02*
X16801134Y-12835508D01*
X16801134Y-12835508D02*
X16782087Y-12806936D01*
X16782087Y-12806936D02*
X16772563Y-12797412D01*
D12*
X11947500Y-13248500D02*
X11997500Y-13198500D01*
X11947500Y-13148500D01*
X11897500Y-13198500D01*
X11947500Y-13248500D01*
D11*
X12363039Y-13289984D02*
X12248753Y-13289984D01*
X12305896Y-13289984D02*
X12305896Y-13089984D01*
X12305896Y-13089984D02*
X12286848Y-13118555D01*
X12286848Y-13118555D02*
X12267801Y-13137603D01*
X12267801Y-13137603D02*
X12248753Y-13147127D01*
X12448753Y-13270936D02*
X12458277Y-13280460D01*
X12458277Y-13280460D02*
X12448753Y-13289984D01*
X12448753Y-13289984D02*
X12439229Y-13280460D01*
X12439229Y-13280460D02*
X12448753Y-13270936D01*
X12448753Y-13270936D02*
X12448753Y-13289984D01*
X12582086Y-13089984D02*
X12601134Y-13089984D01*
X12601134Y-13089984D02*
X12620182Y-13099508D01*
X12620182Y-13099508D02*
X12629705Y-13109031D01*
X12629705Y-13109031D02*
X12639229Y-13128079D01*
X12639229Y-13128079D02*
X12648753Y-13166174D01*
X12648753Y-13166174D02*
X12648753Y-13213793D01*
X12648753Y-13213793D02*
X12639229Y-13251888D01*
X12639229Y-13251888D02*
X12629705Y-13270936D01*
X12629705Y-13270936D02*
X12620182Y-13280460D01*
X12620182Y-13280460D02*
X12601134Y-13289984D01*
X12601134Y-13289984D02*
X12582086Y-13289984D01*
X12582086Y-13289984D02*
X12563039Y-13280460D01*
X12563039Y-13280460D02*
X12553515Y-13270936D01*
X12553515Y-13270936D02*
X12543991Y-13251888D01*
X12543991Y-13251888D02*
X12534467Y-13213793D01*
X12534467Y-13213793D02*
X12534467Y-13166174D01*
X12534467Y-13166174D02*
X12543991Y-13128079D01*
X12543991Y-13128079D02*
X12553515Y-13109031D01*
X12553515Y-13109031D02*
X12563039Y-13099508D01*
X12563039Y-13099508D02*
X12582086Y-13089984D01*
X12772562Y-13089984D02*
X12791610Y-13089984D01*
X12791610Y-13089984D02*
X12810658Y-13099508D01*
X12810658Y-13099508D02*
X12820182Y-13109031D01*
X12820182Y-13109031D02*
X12829705Y-13128079D01*
X12829705Y-13128079D02*
X12839229Y-13166174D01*
X12839229Y-13166174D02*
X12839229Y-13213793D01*
X12839229Y-13213793D02*
X12829705Y-13251888D01*
X12829705Y-13251888D02*
X12820182Y-13270936D01*
X12820182Y-13270936D02*
X12810658Y-13280460D01*
X12810658Y-13280460D02*
X12791610Y-13289984D01*
X12791610Y-13289984D02*
X12772562Y-13289984D01*
X12772562Y-13289984D02*
X12753515Y-13280460D01*
X12753515Y-13280460D02*
X12743991Y-13270936D01*
X12743991Y-13270936D02*
X12734467Y-13251888D01*
X12734467Y-13251888D02*
X12724943Y-13213793D01*
X12724943Y-13213793D02*
X12724943Y-13166174D01*
X12724943Y-13166174D02*
X12734467Y-13128079D01*
X12734467Y-13128079D02*
X12743991Y-13109031D01*
X12743991Y-13109031D02*
X12753515Y-13099508D01*
X12753515Y-13099508D02*
X12772562Y-13089984D01*
X12963039Y-13089984D02*
X12982086Y-13089984D01*
X12982086Y-13089984D02*
X13001134Y-13099508D01*
X13001134Y-13099508D02*
X13010658Y-13109031D01*
X13010658Y-13109031D02*
X13020182Y-13128079D01*
X13020182Y-13128079D02*
X13029705Y-13166174D01*
X13029705Y-13166174D02*
X13029705Y-13213793D01*
X13029705Y-13213793D02*
X13020182Y-13251888D01*
X13020182Y-13251888D02*
X13010658Y-13270936D01*
X13010658Y-13270936D02*
X13001134Y-13280460D01*
X13001134Y-13280460D02*
X12982086Y-13289984D01*
X12982086Y-13289984D02*
X12963039Y-13289984D01*
X12963039Y-13289984D02*
X12943991Y-13280460D01*
X12943991Y-13280460D02*
X12934467Y-13270936D01*
X12934467Y-13270936D02*
X12924943Y-13251888D01*
X12924943Y-13251888D02*
X12915420Y-13213793D01*
X12915420Y-13213793D02*
X12915420Y-13166174D01*
X12915420Y-13166174D02*
X12924943Y-13128079D01*
X12924943Y-13128079D02*
X12934467Y-13109031D01*
X12934467Y-13109031D02*
X12943991Y-13099508D01*
X12943991Y-13099508D02*
X12963039Y-13089984D01*
X13115420Y-13289984D02*
X13115420Y-13156650D01*
X13115420Y-13175698D02*
X13124943Y-13166174D01*
X13124943Y-13166174D02*
X13143991Y-13156650D01*
X13143991Y-13156650D02*
X13172563Y-13156650D01*
X13172563Y-13156650D02*
X13191610Y-13166174D01*
X13191610Y-13166174D02*
X13201134Y-13185222D01*
X13201134Y-13185222D02*
X13201134Y-13289984D01*
X13201134Y-13185222D02*
X13210658Y-13166174D01*
X13210658Y-13166174D02*
X13229705Y-13156650D01*
X13229705Y-13156650D02*
X13258277Y-13156650D01*
X13258277Y-13156650D02*
X13277324Y-13166174D01*
X13277324Y-13166174D02*
X13286848Y-13185222D01*
X13286848Y-13185222D02*
X13286848Y-13289984D01*
X13382086Y-13289984D02*
X13382086Y-13156650D01*
X13382086Y-13175698D02*
X13391610Y-13166174D01*
X13391610Y-13166174D02*
X13410658Y-13156650D01*
X13410658Y-13156650D02*
X13439229Y-13156650D01*
X13439229Y-13156650D02*
X13458277Y-13166174D01*
X13458277Y-13166174D02*
X13467801Y-13185222D01*
X13467801Y-13185222D02*
X13467801Y-13289984D01*
X13467801Y-13185222D02*
X13477324Y-13166174D01*
X13477324Y-13166174D02*
X13496372Y-13156650D01*
X13496372Y-13156650D02*
X13524943Y-13156650D01*
X13524943Y-13156650D02*
X13543991Y-13166174D01*
X13543991Y-13166174D02*
X13553515Y-13185222D01*
X13553515Y-13185222D02*
X13553515Y-13289984D01*
X13943991Y-13080460D02*
X13772563Y-13337603D01*
X14201134Y-13089984D02*
X14220182Y-13089984D01*
X14220182Y-13089984D02*
X14239229Y-13099508D01*
X14239229Y-13099508D02*
X14248753Y-13109031D01*
X14248753Y-13109031D02*
X14258277Y-13128079D01*
X14258277Y-13128079D02*
X14267801Y-13166174D01*
X14267801Y-13166174D02*
X14267801Y-13213793D01*
X14267801Y-13213793D02*
X14258277Y-13251888D01*
X14258277Y-13251888D02*
X14248753Y-13270936D01*
X14248753Y-13270936D02*
X14239229Y-13280460D01*
X14239229Y-13280460D02*
X14220182Y-13289984D01*
X14220182Y-13289984D02*
X14201134Y-13289984D01*
X14201134Y-13289984D02*
X14182086Y-13280460D01*
X14182086Y-13280460D02*
X14172563Y-13270936D01*
X14172563Y-13270936D02*
X14163039Y-13251888D01*
X14163039Y-13251888D02*
X14153515Y-13213793D01*
X14153515Y-13213793D02*
X14153515Y-13166174D01*
X14153515Y-13166174D02*
X14163039Y-13128079D01*
X14163039Y-13128079D02*
X14172563Y-13109031D01*
X14172563Y-13109031D02*
X14182086Y-13099508D01*
X14182086Y-13099508D02*
X14201134Y-13089984D01*
X14353515Y-13270936D02*
X14363039Y-13280460D01*
X14363039Y-13280460D02*
X14353515Y-13289984D01*
X14353515Y-13289984D02*
X14343991Y-13280460D01*
X14343991Y-13280460D02*
X14353515Y-13270936D01*
X14353515Y-13270936D02*
X14353515Y-13289984D01*
X14486848Y-13089984D02*
X14505896Y-13089984D01*
X14505896Y-13089984D02*
X14524944Y-13099508D01*
X14524944Y-13099508D02*
X14534467Y-13109031D01*
X14534467Y-13109031D02*
X14543991Y-13128079D01*
X14543991Y-13128079D02*
X14553515Y-13166174D01*
X14553515Y-13166174D02*
X14553515Y-13213793D01*
X14553515Y-13213793D02*
X14543991Y-13251888D01*
X14543991Y-13251888D02*
X14534467Y-13270936D01*
X14534467Y-13270936D02*
X14524944Y-13280460D01*
X14524944Y-13280460D02*
X14505896Y-13289984D01*
X14505896Y-13289984D02*
X14486848Y-13289984D01*
X14486848Y-13289984D02*
X14467801Y-13280460D01*
X14467801Y-13280460D02*
X14458277Y-13270936D01*
X14458277Y-13270936D02*
X14448753Y-13251888D01*
X14448753Y-13251888D02*
X14439229Y-13213793D01*
X14439229Y-13213793D02*
X14439229Y-13166174D01*
X14439229Y-13166174D02*
X14448753Y-13128079D01*
X14448753Y-13128079D02*
X14458277Y-13109031D01*
X14458277Y-13109031D02*
X14467801Y-13099508D01*
X14467801Y-13099508D02*
X14486848Y-13089984D01*
X14620182Y-13089984D02*
X14743991Y-13089984D01*
X14743991Y-13089984D02*
X14677325Y-13166174D01*
X14677325Y-13166174D02*
X14705896Y-13166174D01*
X14705896Y-13166174D02*
X14724944Y-13175698D01*
X14724944Y-13175698D02*
X14734467Y-13185222D01*
X14734467Y-13185222D02*
X14743991Y-13204269D01*
X14743991Y-13204269D02*
X14743991Y-13251888D01*
X14743991Y-13251888D02*
X14734467Y-13270936D01*
X14734467Y-13270936D02*
X14724944Y-13280460D01*
X14724944Y-13280460D02*
X14705896Y-13289984D01*
X14705896Y-13289984D02*
X14648753Y-13289984D01*
X14648753Y-13289984D02*
X14629706Y-13280460D01*
X14629706Y-13280460D02*
X14620182Y-13270936D01*
X14839229Y-13289984D02*
X14877325Y-13289984D01*
X14877325Y-13289984D02*
X14896372Y-13280460D01*
X14896372Y-13280460D02*
X14905896Y-13270936D01*
X14905896Y-13270936D02*
X14924944Y-13242365D01*
X14924944Y-13242365D02*
X14934467Y-13204269D01*
X14934467Y-13204269D02*
X14934467Y-13128079D01*
X14934467Y-13128079D02*
X14924944Y-13109031D01*
X14924944Y-13109031D02*
X14915420Y-13099508D01*
X14915420Y-13099508D02*
X14896372Y-13089984D01*
X14896372Y-13089984D02*
X14858277Y-13089984D01*
X14858277Y-13089984D02*
X14839229Y-13099508D01*
X14839229Y-13099508D02*
X14829706Y-13109031D01*
X14829706Y-13109031D02*
X14820182Y-13128079D01*
X14820182Y-13128079D02*
X14820182Y-13175698D01*
X14820182Y-13175698D02*
X14829706Y-13194746D01*
X14829706Y-13194746D02*
X14839229Y-13204269D01*
X14839229Y-13204269D02*
X14858277Y-13213793D01*
X14858277Y-13213793D02*
X14896372Y-13213793D01*
X14896372Y-13213793D02*
X14915420Y-13204269D01*
X14915420Y-13204269D02*
X14924944Y-13194746D01*
X14924944Y-13194746D02*
X14934467Y-13175698D01*
X15105896Y-13156650D02*
X15105896Y-13289984D01*
X15058277Y-13080460D02*
X15010658Y-13223317D01*
X15010658Y-13223317D02*
X15134467Y-13223317D01*
X15201134Y-13089984D02*
X15201134Y-13128079D01*
X15277325Y-13089984D02*
X15277325Y-13128079D01*
X15572563Y-13366174D02*
X15563039Y-13356650D01*
X15563039Y-13356650D02*
X15543991Y-13328079D01*
X15543991Y-13328079D02*
X15534468Y-13309031D01*
X15534468Y-13309031D02*
X15524944Y-13280460D01*
X15524944Y-13280460D02*
X15515420Y-13232841D01*
X15515420Y-13232841D02*
X15515420Y-13194746D01*
X15515420Y-13194746D02*
X15524944Y-13147127D01*
X15524944Y-13147127D02*
X15534468Y-13118555D01*
X15534468Y-13118555D02*
X15543991Y-13099508D01*
X15543991Y-13099508D02*
X15563039Y-13070936D01*
X15563039Y-13070936D02*
X15572563Y-13061412D01*
X15753515Y-13289984D02*
X15639229Y-13289984D01*
X15696372Y-13289984D02*
X15696372Y-13089984D01*
X15696372Y-13089984D02*
X15677325Y-13118555D01*
X15677325Y-13118555D02*
X15658277Y-13137603D01*
X15658277Y-13137603D02*
X15639229Y-13147127D01*
X15867801Y-13175698D02*
X15848753Y-13166174D01*
X15848753Y-13166174D02*
X15839229Y-13156650D01*
X15839229Y-13156650D02*
X15829706Y-13137603D01*
X15829706Y-13137603D02*
X15829706Y-13128079D01*
X15829706Y-13128079D02*
X15839229Y-13109031D01*
X15839229Y-13109031D02*
X15848753Y-13099508D01*
X15848753Y-13099508D02*
X15867801Y-13089984D01*
X15867801Y-13089984D02*
X15905896Y-13089984D01*
X15905896Y-13089984D02*
X15924944Y-13099508D01*
X15924944Y-13099508D02*
X15934468Y-13109031D01*
X15934468Y-13109031D02*
X15943991Y-13128079D01*
X15943991Y-13128079D02*
X15943991Y-13137603D01*
X15943991Y-13137603D02*
X15934468Y-13156650D01*
X15934468Y-13156650D02*
X15924944Y-13166174D01*
X15924944Y-13166174D02*
X15905896Y-13175698D01*
X15905896Y-13175698D02*
X15867801Y-13175698D01*
X15867801Y-13175698D02*
X15848753Y-13185222D01*
X15848753Y-13185222D02*
X15839229Y-13194746D01*
X15839229Y-13194746D02*
X15829706Y-13213793D01*
X15829706Y-13213793D02*
X15829706Y-13251888D01*
X15829706Y-13251888D02*
X15839229Y-13270936D01*
X15839229Y-13270936D02*
X15848753Y-13280460D01*
X15848753Y-13280460D02*
X15867801Y-13289984D01*
X15867801Y-13289984D02*
X15905896Y-13289984D01*
X15905896Y-13289984D02*
X15924944Y-13280460D01*
X15924944Y-13280460D02*
X15934468Y-13270936D01*
X15934468Y-13270936D02*
X15943991Y-13251888D01*
X15943991Y-13251888D02*
X15943991Y-13213793D01*
X15943991Y-13213793D02*
X15934468Y-13194746D01*
X15934468Y-13194746D02*
X15924944Y-13185222D01*
X15924944Y-13185222D02*
X15905896Y-13175698D01*
X16182087Y-13289984D02*
X16182087Y-13089984D01*
X16267801Y-13289984D02*
X16267801Y-13185222D01*
X16267801Y-13185222D02*
X16258277Y-13166174D01*
X16258277Y-13166174D02*
X16239230Y-13156650D01*
X16239230Y-13156650D02*
X16210658Y-13156650D01*
X16210658Y-13156650D02*
X16191610Y-13166174D01*
X16191610Y-13166174D02*
X16182087Y-13175698D01*
X16391610Y-13289984D02*
X16372563Y-13280460D01*
X16372563Y-13280460D02*
X16363039Y-13270936D01*
X16363039Y-13270936D02*
X16353515Y-13251888D01*
X16353515Y-13251888D02*
X16353515Y-13194746D01*
X16353515Y-13194746D02*
X16363039Y-13175698D01*
X16363039Y-13175698D02*
X16372563Y-13166174D01*
X16372563Y-13166174D02*
X16391610Y-13156650D01*
X16391610Y-13156650D02*
X16420182Y-13156650D01*
X16420182Y-13156650D02*
X16439230Y-13166174D01*
X16439230Y-13166174D02*
X16448753Y-13175698D01*
X16448753Y-13175698D02*
X16458277Y-13194746D01*
X16458277Y-13194746D02*
X16458277Y-13251888D01*
X16458277Y-13251888D02*
X16448753Y-13270936D01*
X16448753Y-13270936D02*
X16439230Y-13280460D01*
X16439230Y-13280460D02*
X16420182Y-13289984D01*
X16420182Y-13289984D02*
X16391610Y-13289984D01*
X16572563Y-13289984D02*
X16553515Y-13280460D01*
X16553515Y-13280460D02*
X16543991Y-13261412D01*
X16543991Y-13261412D02*
X16543991Y-13089984D01*
X16724944Y-13280460D02*
X16705896Y-13289984D01*
X16705896Y-13289984D02*
X16667801Y-13289984D01*
X16667801Y-13289984D02*
X16648753Y-13280460D01*
X16648753Y-13280460D02*
X16639230Y-13261412D01*
X16639230Y-13261412D02*
X16639230Y-13185222D01*
X16639230Y-13185222D02*
X16648753Y-13166174D01*
X16648753Y-13166174D02*
X16667801Y-13156650D01*
X16667801Y-13156650D02*
X16705896Y-13156650D01*
X16705896Y-13156650D02*
X16724944Y-13166174D01*
X16724944Y-13166174D02*
X16734468Y-13185222D01*
X16734468Y-13185222D02*
X16734468Y-13204269D01*
X16734468Y-13204269D02*
X16639230Y-13223317D01*
X16810658Y-13280460D02*
X16829706Y-13289984D01*
X16829706Y-13289984D02*
X16867801Y-13289984D01*
X16867801Y-13289984D02*
X16886849Y-13280460D01*
X16886849Y-13280460D02*
X16896373Y-13261412D01*
X16896373Y-13261412D02*
X16896373Y-13251888D01*
X16896373Y-13251888D02*
X16886849Y-13232841D01*
X16886849Y-13232841D02*
X16867801Y-13223317D01*
X16867801Y-13223317D02*
X16839230Y-13223317D01*
X16839230Y-13223317D02*
X16820182Y-13213793D01*
X16820182Y-13213793D02*
X16810658Y-13194746D01*
X16810658Y-13194746D02*
X16810658Y-13185222D01*
X16810658Y-13185222D02*
X16820182Y-13166174D01*
X16820182Y-13166174D02*
X16839230Y-13156650D01*
X16839230Y-13156650D02*
X16867801Y-13156650D01*
X16867801Y-13156650D02*
X16886849Y-13166174D01*
X16963039Y-13366174D02*
X16972563Y-13356650D01*
X16972563Y-13356650D02*
X16991611Y-13328079D01*
X16991611Y-13328079D02*
X17001134Y-13309031D01*
X17001134Y-13309031D02*
X17010658Y-13280460D01*
X17010658Y-13280460D02*
X17020182Y-13232841D01*
X17020182Y-13232841D02*
X17020182Y-13194746D01*
X17020182Y-13194746D02*
X17010658Y-13147127D01*
X17010658Y-13147127D02*
X17001134Y-13118555D01*
X17001134Y-13118555D02*
X16991611Y-13099508D01*
X16991611Y-13099508D02*
X16972563Y-13070936D01*
X16972563Y-13070936D02*
X16963039Y-13061412D01*
D13*
X11877500Y-13402500D02*
X11997500Y-13522500D01*
X11997500Y-13402500D02*
X11877500Y-13522500D01*
X11997500Y-13462500D02*
G75*
G03*
X11877500Y-13462500I-60000J0D01*
G01*
X11877500Y-13462500D02*
G75*
G03*
X11997500Y-13462500I60000J0D01*
G01*
D11*
X12363039Y-13553984D02*
X12248753Y-13553984D01*
X12305896Y-13553984D02*
X12305896Y-13353984D01*
X12305896Y-13353984D02*
X12286848Y-13382555D01*
X12286848Y-13382555D02*
X12267801Y-13401603D01*
X12267801Y-13401603D02*
X12248753Y-13411127D01*
X12448753Y-13534936D02*
X12458277Y-13544460D01*
X12458277Y-13544460D02*
X12448753Y-13553984D01*
X12448753Y-13553984D02*
X12439229Y-13544460D01*
X12439229Y-13544460D02*
X12448753Y-13534936D01*
X12448753Y-13534936D02*
X12448753Y-13553984D01*
X12534467Y-13373031D02*
X12543991Y-13363508D01*
X12543991Y-13363508D02*
X12563039Y-13353984D01*
X12563039Y-13353984D02*
X12610658Y-13353984D01*
X12610658Y-13353984D02*
X12629705Y-13363508D01*
X12629705Y-13363508D02*
X12639229Y-13373031D01*
X12639229Y-13373031D02*
X12648753Y-13392079D01*
X12648753Y-13392079D02*
X12648753Y-13411127D01*
X12648753Y-13411127D02*
X12639229Y-13439698D01*
X12639229Y-13439698D02*
X12524943Y-13553984D01*
X12524943Y-13553984D02*
X12648753Y-13553984D01*
X12772562Y-13353984D02*
X12791610Y-13353984D01*
X12791610Y-13353984D02*
X12810658Y-13363508D01*
X12810658Y-13363508D02*
X12820182Y-13373031D01*
X12820182Y-13373031D02*
X12829705Y-13392079D01*
X12829705Y-13392079D02*
X12839229Y-13430174D01*
X12839229Y-13430174D02*
X12839229Y-13477793D01*
X12839229Y-13477793D02*
X12829705Y-13515888D01*
X12829705Y-13515888D02*
X12820182Y-13534936D01*
X12820182Y-13534936D02*
X12810658Y-13544460D01*
X12810658Y-13544460D02*
X12791610Y-13553984D01*
X12791610Y-13553984D02*
X12772562Y-13553984D01*
X12772562Y-13553984D02*
X12753515Y-13544460D01*
X12753515Y-13544460D02*
X12743991Y-13534936D01*
X12743991Y-13534936D02*
X12734467Y-13515888D01*
X12734467Y-13515888D02*
X12724943Y-13477793D01*
X12724943Y-13477793D02*
X12724943Y-13430174D01*
X12724943Y-13430174D02*
X12734467Y-13392079D01*
X12734467Y-13392079D02*
X12743991Y-13373031D01*
X12743991Y-13373031D02*
X12753515Y-13363508D01*
X12753515Y-13363508D02*
X12772562Y-13353984D01*
X12963039Y-13353984D02*
X12982086Y-13353984D01*
X12982086Y-13353984D02*
X13001134Y-13363508D01*
X13001134Y-13363508D02*
X13010658Y-13373031D01*
X13010658Y-13373031D02*
X13020182Y-13392079D01*
X13020182Y-13392079D02*
X13029705Y-13430174D01*
X13029705Y-13430174D02*
X13029705Y-13477793D01*
X13029705Y-13477793D02*
X13020182Y-13515888D01*
X13020182Y-13515888D02*
X13010658Y-13534936D01*
X13010658Y-13534936D02*
X13001134Y-13544460D01*
X13001134Y-13544460D02*
X12982086Y-13553984D01*
X12982086Y-13553984D02*
X12963039Y-13553984D01*
X12963039Y-13553984D02*
X12943991Y-13544460D01*
X12943991Y-13544460D02*
X12934467Y-13534936D01*
X12934467Y-13534936D02*
X12924943Y-13515888D01*
X12924943Y-13515888D02*
X12915420Y-13477793D01*
X12915420Y-13477793D02*
X12915420Y-13430174D01*
X12915420Y-13430174D02*
X12924943Y-13392079D01*
X12924943Y-13392079D02*
X12934467Y-13373031D01*
X12934467Y-13373031D02*
X12943991Y-13363508D01*
X12943991Y-13363508D02*
X12963039Y-13353984D01*
X13115420Y-13553984D02*
X13115420Y-13420650D01*
X13115420Y-13439698D02*
X13124943Y-13430174D01*
X13124943Y-13430174D02*
X13143991Y-13420650D01*
X13143991Y-13420650D02*
X13172563Y-13420650D01*
X13172563Y-13420650D02*
X13191610Y-13430174D01*
X13191610Y-13430174D02*
X13201134Y-13449222D01*
X13201134Y-13449222D02*
X13201134Y-13553984D01*
X13201134Y-13449222D02*
X13210658Y-13430174D01*
X13210658Y-13430174D02*
X13229705Y-13420650D01*
X13229705Y-13420650D02*
X13258277Y-13420650D01*
X13258277Y-13420650D02*
X13277324Y-13430174D01*
X13277324Y-13430174D02*
X13286848Y-13449222D01*
X13286848Y-13449222D02*
X13286848Y-13553984D01*
X13382086Y-13553984D02*
X13382086Y-13420650D01*
X13382086Y-13439698D02*
X13391610Y-13430174D01*
X13391610Y-13430174D02*
X13410658Y-13420650D01*
X13410658Y-13420650D02*
X13439229Y-13420650D01*
X13439229Y-13420650D02*
X13458277Y-13430174D01*
X13458277Y-13430174D02*
X13467801Y-13449222D01*
X13467801Y-13449222D02*
X13467801Y-13553984D01*
X13467801Y-13449222D02*
X13477324Y-13430174D01*
X13477324Y-13430174D02*
X13496372Y-13420650D01*
X13496372Y-13420650D02*
X13524943Y-13420650D01*
X13524943Y-13420650D02*
X13543991Y-13430174D01*
X13543991Y-13430174D02*
X13553515Y-13449222D01*
X13553515Y-13449222D02*
X13553515Y-13553984D01*
X13943991Y-13344460D02*
X13772563Y-13601603D01*
X14201134Y-13353984D02*
X14220182Y-13353984D01*
X14220182Y-13353984D02*
X14239229Y-13363508D01*
X14239229Y-13363508D02*
X14248753Y-13373031D01*
X14248753Y-13373031D02*
X14258277Y-13392079D01*
X14258277Y-13392079D02*
X14267801Y-13430174D01*
X14267801Y-13430174D02*
X14267801Y-13477793D01*
X14267801Y-13477793D02*
X14258277Y-13515888D01*
X14258277Y-13515888D02*
X14248753Y-13534936D01*
X14248753Y-13534936D02*
X14239229Y-13544460D01*
X14239229Y-13544460D02*
X14220182Y-13553984D01*
X14220182Y-13553984D02*
X14201134Y-13553984D01*
X14201134Y-13553984D02*
X14182086Y-13544460D01*
X14182086Y-13544460D02*
X14172563Y-13534936D01*
X14172563Y-13534936D02*
X14163039Y-13515888D01*
X14163039Y-13515888D02*
X14153515Y-13477793D01*
X14153515Y-13477793D02*
X14153515Y-13430174D01*
X14153515Y-13430174D02*
X14163039Y-13392079D01*
X14163039Y-13392079D02*
X14172563Y-13373031D01*
X14172563Y-13373031D02*
X14182086Y-13363508D01*
X14182086Y-13363508D02*
X14201134Y-13353984D01*
X14353515Y-13534936D02*
X14363039Y-13544460D01*
X14363039Y-13544460D02*
X14353515Y-13553984D01*
X14353515Y-13553984D02*
X14343991Y-13544460D01*
X14343991Y-13544460D02*
X14353515Y-13534936D01*
X14353515Y-13534936D02*
X14353515Y-13553984D01*
X14486848Y-13353984D02*
X14505896Y-13353984D01*
X14505896Y-13353984D02*
X14524944Y-13363508D01*
X14524944Y-13363508D02*
X14534467Y-13373031D01*
X14534467Y-13373031D02*
X14543991Y-13392079D01*
X14543991Y-13392079D02*
X14553515Y-13430174D01*
X14553515Y-13430174D02*
X14553515Y-13477793D01*
X14553515Y-13477793D02*
X14543991Y-13515888D01*
X14543991Y-13515888D02*
X14534467Y-13534936D01*
X14534467Y-13534936D02*
X14524944Y-13544460D01*
X14524944Y-13544460D02*
X14505896Y-13553984D01*
X14505896Y-13553984D02*
X14486848Y-13553984D01*
X14486848Y-13553984D02*
X14467801Y-13544460D01*
X14467801Y-13544460D02*
X14458277Y-13534936D01*
X14458277Y-13534936D02*
X14448753Y-13515888D01*
X14448753Y-13515888D02*
X14439229Y-13477793D01*
X14439229Y-13477793D02*
X14439229Y-13430174D01*
X14439229Y-13430174D02*
X14448753Y-13392079D01*
X14448753Y-13392079D02*
X14458277Y-13373031D01*
X14458277Y-13373031D02*
X14467801Y-13363508D01*
X14467801Y-13363508D02*
X14486848Y-13353984D01*
X14724944Y-13420650D02*
X14724944Y-13553984D01*
X14677325Y-13344460D02*
X14629706Y-13487317D01*
X14629706Y-13487317D02*
X14753515Y-13487317D01*
X14810658Y-13353984D02*
X14943991Y-13353984D01*
X14943991Y-13353984D02*
X14858277Y-13553984D01*
X15010658Y-13373031D02*
X15020182Y-13363508D01*
X15020182Y-13363508D02*
X15039229Y-13353984D01*
X15039229Y-13353984D02*
X15086848Y-13353984D01*
X15086848Y-13353984D02*
X15105896Y-13363508D01*
X15105896Y-13363508D02*
X15115420Y-13373031D01*
X15115420Y-13373031D02*
X15124944Y-13392079D01*
X15124944Y-13392079D02*
X15124944Y-13411127D01*
X15124944Y-13411127D02*
X15115420Y-13439698D01*
X15115420Y-13439698D02*
X15001134Y-13553984D01*
X15001134Y-13553984D02*
X15124944Y-13553984D01*
X15201134Y-13353984D02*
X15201134Y-13392079D01*
X15277325Y-13353984D02*
X15277325Y-13392079D01*
X15572563Y-13630174D02*
X15563039Y-13620650D01*
X15563039Y-13620650D02*
X15543991Y-13592079D01*
X15543991Y-13592079D02*
X15534468Y-13573031D01*
X15534468Y-13573031D02*
X15524944Y-13544460D01*
X15524944Y-13544460D02*
X15515420Y-13496841D01*
X15515420Y-13496841D02*
X15515420Y-13458746D01*
X15515420Y-13458746D02*
X15524944Y-13411127D01*
X15524944Y-13411127D02*
X15534468Y-13382555D01*
X15534468Y-13382555D02*
X15543991Y-13363508D01*
X15543991Y-13363508D02*
X15563039Y-13334936D01*
X15563039Y-13334936D02*
X15572563Y-13325412D01*
X15639229Y-13373031D02*
X15648753Y-13363508D01*
X15648753Y-13363508D02*
X15667801Y-13353984D01*
X15667801Y-13353984D02*
X15715420Y-13353984D01*
X15715420Y-13353984D02*
X15734468Y-13363508D01*
X15734468Y-13363508D02*
X15743991Y-13373031D01*
X15743991Y-13373031D02*
X15753515Y-13392079D01*
X15753515Y-13392079D02*
X15753515Y-13411127D01*
X15753515Y-13411127D02*
X15743991Y-13439698D01*
X15743991Y-13439698D02*
X15629706Y-13553984D01*
X15629706Y-13553984D02*
X15753515Y-13553984D01*
X15991610Y-13553984D02*
X15991610Y-13353984D01*
X16077325Y-13553984D02*
X16077325Y-13449222D01*
X16077325Y-13449222D02*
X16067801Y-13430174D01*
X16067801Y-13430174D02*
X16048753Y-13420650D01*
X16048753Y-13420650D02*
X16020182Y-13420650D01*
X16020182Y-13420650D02*
X16001134Y-13430174D01*
X16001134Y-13430174D02*
X15991610Y-13439698D01*
X16201134Y-13553984D02*
X16182087Y-13544460D01*
X16182087Y-13544460D02*
X16172563Y-13534936D01*
X16172563Y-13534936D02*
X16163039Y-13515888D01*
X16163039Y-13515888D02*
X16163039Y-13458746D01*
X16163039Y-13458746D02*
X16172563Y-13439698D01*
X16172563Y-13439698D02*
X16182087Y-13430174D01*
X16182087Y-13430174D02*
X16201134Y-13420650D01*
X16201134Y-13420650D02*
X16229706Y-13420650D01*
X16229706Y-13420650D02*
X16248753Y-13430174D01*
X16248753Y-13430174D02*
X16258277Y-13439698D01*
X16258277Y-13439698D02*
X16267801Y-13458746D01*
X16267801Y-13458746D02*
X16267801Y-13515888D01*
X16267801Y-13515888D02*
X16258277Y-13534936D01*
X16258277Y-13534936D02*
X16248753Y-13544460D01*
X16248753Y-13544460D02*
X16229706Y-13553984D01*
X16229706Y-13553984D02*
X16201134Y-13553984D01*
X16382087Y-13553984D02*
X16363039Y-13544460D01*
X16363039Y-13544460D02*
X16353515Y-13525412D01*
X16353515Y-13525412D02*
X16353515Y-13353984D01*
X16534468Y-13544460D02*
X16515420Y-13553984D01*
X16515420Y-13553984D02*
X16477325Y-13553984D01*
X16477325Y-13553984D02*
X16458277Y-13544460D01*
X16458277Y-13544460D02*
X16448753Y-13525412D01*
X16448753Y-13525412D02*
X16448753Y-13449222D01*
X16448753Y-13449222D02*
X16458277Y-13430174D01*
X16458277Y-13430174D02*
X16477325Y-13420650D01*
X16477325Y-13420650D02*
X16515420Y-13420650D01*
X16515420Y-13420650D02*
X16534468Y-13430174D01*
X16534468Y-13430174D02*
X16543991Y-13449222D01*
X16543991Y-13449222D02*
X16543991Y-13468269D01*
X16543991Y-13468269D02*
X16448753Y-13487317D01*
X16620182Y-13544460D02*
X16639230Y-13553984D01*
X16639230Y-13553984D02*
X16677325Y-13553984D01*
X16677325Y-13553984D02*
X16696372Y-13544460D01*
X16696372Y-13544460D02*
X16705896Y-13525412D01*
X16705896Y-13525412D02*
X16705896Y-13515888D01*
X16705896Y-13515888D02*
X16696372Y-13496841D01*
X16696372Y-13496841D02*
X16677325Y-13487317D01*
X16677325Y-13487317D02*
X16648753Y-13487317D01*
X16648753Y-13487317D02*
X16629706Y-13477793D01*
X16629706Y-13477793D02*
X16620182Y-13458746D01*
X16620182Y-13458746D02*
X16620182Y-13449222D01*
X16620182Y-13449222D02*
X16629706Y-13430174D01*
X16629706Y-13430174D02*
X16648753Y-13420650D01*
X16648753Y-13420650D02*
X16677325Y-13420650D01*
X16677325Y-13420650D02*
X16696372Y-13430174D01*
X16772563Y-13630174D02*
X16782087Y-13620650D01*
X16782087Y-13620650D02*
X16801134Y-13592079D01*
X16801134Y-13592079D02*
X16810658Y-13573031D01*
X16810658Y-13573031D02*
X16820182Y-13544460D01*
X16820182Y-13544460D02*
X16829706Y-13496841D01*
X16829706Y-13496841D02*
X16829706Y-13458746D01*
X16829706Y-13458746D02*
X16820182Y-13411127D01*
X16820182Y-13411127D02*
X16810658Y-13382555D01*
X16810658Y-13382555D02*
X16801134Y-13363508D01*
X16801134Y-13363508D02*
X16782087Y-13334936D01*
X16782087Y-13334936D02*
X16772563Y-13325412D01*
X11797500Y-13626500D02*
X11997500Y-13826500D01*
X11997500Y-13626500D02*
X11797500Y-13826500D01*
X11897500Y-13626500D02*
X11897500Y-13826500D01*
X11797500Y-13726500D02*
X11997500Y-13726500D01*
X12248753Y-13637031D02*
X12258277Y-13627508D01*
X12258277Y-13627508D02*
X12277324Y-13617984D01*
X12277324Y-13617984D02*
X12324943Y-13617984D01*
X12324943Y-13617984D02*
X12343991Y-13627508D01*
X12343991Y-13627508D02*
X12353515Y-13637031D01*
X12353515Y-13637031D02*
X12363039Y-13656079D01*
X12363039Y-13656079D02*
X12363039Y-13675127D01*
X12363039Y-13675127D02*
X12353515Y-13703698D01*
X12353515Y-13703698D02*
X12239229Y-13817984D01*
X12239229Y-13817984D02*
X12363039Y-13817984D01*
X12448753Y-13798936D02*
X12458277Y-13808460D01*
X12458277Y-13808460D02*
X12448753Y-13817984D01*
X12448753Y-13817984D02*
X12439229Y-13808460D01*
X12439229Y-13808460D02*
X12448753Y-13798936D01*
X12448753Y-13798936D02*
X12448753Y-13817984D01*
X12639229Y-13617984D02*
X12543991Y-13617984D01*
X12543991Y-13617984D02*
X12534467Y-13713222D01*
X12534467Y-13713222D02*
X12543991Y-13703698D01*
X12543991Y-13703698D02*
X12563039Y-13694174D01*
X12563039Y-13694174D02*
X12610658Y-13694174D01*
X12610658Y-13694174D02*
X12629705Y-13703698D01*
X12629705Y-13703698D02*
X12639229Y-13713222D01*
X12639229Y-13713222D02*
X12648753Y-13732269D01*
X12648753Y-13732269D02*
X12648753Y-13779888D01*
X12648753Y-13779888D02*
X12639229Y-13798936D01*
X12639229Y-13798936D02*
X12629705Y-13808460D01*
X12629705Y-13808460D02*
X12610658Y-13817984D01*
X12610658Y-13817984D02*
X12563039Y-13817984D01*
X12563039Y-13817984D02*
X12543991Y-13808460D01*
X12543991Y-13808460D02*
X12534467Y-13798936D01*
X12772562Y-13617984D02*
X12791610Y-13617984D01*
X12791610Y-13617984D02*
X12810658Y-13627508D01*
X12810658Y-13627508D02*
X12820182Y-13637031D01*
X12820182Y-13637031D02*
X12829705Y-13656079D01*
X12829705Y-13656079D02*
X12839229Y-13694174D01*
X12839229Y-13694174D02*
X12839229Y-13741793D01*
X12839229Y-13741793D02*
X12829705Y-13779888D01*
X12829705Y-13779888D02*
X12820182Y-13798936D01*
X12820182Y-13798936D02*
X12810658Y-13808460D01*
X12810658Y-13808460D02*
X12791610Y-13817984D01*
X12791610Y-13817984D02*
X12772562Y-13817984D01*
X12772562Y-13817984D02*
X12753515Y-13808460D01*
X12753515Y-13808460D02*
X12743991Y-13798936D01*
X12743991Y-13798936D02*
X12734467Y-13779888D01*
X12734467Y-13779888D02*
X12724943Y-13741793D01*
X12724943Y-13741793D02*
X12724943Y-13694174D01*
X12724943Y-13694174D02*
X12734467Y-13656079D01*
X12734467Y-13656079D02*
X12743991Y-13637031D01*
X12743991Y-13637031D02*
X12753515Y-13627508D01*
X12753515Y-13627508D02*
X12772562Y-13617984D01*
X12963039Y-13617984D02*
X12982086Y-13617984D01*
X12982086Y-13617984D02*
X13001134Y-13627508D01*
X13001134Y-13627508D02*
X13010658Y-13637031D01*
X13010658Y-13637031D02*
X13020182Y-13656079D01*
X13020182Y-13656079D02*
X13029705Y-13694174D01*
X13029705Y-13694174D02*
X13029705Y-13741793D01*
X13029705Y-13741793D02*
X13020182Y-13779888D01*
X13020182Y-13779888D02*
X13010658Y-13798936D01*
X13010658Y-13798936D02*
X13001134Y-13808460D01*
X13001134Y-13808460D02*
X12982086Y-13817984D01*
X12982086Y-13817984D02*
X12963039Y-13817984D01*
X12963039Y-13817984D02*
X12943991Y-13808460D01*
X12943991Y-13808460D02*
X12934467Y-13798936D01*
X12934467Y-13798936D02*
X12924943Y-13779888D01*
X12924943Y-13779888D02*
X12915420Y-13741793D01*
X12915420Y-13741793D02*
X12915420Y-13694174D01*
X12915420Y-13694174D02*
X12924943Y-13656079D01*
X12924943Y-13656079D02*
X12934467Y-13637031D01*
X12934467Y-13637031D02*
X12943991Y-13627508D01*
X12943991Y-13627508D02*
X12963039Y-13617984D01*
X13115420Y-13817984D02*
X13115420Y-13684650D01*
X13115420Y-13703698D02*
X13124943Y-13694174D01*
X13124943Y-13694174D02*
X13143991Y-13684650D01*
X13143991Y-13684650D02*
X13172563Y-13684650D01*
X13172563Y-13684650D02*
X13191610Y-13694174D01*
X13191610Y-13694174D02*
X13201134Y-13713222D01*
X13201134Y-13713222D02*
X13201134Y-13817984D01*
X13201134Y-13713222D02*
X13210658Y-13694174D01*
X13210658Y-13694174D02*
X13229705Y-13684650D01*
X13229705Y-13684650D02*
X13258277Y-13684650D01*
X13258277Y-13684650D02*
X13277324Y-13694174D01*
X13277324Y-13694174D02*
X13286848Y-13713222D01*
X13286848Y-13713222D02*
X13286848Y-13817984D01*
X13382086Y-13817984D02*
X13382086Y-13684650D01*
X13382086Y-13703698D02*
X13391610Y-13694174D01*
X13391610Y-13694174D02*
X13410658Y-13684650D01*
X13410658Y-13684650D02*
X13439229Y-13684650D01*
X13439229Y-13684650D02*
X13458277Y-13694174D01*
X13458277Y-13694174D02*
X13467801Y-13713222D01*
X13467801Y-13713222D02*
X13467801Y-13817984D01*
X13467801Y-13713222D02*
X13477324Y-13694174D01*
X13477324Y-13694174D02*
X13496372Y-13684650D01*
X13496372Y-13684650D02*
X13524943Y-13684650D01*
X13524943Y-13684650D02*
X13543991Y-13694174D01*
X13543991Y-13694174D02*
X13553515Y-13713222D01*
X13553515Y-13713222D02*
X13553515Y-13817984D01*
X13943991Y-13608460D02*
X13772563Y-13865603D01*
X14201134Y-13617984D02*
X14220182Y-13617984D01*
X14220182Y-13617984D02*
X14239229Y-13627508D01*
X14239229Y-13627508D02*
X14248753Y-13637031D01*
X14248753Y-13637031D02*
X14258277Y-13656079D01*
X14258277Y-13656079D02*
X14267801Y-13694174D01*
X14267801Y-13694174D02*
X14267801Y-13741793D01*
X14267801Y-13741793D02*
X14258277Y-13779888D01*
X14258277Y-13779888D02*
X14248753Y-13798936D01*
X14248753Y-13798936D02*
X14239229Y-13808460D01*
X14239229Y-13808460D02*
X14220182Y-13817984D01*
X14220182Y-13817984D02*
X14201134Y-13817984D01*
X14201134Y-13817984D02*
X14182086Y-13808460D01*
X14182086Y-13808460D02*
X14172563Y-13798936D01*
X14172563Y-13798936D02*
X14163039Y-13779888D01*
X14163039Y-13779888D02*
X14153515Y-13741793D01*
X14153515Y-13741793D02*
X14153515Y-13694174D01*
X14153515Y-13694174D02*
X14163039Y-13656079D01*
X14163039Y-13656079D02*
X14172563Y-13637031D01*
X14172563Y-13637031D02*
X14182086Y-13627508D01*
X14182086Y-13627508D02*
X14201134Y-13617984D01*
X14353515Y-13798936D02*
X14363039Y-13808460D01*
X14363039Y-13808460D02*
X14353515Y-13817984D01*
X14353515Y-13817984D02*
X14343991Y-13808460D01*
X14343991Y-13808460D02*
X14353515Y-13798936D01*
X14353515Y-13798936D02*
X14353515Y-13817984D01*
X14486848Y-13617984D02*
X14505896Y-13617984D01*
X14505896Y-13617984D02*
X14524944Y-13627508D01*
X14524944Y-13627508D02*
X14534467Y-13637031D01*
X14534467Y-13637031D02*
X14543991Y-13656079D01*
X14543991Y-13656079D02*
X14553515Y-13694174D01*
X14553515Y-13694174D02*
X14553515Y-13741793D01*
X14553515Y-13741793D02*
X14543991Y-13779888D01*
X14543991Y-13779888D02*
X14534467Y-13798936D01*
X14534467Y-13798936D02*
X14524944Y-13808460D01*
X14524944Y-13808460D02*
X14505896Y-13817984D01*
X14505896Y-13817984D02*
X14486848Y-13817984D01*
X14486848Y-13817984D02*
X14467801Y-13808460D01*
X14467801Y-13808460D02*
X14458277Y-13798936D01*
X14458277Y-13798936D02*
X14448753Y-13779888D01*
X14448753Y-13779888D02*
X14439229Y-13741793D01*
X14439229Y-13741793D02*
X14439229Y-13694174D01*
X14439229Y-13694174D02*
X14448753Y-13656079D01*
X14448753Y-13656079D02*
X14458277Y-13637031D01*
X14458277Y-13637031D02*
X14467801Y-13627508D01*
X14467801Y-13627508D02*
X14486848Y-13617984D01*
X14648753Y-13817984D02*
X14686848Y-13817984D01*
X14686848Y-13817984D02*
X14705896Y-13808460D01*
X14705896Y-13808460D02*
X14715420Y-13798936D01*
X14715420Y-13798936D02*
X14734467Y-13770365D01*
X14734467Y-13770365D02*
X14743991Y-13732269D01*
X14743991Y-13732269D02*
X14743991Y-13656079D01*
X14743991Y-13656079D02*
X14734467Y-13637031D01*
X14734467Y-13637031D02*
X14724944Y-13627508D01*
X14724944Y-13627508D02*
X14705896Y-13617984D01*
X14705896Y-13617984D02*
X14667801Y-13617984D01*
X14667801Y-13617984D02*
X14648753Y-13627508D01*
X14648753Y-13627508D02*
X14639229Y-13637031D01*
X14639229Y-13637031D02*
X14629706Y-13656079D01*
X14629706Y-13656079D02*
X14629706Y-13703698D01*
X14629706Y-13703698D02*
X14639229Y-13722746D01*
X14639229Y-13722746D02*
X14648753Y-13732269D01*
X14648753Y-13732269D02*
X14667801Y-13741793D01*
X14667801Y-13741793D02*
X14705896Y-13741793D01*
X14705896Y-13741793D02*
X14724944Y-13732269D01*
X14724944Y-13732269D02*
X14734467Y-13722746D01*
X14734467Y-13722746D02*
X14743991Y-13703698D01*
X14858277Y-13703698D02*
X14839229Y-13694174D01*
X14839229Y-13694174D02*
X14829706Y-13684650D01*
X14829706Y-13684650D02*
X14820182Y-13665603D01*
X14820182Y-13665603D02*
X14820182Y-13656079D01*
X14820182Y-13656079D02*
X14829706Y-13637031D01*
X14829706Y-13637031D02*
X14839229Y-13627508D01*
X14839229Y-13627508D02*
X14858277Y-13617984D01*
X14858277Y-13617984D02*
X14896372Y-13617984D01*
X14896372Y-13617984D02*
X14915420Y-13627508D01*
X14915420Y-13627508D02*
X14924944Y-13637031D01*
X14924944Y-13637031D02*
X14934467Y-13656079D01*
X14934467Y-13656079D02*
X14934467Y-13665603D01*
X14934467Y-13665603D02*
X14924944Y-13684650D01*
X14924944Y-13684650D02*
X14915420Y-13694174D01*
X14915420Y-13694174D02*
X14896372Y-13703698D01*
X14896372Y-13703698D02*
X14858277Y-13703698D01*
X14858277Y-13703698D02*
X14839229Y-13713222D01*
X14839229Y-13713222D02*
X14829706Y-13722746D01*
X14829706Y-13722746D02*
X14820182Y-13741793D01*
X14820182Y-13741793D02*
X14820182Y-13779888D01*
X14820182Y-13779888D02*
X14829706Y-13798936D01*
X14829706Y-13798936D02*
X14839229Y-13808460D01*
X14839229Y-13808460D02*
X14858277Y-13817984D01*
X14858277Y-13817984D02*
X14896372Y-13817984D01*
X14896372Y-13817984D02*
X14915420Y-13808460D01*
X14915420Y-13808460D02*
X14924944Y-13798936D01*
X14924944Y-13798936D02*
X14934467Y-13779888D01*
X14934467Y-13779888D02*
X14934467Y-13741793D01*
X14934467Y-13741793D02*
X14924944Y-13722746D01*
X14924944Y-13722746D02*
X14915420Y-13713222D01*
X14915420Y-13713222D02*
X14896372Y-13703698D01*
X15105896Y-13684650D02*
X15105896Y-13817984D01*
X15058277Y-13608460D02*
X15010658Y-13751317D01*
X15010658Y-13751317D02*
X15134467Y-13751317D01*
X15201134Y-13617984D02*
X15201134Y-13656079D01*
X15277325Y-13617984D02*
X15277325Y-13656079D01*
X15572563Y-13894174D02*
X15563039Y-13884650D01*
X15563039Y-13884650D02*
X15543991Y-13856079D01*
X15543991Y-13856079D02*
X15534468Y-13837031D01*
X15534468Y-13837031D02*
X15524944Y-13808460D01*
X15524944Y-13808460D02*
X15515420Y-13760841D01*
X15515420Y-13760841D02*
X15515420Y-13722746D01*
X15515420Y-13722746D02*
X15524944Y-13675127D01*
X15524944Y-13675127D02*
X15534468Y-13646555D01*
X15534468Y-13646555D02*
X15543991Y-13627508D01*
X15543991Y-13627508D02*
X15563039Y-13598936D01*
X15563039Y-13598936D02*
X15572563Y-13589412D01*
X15734468Y-13617984D02*
X15696372Y-13617984D01*
X15696372Y-13617984D02*
X15677325Y-13627508D01*
X15677325Y-13627508D02*
X15667801Y-13637031D01*
X15667801Y-13637031D02*
X15648753Y-13665603D01*
X15648753Y-13665603D02*
X15639229Y-13703698D01*
X15639229Y-13703698D02*
X15639229Y-13779888D01*
X15639229Y-13779888D02*
X15648753Y-13798936D01*
X15648753Y-13798936D02*
X15658277Y-13808460D01*
X15658277Y-13808460D02*
X15677325Y-13817984D01*
X15677325Y-13817984D02*
X15715420Y-13817984D01*
X15715420Y-13817984D02*
X15734468Y-13808460D01*
X15734468Y-13808460D02*
X15743991Y-13798936D01*
X15743991Y-13798936D02*
X15753515Y-13779888D01*
X15753515Y-13779888D02*
X15753515Y-13732269D01*
X15753515Y-13732269D02*
X15743991Y-13713222D01*
X15743991Y-13713222D02*
X15734468Y-13703698D01*
X15734468Y-13703698D02*
X15715420Y-13694174D01*
X15715420Y-13694174D02*
X15677325Y-13694174D01*
X15677325Y-13694174D02*
X15658277Y-13703698D01*
X15658277Y-13703698D02*
X15648753Y-13713222D01*
X15648753Y-13713222D02*
X15639229Y-13732269D01*
X15991610Y-13817984D02*
X15991610Y-13617984D01*
X16077325Y-13817984D02*
X16077325Y-13713222D01*
X16077325Y-13713222D02*
X16067801Y-13694174D01*
X16067801Y-13694174D02*
X16048753Y-13684650D01*
X16048753Y-13684650D02*
X16020182Y-13684650D01*
X16020182Y-13684650D02*
X16001134Y-13694174D01*
X16001134Y-13694174D02*
X15991610Y-13703698D01*
X16201134Y-13817984D02*
X16182087Y-13808460D01*
X16182087Y-13808460D02*
X16172563Y-13798936D01*
X16172563Y-13798936D02*
X16163039Y-13779888D01*
X16163039Y-13779888D02*
X16163039Y-13722746D01*
X16163039Y-13722746D02*
X16172563Y-13703698D01*
X16172563Y-13703698D02*
X16182087Y-13694174D01*
X16182087Y-13694174D02*
X16201134Y-13684650D01*
X16201134Y-13684650D02*
X16229706Y-13684650D01*
X16229706Y-13684650D02*
X16248753Y-13694174D01*
X16248753Y-13694174D02*
X16258277Y-13703698D01*
X16258277Y-13703698D02*
X16267801Y-13722746D01*
X16267801Y-13722746D02*
X16267801Y-13779888D01*
X16267801Y-13779888D02*
X16258277Y-13798936D01*
X16258277Y-13798936D02*
X16248753Y-13808460D01*
X16248753Y-13808460D02*
X16229706Y-13817984D01*
X16229706Y-13817984D02*
X16201134Y-13817984D01*
X16382087Y-13817984D02*
X16363039Y-13808460D01*
X16363039Y-13808460D02*
X16353515Y-13789412D01*
X16353515Y-13789412D02*
X16353515Y-13617984D01*
X16534468Y-13808460D02*
X16515420Y-13817984D01*
X16515420Y-13817984D02*
X16477325Y-13817984D01*
X16477325Y-13817984D02*
X16458277Y-13808460D01*
X16458277Y-13808460D02*
X16448753Y-13789412D01*
X16448753Y-13789412D02*
X16448753Y-13713222D01*
X16448753Y-13713222D02*
X16458277Y-13694174D01*
X16458277Y-13694174D02*
X16477325Y-13684650D01*
X16477325Y-13684650D02*
X16515420Y-13684650D01*
X16515420Y-13684650D02*
X16534468Y-13694174D01*
X16534468Y-13694174D02*
X16543991Y-13713222D01*
X16543991Y-13713222D02*
X16543991Y-13732269D01*
X16543991Y-13732269D02*
X16448753Y-13751317D01*
X16620182Y-13808460D02*
X16639230Y-13817984D01*
X16639230Y-13817984D02*
X16677325Y-13817984D01*
X16677325Y-13817984D02*
X16696372Y-13808460D01*
X16696372Y-13808460D02*
X16705896Y-13789412D01*
X16705896Y-13789412D02*
X16705896Y-13779888D01*
X16705896Y-13779888D02*
X16696372Y-13760841D01*
X16696372Y-13760841D02*
X16677325Y-13751317D01*
X16677325Y-13751317D02*
X16648753Y-13751317D01*
X16648753Y-13751317D02*
X16629706Y-13741793D01*
X16629706Y-13741793D02*
X16620182Y-13722746D01*
X16620182Y-13722746D02*
X16620182Y-13713222D01*
X16620182Y-13713222D02*
X16629706Y-13694174D01*
X16629706Y-13694174D02*
X16648753Y-13684650D01*
X16648753Y-13684650D02*
X16677325Y-13684650D01*
X16677325Y-13684650D02*
X16696372Y-13694174D01*
X16772563Y-13894174D02*
X16782087Y-13884650D01*
X16782087Y-13884650D02*
X16801134Y-13856079D01*
X16801134Y-13856079D02*
X16810658Y-13837031D01*
X16810658Y-13837031D02*
X16820182Y-13808460D01*
X16820182Y-13808460D02*
X16829706Y-13760841D01*
X16829706Y-13760841D02*
X16829706Y-13722746D01*
X16829706Y-13722746D02*
X16820182Y-13675127D01*
X16820182Y-13675127D02*
X16810658Y-13646555D01*
X16810658Y-13646555D02*
X16801134Y-13627508D01*
X16801134Y-13627508D02*
X16782087Y-13598936D01*
X16782087Y-13598936D02*
X16772563Y-13589412D01*
M02*
