G04 #@! TF.GenerationSoftware,KiCad,Pcbnew,7.0.10*
G04 #@! TF.CreationDate,2025-02-01T12:29:44+01:00*
G04 #@! TF.ProjectId,Multi Sensor Board,4d756c74-6920-4536-956e-736f7220426f,rev?*
G04 #@! TF.SameCoordinates,Original*
G04 #@! TF.FileFunction,Copper,L1,Top*
G04 #@! TF.FilePolarity,Positive*
%FSLAX46Y46*%
G04 Gerber Fmt 4.6, Leading zero omitted, Abs format (unit mm)*
G04 Created by KiCad (PCBNEW 7.0.10) date 2025-02-01 12:29:44*
%MOMM*%
%LPD*%
G01*
G04 APERTURE LIST*
G04 Aperture macros list*
%AMRoundRect*
0 Rectangle with rounded corners*
0 $1 Rounding radius*
0 $2 $3 $4 $5 $6 $7 $8 $9 X,Y pos of 4 corners*
0 Add a 4 corners polygon primitive as box body*
4,1,4,$2,$3,$4,$5,$6,$7,$8,$9,$2,$3,0*
0 Add four circle primitives for the rounded corners*
1,1,$1+$1,$2,$3*
1,1,$1+$1,$4,$5*
1,1,$1+$1,$6,$7*
1,1,$1+$1,$8,$9*
0 Add four rect primitives between the rounded corners*
20,1,$1+$1,$2,$3,$4,$5,0*
20,1,$1+$1,$4,$5,$6,$7,0*
20,1,$1+$1,$6,$7,$8,$9,0*
20,1,$1+$1,$8,$9,$2,$3,0*%
G04 Aperture macros list end*
G04 #@! TA.AperFunction,ComponentPad*
%ADD10C,5.000000*%
G04 #@! TD*
G04 #@! TA.AperFunction,ComponentPad*
%ADD11C,2.400000*%
G04 #@! TD*
G04 #@! TA.AperFunction,ComponentPad*
%ADD12R,1.700000X1.700000*%
G04 #@! TD*
G04 #@! TA.AperFunction,ComponentPad*
%ADD13O,1.700000X1.700000*%
G04 #@! TD*
G04 #@! TA.AperFunction,ComponentPad*
%ADD14RoundRect,0.250000X0.350000X0.625000X-0.350000X0.625000X-0.350000X-0.625000X0.350000X-0.625000X0*%
G04 #@! TD*
G04 #@! TA.AperFunction,ComponentPad*
%ADD15O,1.200000X1.750000*%
G04 #@! TD*
G04 #@! TA.AperFunction,ComponentPad*
%ADD16RoundRect,0.250000X-0.350000X-0.625000X0.350000X-0.625000X0.350000X0.625000X-0.350000X0.625000X0*%
G04 #@! TD*
G04 #@! TA.AperFunction,ComponentPad*
%ADD17R,1.800000X1.800000*%
G04 #@! TD*
G04 #@! TA.AperFunction,ComponentPad*
%ADD18C,1.800000*%
G04 #@! TD*
G04 #@! TA.AperFunction,ComponentPad*
%ADD19R,1.600000X1.600000*%
G04 #@! TD*
G04 #@! TA.AperFunction,ComponentPad*
%ADD20C,1.600000*%
G04 #@! TD*
G04 #@! TA.AperFunction,ViaPad*
%ADD21C,0.800000*%
G04 #@! TD*
G04 #@! TA.AperFunction,Conductor*
%ADD22C,0.500000*%
G04 #@! TD*
G04 #@! TA.AperFunction,Conductor*
%ADD23C,1.000000*%
G04 #@! TD*
G04 #@! TA.AperFunction,Conductor*
%ADD24C,0.750000*%
G04 #@! TD*
G04 APERTURE END LIST*
D10*
X161036000Y-83820000D03*
D11*
X162306000Y-97267000D03*
D12*
X142494000Y-94742000D03*
D13*
X142494000Y-97282000D03*
X142494000Y-99822000D03*
D12*
X149622000Y-94742000D03*
D13*
X149622000Y-97282000D03*
X149622000Y-99822000D03*
D12*
X135366000Y-94742000D03*
D13*
X135366000Y-97282000D03*
X135366000Y-99822000D03*
D11*
X122682000Y-97282000D03*
D10*
X131064000Y-110998000D03*
X131064000Y-83820000D03*
D12*
X158750000Y-94742000D03*
D13*
X158750000Y-97282000D03*
X158750000Y-99822000D03*
D10*
X123952000Y-83820000D03*
D14*
X145490475Y-82376000D03*
D15*
X143490475Y-82376000D03*
X141490475Y-82376000D03*
X139490475Y-82376000D03*
D12*
X154750000Y-94742000D03*
D13*
X154750000Y-97282000D03*
X154750000Y-99822000D03*
D10*
X123952000Y-110998000D03*
D16*
X139490475Y-112621129D03*
D15*
X141490475Y-112621129D03*
X143490475Y-112621129D03*
X145490475Y-112621129D03*
D12*
X126238000Y-94742000D03*
D13*
X126238000Y-97282000D03*
X126238000Y-99822000D03*
D17*
X155194000Y-85095000D03*
D18*
X155194000Y-82555000D03*
D17*
X155194000Y-112273000D03*
D18*
X155194000Y-109733000D03*
D10*
X161036000Y-110998000D03*
D19*
X122682000Y-103418000D03*
D20*
X122682000Y-105918000D03*
D21*
X159766000Y-102870000D03*
X132334000Y-93218000D03*
X151638000Y-106172000D03*
X153924000Y-88392000D03*
X155194000Y-102870000D03*
X144018000Y-98552000D03*
X146812000Y-100330000D03*
X136906000Y-96012000D03*
X149098000Y-87122000D03*
X140462000Y-100838000D03*
D22*
X144546082Y-103720000D02*
X158916000Y-103720000D01*
D23*
X126238000Y-99822000D02*
X126238000Y-103493370D01*
D22*
X158750000Y-99822000D02*
X159766000Y-100838000D01*
D23*
X143490475Y-82376000D02*
X143490475Y-83701000D01*
X140192776Y-110998000D02*
X141490475Y-112295699D01*
X146239056Y-94742000D02*
X142494000Y-94742000D01*
D22*
X159766000Y-100838000D02*
X159766000Y-102870000D01*
D23*
X135366000Y-99822000D02*
X126238000Y-99822000D01*
X143490475Y-83701000D02*
X142863475Y-84328000D01*
X131572000Y-84328000D02*
X131064000Y-83820000D01*
X125984000Y-105918000D02*
X131064000Y-110998000D01*
D22*
X140648082Y-99822000D02*
X144546082Y-103720000D01*
X158916000Y-103720000D02*
X159766000Y-102870000D01*
D23*
X123813370Y-105918000D02*
X122682000Y-105918000D01*
X148779056Y-97282000D02*
X146239056Y-94742000D01*
X126238000Y-103493370D02*
X123813370Y-105918000D01*
X141490475Y-112295699D02*
X141490475Y-112621129D01*
X142863475Y-84328000D02*
X131572000Y-84328000D01*
X131064000Y-110998000D02*
X140192776Y-110998000D01*
X149622000Y-97282000D02*
X148779056Y-97282000D01*
X122682000Y-105918000D02*
X125984000Y-105918000D01*
D22*
X135366000Y-99822000D02*
X140648082Y-99822000D01*
X162912000Y-80870000D02*
X149000000Y-80870000D01*
X163956000Y-96583547D02*
X163956000Y-99882082D01*
X149000000Y-80870000D02*
X136652000Y-93218000D01*
X155764453Y-88392000D02*
X163956000Y-96583547D01*
X153924000Y-88392000D02*
X155764453Y-88392000D01*
X164338000Y-85344000D02*
X164338000Y-82296000D01*
X161290000Y-88392000D02*
X164338000Y-85344000D01*
X157666082Y-106172000D02*
X151638000Y-106172000D01*
X153924000Y-88392000D02*
X161290000Y-88392000D01*
X136652000Y-93218000D02*
X132334000Y-93218000D01*
X164338000Y-82296000D02*
X162912000Y-80870000D01*
X163956000Y-99882082D02*
X157666082Y-106172000D01*
D23*
X147082000Y-97282000D02*
X149622000Y-99822000D01*
X156210000Y-99822000D02*
X158750000Y-97282000D01*
D22*
X155194000Y-100266000D02*
X154750000Y-99822000D01*
D23*
X149622000Y-99822000D02*
X154750000Y-99822000D01*
X142494000Y-97282000D02*
X147082000Y-97282000D01*
X158750000Y-97282000D02*
X162291000Y-97282000D01*
X132334000Y-94742000D02*
X126238000Y-94742000D01*
X162291000Y-97282000D02*
X162306000Y-97267000D01*
X154750000Y-99822000D02*
X156210000Y-99822000D01*
X135366000Y-97282000D02*
X142494000Y-97282000D01*
X135366000Y-97282000D02*
X134874000Y-97282000D01*
X134874000Y-97282000D02*
X132334000Y-94742000D01*
D22*
X155194000Y-102870000D02*
X155194000Y-100266000D01*
X158087871Y-113946129D02*
X161036000Y-110998000D01*
X143490475Y-112621129D02*
X144815475Y-113946129D01*
X144815475Y-113946129D02*
X158087871Y-113946129D01*
X145034000Y-98552000D02*
X144018000Y-98552000D01*
X146812000Y-100330000D02*
X145034000Y-98552000D01*
X145796000Y-87122000D02*
X149098000Y-87122000D01*
X136906000Y-96012000D02*
X145796000Y-87122000D01*
X149098000Y-87122000D02*
X157734000Y-87122000D01*
X145490475Y-105866475D02*
X140462000Y-100838000D01*
X145490475Y-105866475D02*
X145490475Y-112621129D01*
X157734000Y-87122000D02*
X161036000Y-83820000D01*
D23*
X123952000Y-110998000D02*
X120782000Y-107828000D01*
D24*
X123952000Y-83820000D02*
X127027000Y-80745000D01*
X143859475Y-80745000D02*
X145490475Y-82376000D01*
D23*
X137913604Y-114198000D02*
X127152000Y-114198000D01*
X139490475Y-112621129D02*
X137913604Y-114198000D01*
X120782000Y-107828000D02*
X120782000Y-86990000D01*
D24*
X127027000Y-80745000D02*
X143859475Y-80745000D01*
D23*
X127152000Y-114198000D02*
X123952000Y-110998000D01*
X120782000Y-86990000D02*
X123952000Y-83820000D01*
X122682000Y-97282000D02*
X126238000Y-97282000D01*
X122682000Y-103418000D02*
X122682000Y-97282000D01*
X149622000Y-94742000D02*
X158750000Y-94742000D01*
G04 #@! TA.AperFunction,Conductor*
G36*
X141309527Y-112955492D02*
G01*
X141427899Y-112996129D01*
X141521548Y-112996129D01*
X141613921Y-112980715D01*
X141723989Y-112921148D01*
X141740475Y-112903239D01*
X141740475Y-113967386D01*
X141851884Y-113940358D01*
X142042982Y-113853088D01*
X142214094Y-113731239D01*
X142214100Y-113731233D01*
X142359069Y-113579194D01*
X142381112Y-113544894D01*
X142433915Y-113499138D01*
X142503073Y-113489194D01*
X142566629Y-113518218D01*
X142582898Y-113535280D01*
X142684564Y-113664558D01*
X142684568Y-113664562D01*
X142844552Y-113803190D01*
X142844563Y-113803198D01*
X142917243Y-113845159D01*
X143027893Y-113909042D01*
X143227948Y-113978282D01*
X143437491Y-114008410D01*
X143648949Y-113998337D01*
X143698812Y-113986240D01*
X143768602Y-113989563D01*
X143815728Y-114019063D01*
X144233668Y-114437002D01*
X144245444Y-114450627D01*
X144260006Y-114470187D01*
X144260007Y-114470188D01*
X144260008Y-114470189D01*
X144298418Y-114502420D01*
X144306392Y-114509727D01*
X144310366Y-114513701D01*
X144310370Y-114513704D01*
X144310375Y-114513709D01*
X144335001Y-114533180D01*
X144337680Y-114535363D01*
X144395835Y-114584161D01*
X144395836Y-114584161D01*
X144395838Y-114584163D01*
X144401871Y-114588131D01*
X144401845Y-114588170D01*
X144408402Y-114592347D01*
X144408428Y-114592307D01*
X144414570Y-114596096D01*
X144418821Y-114598078D01*
X144471261Y-114644250D01*
X144490414Y-114711443D01*
X144470199Y-114778324D01*
X144417035Y-114823660D01*
X144366418Y-114834461D01*
X139002739Y-114834461D01*
X138935700Y-114814776D01*
X138889945Y-114761972D01*
X138880001Y-114692814D01*
X138909026Y-114629258D01*
X138915058Y-114622780D01*
X139496890Y-114040947D01*
X139558213Y-114007462D01*
X139584571Y-114004628D01*
X139891012Y-114004628D01*
X139891019Y-114004628D01*
X139994901Y-113994016D01*
X140163213Y-113938244D01*
X140314127Y-113845159D01*
X140439505Y-113719781D01*
X140477837Y-113657634D01*
X140529784Y-113610911D01*
X140598746Y-113599688D01*
X140662828Y-113627531D01*
X140680844Y-113646078D01*
X140690746Y-113658669D01*
X140849505Y-113796234D01*
X140849516Y-113796243D01*
X141031435Y-113901273D01*
X141031442Y-113901276D01*
X141229962Y-113969985D01*
X141240475Y-113971496D01*
X141240475Y-112901746D01*
X141309527Y-112955492D01*
G37*
G04 #@! TD.AperFunction*
G04 #@! TA.AperFunction,Conductor*
G36*
X146679943Y-98310185D02*
G01*
X146700585Y-98326819D01*
X148232401Y-99858635D01*
X148265886Y-99919958D01*
X148268296Y-99936076D01*
X148277434Y-100046359D01*
X148277436Y-100046371D01*
X148332703Y-100264614D01*
X148423140Y-100470792D01*
X148546276Y-100659265D01*
X148546284Y-100659276D01*
X148698756Y-100824902D01*
X148698761Y-100824907D01*
X148712217Y-100835380D01*
X148876424Y-100963189D01*
X148876425Y-100963189D01*
X148876427Y-100963191D01*
X148936314Y-100995600D01*
X149074426Y-101070342D01*
X149287365Y-101143444D01*
X149509431Y-101180500D01*
X149734569Y-101180500D01*
X149956635Y-101143444D01*
X150169574Y-101070342D01*
X150367576Y-100963189D01*
X150421723Y-100921043D01*
X150504461Y-100856647D01*
X150569455Y-100831004D01*
X150580623Y-100830500D01*
X153791377Y-100830500D01*
X153858416Y-100850185D01*
X153867539Y-100856647D01*
X153993260Y-100954500D01*
X154004424Y-100963189D01*
X154004426Y-100963190D01*
X154004429Y-100963192D01*
X154064314Y-100995600D01*
X154202426Y-101070342D01*
X154275514Y-101095433D01*
X154351762Y-101121609D01*
X154408778Y-101161994D01*
X154434909Y-101226794D01*
X154435500Y-101238890D01*
X154435500Y-102333535D01*
X154418888Y-102395534D01*
X154359472Y-102498446D01*
X154359470Y-102498450D01*
X154300459Y-102680068D01*
X154300458Y-102680072D01*
X154280496Y-102870000D01*
X154300458Y-103059928D01*
X154300459Y-103059931D01*
X154359470Y-103241549D01*
X154359473Y-103241556D01*
X154454960Y-103406944D01*
X154582747Y-103548866D01*
X154737248Y-103661118D01*
X154911712Y-103738794D01*
X155098513Y-103778500D01*
X155289487Y-103778500D01*
X155476288Y-103738794D01*
X155650752Y-103661118D01*
X155805253Y-103548866D01*
X155933040Y-103406944D01*
X156028527Y-103241556D01*
X156087542Y-103059928D01*
X156107504Y-102870000D01*
X156087542Y-102680072D01*
X156028527Y-102498444D01*
X155969111Y-102395533D01*
X155952500Y-102333535D01*
X155952500Y-100954500D01*
X155972185Y-100887461D01*
X156024989Y-100841706D01*
X156076500Y-100830500D01*
X156154358Y-100830500D01*
X156166511Y-100831097D01*
X156169812Y-100831422D01*
X156210000Y-100835380D01*
X156407701Y-100815909D01*
X156597804Y-100758241D01*
X156773004Y-100664595D01*
X156926568Y-100538568D01*
X156954299Y-100504776D01*
X156962452Y-100495780D01*
X157260496Y-100197736D01*
X157321817Y-100164253D01*
X157391509Y-100169237D01*
X157447442Y-100211109D01*
X157467950Y-100253325D01*
X157476567Y-100285486D01*
X157476570Y-100285492D01*
X157576399Y-100499578D01*
X157711894Y-100693082D01*
X157878917Y-100860105D01*
X158072421Y-100995600D01*
X158286507Y-101095429D01*
X158286516Y-101095433D01*
X158500000Y-101152634D01*
X158500000Y-100257501D01*
X158607685Y-100306680D01*
X158714237Y-100322000D01*
X158785763Y-100322000D01*
X158892315Y-100306680D01*
X159000000Y-100257501D01*
X159000000Y-101152633D01*
X159213483Y-101095433D01*
X159213492Y-101095429D01*
X159427578Y-100995600D01*
X159621082Y-100860105D01*
X159788105Y-100693082D01*
X159923600Y-100499578D01*
X160023429Y-100285492D01*
X160023432Y-100285486D01*
X160080636Y-100072000D01*
X159183686Y-100072000D01*
X159209493Y-100031844D01*
X159250000Y-99893889D01*
X159250000Y-99750111D01*
X159209493Y-99612156D01*
X159183686Y-99572000D01*
X160080636Y-99572000D01*
X160080635Y-99571999D01*
X160023432Y-99358513D01*
X160023429Y-99358507D01*
X159923600Y-99144422D01*
X159923599Y-99144420D01*
X159788113Y-98950926D01*
X159788108Y-98950920D01*
X159621082Y-98783894D01*
X159440197Y-98657236D01*
X159396572Y-98602659D01*
X159389380Y-98533160D01*
X159420902Y-98470806D01*
X159452300Y-98446608D01*
X159495576Y-98423189D01*
X159549723Y-98381043D01*
X159632461Y-98316647D01*
X159697455Y-98291004D01*
X159708623Y-98290500D01*
X160877246Y-98290500D01*
X160944285Y-98310185D01*
X160974193Y-98337188D01*
X161050069Y-98432334D01*
X161050070Y-98432335D01*
X161114552Y-98492165D01*
X161237781Y-98606505D01*
X161449355Y-98750754D01*
X161449360Y-98750756D01*
X161449361Y-98750757D01*
X161449362Y-98750758D01*
X161538772Y-98793815D01*
X161680061Y-98861856D01*
X161680062Y-98861856D01*
X161680065Y-98861858D01*
X161924757Y-98937335D01*
X161924758Y-98937335D01*
X161924761Y-98937336D01*
X162177958Y-98975499D01*
X162177963Y-98975499D01*
X162177966Y-98975500D01*
X162177967Y-98975500D01*
X162434033Y-98975500D01*
X162434034Y-98975500D01*
X162434041Y-98975499D01*
X162687238Y-98937336D01*
X162687239Y-98937335D01*
X162687243Y-98937335D01*
X162931935Y-98861858D01*
X163019700Y-98819592D01*
X163088640Y-98808241D01*
X163152774Y-98835963D01*
X163191740Y-98893958D01*
X163197500Y-98931313D01*
X163197500Y-99516539D01*
X163177815Y-99583578D01*
X163161181Y-99604220D01*
X157388220Y-105377181D01*
X157326897Y-105410666D01*
X157300539Y-105413500D01*
X152179937Y-105413500D01*
X152112898Y-105393815D01*
X152107051Y-105389818D01*
X152094750Y-105380880D01*
X151960326Y-105321032D01*
X151920288Y-105303206D01*
X151920286Y-105303205D01*
X151733487Y-105263500D01*
X151542513Y-105263500D01*
X151355714Y-105303205D01*
X151355712Y-105303206D01*
X151181253Y-105380880D01*
X151181246Y-105380883D01*
X151026745Y-105493135D01*
X150898959Y-105635057D01*
X150803473Y-105800443D01*
X150803470Y-105800450D01*
X150761127Y-105930769D01*
X150744458Y-105982072D01*
X150724496Y-106172000D01*
X150744458Y-106361928D01*
X150744459Y-106361931D01*
X150803470Y-106543549D01*
X150803473Y-106543556D01*
X150898960Y-106708944D01*
X151026747Y-106850866D01*
X151181248Y-106963118D01*
X151355712Y-107040794D01*
X151542513Y-107080500D01*
X151733487Y-107080500D01*
X151920288Y-107040794D01*
X152094752Y-106963118D01*
X152107051Y-106954181D01*
X152172858Y-106930702D01*
X152179937Y-106930500D01*
X157601788Y-106930500D01*
X157619758Y-106931809D01*
X157622256Y-106932174D01*
X157643871Y-106935341D01*
X157693809Y-106930971D01*
X157704616Y-106930500D01*
X157710257Y-106930500D01*
X157710262Y-106930500D01*
X157741452Y-106926853D01*
X157744933Y-106926498D01*
X157795904Y-106922039D01*
X157820500Y-106919888D01*
X157820502Y-106919887D01*
X157820508Y-106919887D01*
X157820513Y-106919885D01*
X157827575Y-106918427D01*
X157827584Y-106918474D01*
X157835179Y-106916790D01*
X157835169Y-106916744D01*
X157842190Y-106915079D01*
X157842195Y-106915079D01*
X157913496Y-106889126D01*
X157916790Y-106887981D01*
X157988820Y-106864114D01*
X157988826Y-106864110D01*
X157995366Y-106861061D01*
X157995387Y-106861106D01*
X158002384Y-106857719D01*
X158002362Y-106857675D01*
X158008810Y-106854436D01*
X158008814Y-106854435D01*
X158072185Y-106812753D01*
X158075192Y-106810837D01*
X158139733Y-106771030D01*
X158139738Y-106771024D01*
X158145401Y-106766548D01*
X158145432Y-106766587D01*
X158151456Y-106761680D01*
X158151424Y-106761642D01*
X158156946Y-106757006D01*
X158156956Y-106757001D01*
X158209044Y-106701789D01*
X158211491Y-106699270D01*
X164446880Y-100463881D01*
X164460506Y-100452105D01*
X164480058Y-100437551D01*
X164480060Y-100437549D01*
X164512274Y-100399157D01*
X164519590Y-100391172D01*
X164523580Y-100387183D01*
X164543043Y-100362567D01*
X164545245Y-100359863D01*
X164594032Y-100301722D01*
X164594033Y-100301718D01*
X164594036Y-100301716D01*
X164598003Y-100295685D01*
X164598044Y-100295712D01*
X164602218Y-100289160D01*
X164602175Y-100289134D01*
X164604925Y-100284676D01*
X164605275Y-100284360D01*
X164606917Y-100281784D01*
X164610461Y-100277304D01*
X164611876Y-100278423D01*
X164656875Y-100237954D01*
X164725838Y-100226735D01*
X164789919Y-100254581D01*
X164828773Y-100312652D01*
X164834461Y-100349778D01*
X164834461Y-114710461D01*
X164814776Y-114777500D01*
X164761972Y-114823255D01*
X164710461Y-114834461D01*
X158531739Y-114834461D01*
X158464700Y-114814776D01*
X158418945Y-114761972D01*
X158409001Y-114692814D01*
X158438026Y-114629258D01*
X158463598Y-114606862D01*
X158476953Y-114598078D01*
X158493974Y-114586882D01*
X158496981Y-114584966D01*
X158561522Y-114545159D01*
X158561527Y-114545153D01*
X158567190Y-114540677D01*
X158567221Y-114540716D01*
X158573245Y-114535809D01*
X158573213Y-114535771D01*
X158578735Y-114531135D01*
X158578745Y-114531130D01*
X158630833Y-114475918D01*
X158633280Y-114473399D01*
X159445667Y-113661012D01*
X159506988Y-113627529D01*
X159576680Y-113632513D01*
X159588997Y-113637885D01*
X159799466Y-113743586D01*
X159842374Y-113765135D01*
X160171690Y-113884996D01*
X160171696Y-113884997D01*
X160171698Y-113884998D01*
X160512678Y-113965813D01*
X160512685Y-113965814D01*
X160512694Y-113965816D01*
X160860775Y-114006500D01*
X160860782Y-114006500D01*
X161211218Y-114006500D01*
X161211225Y-114006500D01*
X161559306Y-113965816D01*
X161559315Y-113965813D01*
X161559321Y-113965813D01*
X161834371Y-113900623D01*
X161900310Y-113884996D01*
X162229626Y-113765135D01*
X162542800Y-113607853D01*
X162835597Y-113415278D01*
X163104057Y-113190012D01*
X163344551Y-112935104D01*
X163553825Y-112654000D01*
X163729050Y-112350501D01*
X163867857Y-112028712D01*
X163968367Y-111692984D01*
X163968717Y-111691002D01*
X164029220Y-111347868D01*
X164029219Y-111347868D01*
X164029222Y-111347857D01*
X164049599Y-110998000D01*
X164029222Y-110648143D01*
X164022526Y-110610168D01*
X163968369Y-110303024D01*
X163968367Y-110303017D01*
X163942163Y-110215488D01*
X163867857Y-109967288D01*
X163729050Y-109645499D01*
X163553825Y-109342000D01*
X163553824Y-109341998D01*
X163344554Y-109060899D01*
X163344549Y-109060893D01*
X163164540Y-108870096D01*
X163104057Y-108805988D01*
X163104050Y-108805982D01*
X163104048Y-108805980D01*
X162835600Y-108580724D01*
X162788591Y-108549806D01*
X162542800Y-108388147D01*
X162492569Y-108362920D01*
X162229633Y-108230868D01*
X162229627Y-108230865D01*
X161900322Y-108111008D01*
X161900301Y-108111001D01*
X161559321Y-108030186D01*
X161559306Y-108030184D01*
X161211225Y-107989500D01*
X160860775Y-107989500D01*
X160556204Y-108025098D01*
X160512693Y-108030184D01*
X160512678Y-108030186D01*
X160171698Y-108111001D01*
X160171677Y-108111008D01*
X159842372Y-108230865D01*
X159842366Y-108230868D01*
X159529203Y-108388145D01*
X159236399Y-108580724D01*
X158967951Y-108805980D01*
X158967941Y-108805990D01*
X158727450Y-109060893D01*
X158727445Y-109060899D01*
X158518175Y-109341998D01*
X158342952Y-109645494D01*
X158342946Y-109645507D01*
X158204143Y-109967286D01*
X158103632Y-110303017D01*
X158103630Y-110303024D01*
X158042779Y-110648131D01*
X158042778Y-110648142D01*
X158022401Y-110997996D01*
X158022401Y-110998003D01*
X158042778Y-111347857D01*
X158042779Y-111347868D01*
X158103630Y-111692975D01*
X158103632Y-111692982D01*
X158204143Y-112028713D01*
X158342946Y-112350492D01*
X158342952Y-112350505D01*
X158393422Y-112437921D01*
X158409895Y-112505821D01*
X158387042Y-112571848D01*
X158373716Y-112587602D01*
X157810009Y-113151310D01*
X157748686Y-113184795D01*
X157722328Y-113187629D01*
X156726500Y-113187629D01*
X156659461Y-113167944D01*
X156613706Y-113115140D01*
X156602500Y-113063629D01*
X156602500Y-111324362D01*
X156602499Y-111324345D01*
X156597450Y-111277390D01*
X156595989Y-111263799D01*
X156590186Y-111248242D01*
X156573522Y-111203564D01*
X156544889Y-111126796D01*
X156457261Y-111009739D01*
X156340204Y-110922111D01*
X156270037Y-110895939D01*
X156214104Y-110854067D01*
X156189688Y-110788602D01*
X156204541Y-110720329D01*
X156222138Y-110695780D01*
X156309314Y-110601083D01*
X156436984Y-110405669D01*
X156530749Y-110191907D01*
X156588051Y-109965626D01*
X156603214Y-109782642D01*
X156607327Y-109733005D01*
X156607327Y-109732994D01*
X156588051Y-109500377D01*
X156588051Y-109500374D01*
X156530749Y-109274093D01*
X156436984Y-109060331D01*
X156309314Y-108864917D01*
X156309313Y-108864915D01*
X156151223Y-108693185D01*
X156151222Y-108693184D01*
X156151220Y-108693182D01*
X155967017Y-108549810D01*
X155967015Y-108549809D01*
X155967014Y-108549808D01*
X155967011Y-108549806D01*
X155761733Y-108438716D01*
X155761730Y-108438715D01*
X155761727Y-108438713D01*
X155761721Y-108438711D01*
X155761719Y-108438710D01*
X155540954Y-108362920D01*
X155368271Y-108334105D01*
X155310712Y-108324500D01*
X155077288Y-108324500D01*
X155031240Y-108332184D01*
X154847045Y-108362920D01*
X154626280Y-108438710D01*
X154626266Y-108438716D01*
X154420988Y-108549806D01*
X154420985Y-108549808D01*
X154236781Y-108693181D01*
X154236776Y-108693185D01*
X154078686Y-108864915D01*
X153951015Y-109060331D01*
X153857251Y-109274092D01*
X153799948Y-109500377D01*
X153780673Y-109732994D01*
X153780673Y-109733005D01*
X153799948Y-109965622D01*
X153857251Y-110191907D01*
X153951015Y-110405668D01*
X154078686Y-110601084D01*
X154165856Y-110695775D01*
X154196779Y-110758429D01*
X154188919Y-110827855D01*
X154144772Y-110882011D01*
X154117963Y-110895939D01*
X154047794Y-110922111D01*
X153930739Y-111009739D01*
X153843111Y-111126795D01*
X153792011Y-111263795D01*
X153792011Y-111263797D01*
X153785500Y-111324345D01*
X153785500Y-113063629D01*
X153765815Y-113130668D01*
X153713011Y-113176423D01*
X153661500Y-113187629D01*
X146713375Y-113187629D01*
X146646336Y-113167944D01*
X146600581Y-113115140D01*
X146590637Y-113045982D01*
X146591616Y-113040162D01*
X146598975Y-113001978D01*
X146598975Y-112293331D01*
X146598718Y-112290638D01*
X146583894Y-112135390D01*
X146524252Y-111932267D01*
X146427246Y-111744103D01*
X146296383Y-111577697D01*
X146291769Y-111573699D01*
X146253997Y-111514920D01*
X146248975Y-111479989D01*
X146248975Y-111054330D01*
X148605710Y-111054330D01*
X148635925Y-111277387D01*
X148635926Y-111277390D01*
X148705483Y-111491465D01*
X148812146Y-111689678D01*
X148812148Y-111689681D01*
X148952489Y-111865663D01*
X148952491Y-111865664D01*
X148952492Y-111865666D01*
X149122004Y-112013765D01*
X149315236Y-112129215D01*
X149524689Y-112207824D01*
X149525976Y-112208307D01*
X149747450Y-112248500D01*
X149747453Y-112248500D01*
X149916148Y-112248500D01*
X149916155Y-112248500D01*
X150084188Y-112233377D01*
X150156728Y-112213357D01*
X150301160Y-112173496D01*
X150301162Y-112173495D01*
X150301170Y-112173493D01*
X150503973Y-112075829D01*
X150686078Y-111943522D01*
X150841632Y-111780825D01*
X150965635Y-111592968D01*
X150972164Y-111577694D01*
X151054100Y-111385995D01*
X151054099Y-111385995D01*
X151054103Y-111385988D01*
X151104191Y-111166537D01*
X151114290Y-110941670D01*
X151084075Y-110718613D01*
X151014517Y-110504536D01*
X150907852Y-110306319D01*
X150767508Y-110130334D01*
X150597996Y-109982235D01*
X150404764Y-109866785D01*
X150286775Y-109822503D01*
X150194023Y-109787692D01*
X149972550Y-109747500D01*
X149972547Y-109747500D01*
X149803845Y-109747500D01*
X149765399Y-109750960D01*
X149635813Y-109762622D01*
X149635807Y-109762623D01*
X149418839Y-109822503D01*
X149418826Y-109822508D01*
X149216033Y-109920167D01*
X149216025Y-109920171D01*
X149033927Y-110052473D01*
X149033925Y-110052474D01*
X148878366Y-110215176D01*
X148754363Y-110403033D01*
X148665899Y-110610004D01*
X148665895Y-110610017D01*
X148615810Y-110829457D01*
X148615808Y-110829468D01*
X148605711Y-111054308D01*
X148605710Y-111054330D01*
X146248975Y-111054330D01*
X146248975Y-105930769D01*
X146250284Y-105912799D01*
X146253816Y-105888683D01*
X146249447Y-105838750D01*
X146248975Y-105827941D01*
X146248975Y-105822299D01*
X146248974Y-105822290D01*
X146246420Y-105800444D01*
X146245337Y-105791175D01*
X146244970Y-105787583D01*
X146238362Y-105712051D01*
X146236902Y-105704978D01*
X146236948Y-105704968D01*
X146235265Y-105697377D01*
X146235219Y-105697389D01*
X146233554Y-105690368D01*
X146233554Y-105690362D01*
X146207595Y-105619041D01*
X146206456Y-105615765D01*
X146182589Y-105543737D01*
X146182586Y-105543732D01*
X146179536Y-105537190D01*
X146179580Y-105537169D01*
X146176192Y-105530170D01*
X146176149Y-105530192D01*
X146172912Y-105523746D01*
X146152778Y-105493135D01*
X146131192Y-105460315D01*
X146129309Y-105457358D01*
X146100510Y-105410666D01*
X146089506Y-105392825D01*
X146085028Y-105387162D01*
X146085065Y-105387131D01*
X146080156Y-105381104D01*
X146080120Y-105381135D01*
X146075477Y-105375602D01*
X146020300Y-105323545D01*
X146017713Y-105321032D01*
X142049882Y-101353201D01*
X142016397Y-101291878D01*
X142021381Y-101222186D01*
X142063253Y-101166253D01*
X142128717Y-101141836D01*
X142157973Y-101143211D01*
X142159360Y-101143442D01*
X142159365Y-101143444D01*
X142381431Y-101180500D01*
X142381432Y-101180500D01*
X142606569Y-101180500D01*
X142828635Y-101143444D01*
X143041574Y-101070342D01*
X143239576Y-100963189D01*
X143417240Y-100824906D01*
X143530793Y-100701556D01*
X143569715Y-100659276D01*
X143569716Y-100659274D01*
X143569722Y-100659268D01*
X143692860Y-100470791D01*
X143783296Y-100264616D01*
X143838564Y-100046368D01*
X143845756Y-99959575D01*
X143857156Y-99822005D01*
X143857156Y-99821994D01*
X143838325Y-99594740D01*
X143852406Y-99526304D01*
X143901251Y-99476345D01*
X143961901Y-99460500D01*
X144113487Y-99460500D01*
X144300288Y-99420794D01*
X144474752Y-99343118D01*
X144487051Y-99334181D01*
X144552858Y-99310702D01*
X144559937Y-99310500D01*
X144668457Y-99310500D01*
X144735496Y-99330185D01*
X144756138Y-99346819D01*
X145892213Y-100482894D01*
X145922463Y-100532256D01*
X145977471Y-100701552D01*
X145977473Y-100701556D01*
X146072960Y-100866944D01*
X146200747Y-101008866D01*
X146355248Y-101121118D01*
X146529712Y-101198794D01*
X146716513Y-101238500D01*
X146907487Y-101238500D01*
X147094288Y-101198794D01*
X147268752Y-101121118D01*
X147423253Y-101008866D01*
X147551040Y-100866944D01*
X147646527Y-100701556D01*
X147705542Y-100519928D01*
X147725504Y-100330000D01*
X147705542Y-100140072D01*
X147650023Y-99969205D01*
X147646529Y-99958450D01*
X147646528Y-99958449D01*
X147646527Y-99958444D01*
X147551040Y-99793056D01*
X147423253Y-99651134D01*
X147314335Y-99572000D01*
X147268755Y-99538884D01*
X147268754Y-99538883D01*
X147268752Y-99538882D01*
X147094288Y-99461206D01*
X147094286Y-99461205D01*
X147030648Y-99447678D01*
X146969167Y-99414484D01*
X146968750Y-99414069D01*
X146056862Y-98502181D01*
X146023377Y-98440858D01*
X146028361Y-98371166D01*
X146070233Y-98315233D01*
X146135697Y-98290816D01*
X146144543Y-98290500D01*
X146612904Y-98290500D01*
X146679943Y-98310185D01*
G37*
G04 #@! TD.AperFunction*
G04 #@! TA.AperFunction,Conductor*
G36*
X131931943Y-95770185D02*
G01*
X131952585Y-95786819D01*
X134121534Y-97955768D01*
X134129707Y-97964785D01*
X134157431Y-97998568D01*
X134212006Y-98043356D01*
X134259107Y-98082010D01*
X134284246Y-98110036D01*
X134290278Y-98119268D01*
X134290280Y-98119270D01*
X134290284Y-98119276D01*
X134442756Y-98284902D01*
X134442761Y-98284907D01*
X134459278Y-98297763D01*
X134620424Y-98423189D01*
X134653074Y-98440858D01*
X134663695Y-98446606D01*
X134713286Y-98495825D01*
X134728394Y-98564042D01*
X134704224Y-98629597D01*
X134675802Y-98657236D01*
X134494922Y-98783890D01*
X134494920Y-98783891D01*
X134327891Y-98950920D01*
X134327886Y-98950926D01*
X134192400Y-99144420D01*
X134192399Y-99144422D01*
X134092570Y-99358507D01*
X134092567Y-99358513D01*
X134035364Y-99571999D01*
X134035364Y-99572000D01*
X134932314Y-99572000D01*
X134906507Y-99612156D01*
X134866000Y-99750111D01*
X134866000Y-99893889D01*
X134906507Y-100031844D01*
X134932314Y-100072000D01*
X134035364Y-100072000D01*
X134092567Y-100285486D01*
X134092570Y-100285492D01*
X134192399Y-100499578D01*
X134327894Y-100693082D01*
X134494917Y-100860105D01*
X134688421Y-100995600D01*
X134902507Y-101095429D01*
X134902516Y-101095433D01*
X135116000Y-101152634D01*
X135116000Y-100257501D01*
X135223685Y-100306680D01*
X135330237Y-100322000D01*
X135401763Y-100322000D01*
X135508315Y-100306680D01*
X135616000Y-100257501D01*
X135616000Y-101152633D01*
X135829483Y-101095433D01*
X135829492Y-101095429D01*
X136043578Y-100995600D01*
X136237082Y-100860105D01*
X136404105Y-100693082D01*
X136539600Y-100499578D01*
X136639429Y-100285492D01*
X136639432Y-100285486D01*
X136696636Y-100072000D01*
X135799686Y-100072000D01*
X135825493Y-100031844D01*
X135866000Y-99893889D01*
X135866000Y-99750111D01*
X135825493Y-99612156D01*
X135799686Y-99572000D01*
X136696636Y-99572000D01*
X136696635Y-99571999D01*
X136639432Y-99358513D01*
X136639429Y-99358507D01*
X136539600Y-99144422D01*
X136539599Y-99144420D01*
X136404113Y-98950926D01*
X136404108Y-98950920D01*
X136237082Y-98783894D01*
X136056197Y-98657236D01*
X136012572Y-98602659D01*
X136005380Y-98533160D01*
X136036902Y-98470806D01*
X136068300Y-98446608D01*
X136111576Y-98423189D01*
X136165723Y-98381043D01*
X136248461Y-98316647D01*
X136313455Y-98291004D01*
X136324623Y-98290500D01*
X141535377Y-98290500D01*
X141602416Y-98310185D01*
X141611539Y-98316647D01*
X141748420Y-98423186D01*
X141748433Y-98423195D01*
X141784930Y-98442946D01*
X141834520Y-98492165D01*
X141849628Y-98560382D01*
X141825457Y-98625937D01*
X141784930Y-98661054D01*
X141748431Y-98680806D01*
X141748422Y-98680812D01*
X141570761Y-98819092D01*
X141570756Y-98819097D01*
X141418284Y-98984723D01*
X141418276Y-98984734D01*
X141295140Y-99173207D01*
X141204703Y-99379385D01*
X141149436Y-99597628D01*
X141149434Y-99597640D01*
X141133242Y-99793056D01*
X141130844Y-99822000D01*
X141133880Y-99858635D01*
X141141925Y-99955731D01*
X141127843Y-100024167D01*
X141078997Y-100074126D01*
X141010896Y-100089746D01*
X140945463Y-100066288D01*
X140918756Y-100046884D01*
X140917604Y-100046371D01*
X140744288Y-99969206D01*
X140744286Y-99969205D01*
X140557487Y-99929500D01*
X140366513Y-99929500D01*
X140179714Y-99969205D01*
X140179712Y-99969206D01*
X140006403Y-100046368D01*
X140005246Y-100046883D01*
X139850745Y-100159135D01*
X139722959Y-100301057D01*
X139627473Y-100466443D01*
X139627470Y-100466450D01*
X139604039Y-100538565D01*
X139568458Y-100648072D01*
X139548496Y-100838000D01*
X139568458Y-101027928D01*
X139568459Y-101027931D01*
X139627470Y-101209549D01*
X139627473Y-101209556D01*
X139722960Y-101374944D01*
X139850747Y-101516866D01*
X140005248Y-101629118D01*
X140179712Y-101706794D01*
X140179714Y-101706794D01*
X140179715Y-101706795D01*
X140243347Y-101720320D01*
X140304829Y-101753512D01*
X140305248Y-101753929D01*
X144695656Y-106144337D01*
X144729141Y-106205660D01*
X144731975Y-106232018D01*
X144731975Y-111485640D01*
X144712290Y-111552679D01*
X144697719Y-111571209D01*
X144615169Y-111657786D01*
X144594275Y-111690297D01*
X144541471Y-111736051D01*
X144472312Y-111745994D01*
X144408757Y-111716968D01*
X144392493Y-111699912D01*
X144296383Y-111577697D01*
X144296380Y-111577694D01*
X144136397Y-111439067D01*
X144136386Y-111439059D01*
X143953059Y-111333217D01*
X143953058Y-111333216D01*
X143953057Y-111333216D01*
X143839259Y-111293830D01*
X143753003Y-111263976D01*
X143700616Y-111256444D01*
X143543459Y-111233848D01*
X143543456Y-111233848D01*
X143513237Y-111235287D01*
X143332001Y-111243921D01*
X143249763Y-111263872D01*
X143126274Y-111293830D01*
X143126272Y-111293830D01*
X142933704Y-111381772D01*
X142933698Y-111381776D01*
X142761264Y-111504565D01*
X142761258Y-111504571D01*
X142615170Y-111657784D01*
X142589414Y-111697862D01*
X142536610Y-111743617D01*
X142467451Y-111753560D01*
X142403896Y-111724534D01*
X142387629Y-111707474D01*
X142290206Y-111583591D01*
X142290203Y-111583588D01*
X142131444Y-111446023D01*
X142131433Y-111446014D01*
X141949514Y-111340984D01*
X141949507Y-111340981D01*
X141750991Y-111272273D01*
X141740475Y-111270761D01*
X141740475Y-112340511D01*
X141671423Y-112286766D01*
X141553051Y-112246129D01*
X141459402Y-112246129D01*
X141367029Y-112261543D01*
X141256961Y-112321110D01*
X141240475Y-112339018D01*
X141240475Y-111274869D01*
X141240474Y-111274869D01*
X141129069Y-111301897D01*
X141129057Y-111301901D01*
X140937972Y-111389166D01*
X140937971Y-111389167D01*
X140766855Y-111511018D01*
X140766848Y-111511024D01*
X140674703Y-111607664D01*
X140614194Y-111642599D01*
X140544403Y-111639274D01*
X140487489Y-111598745D01*
X140479422Y-111587191D01*
X140439507Y-111522480D01*
X140439504Y-111522476D01*
X140314128Y-111397100D01*
X140314127Y-111397099D01*
X140163213Y-111304014D01*
X140082866Y-111277390D01*
X139994902Y-111248242D01*
X139891021Y-111237629D01*
X139089937Y-111237629D01*
X139089921Y-111237630D01*
X138986047Y-111248242D01*
X138817739Y-111304013D01*
X138817734Y-111304015D01*
X138666821Y-111397100D01*
X138541446Y-111522475D01*
X138448361Y-111673388D01*
X138448359Y-111673393D01*
X138392588Y-111841701D01*
X138381975Y-111945576D01*
X138381975Y-112252032D01*
X138362290Y-112319071D01*
X138345656Y-112339713D01*
X137532189Y-113153181D01*
X137470866Y-113186666D01*
X137444508Y-113189500D01*
X133408319Y-113189500D01*
X133341280Y-113169815D01*
X133295525Y-113117011D01*
X133285581Y-113047853D01*
X133314606Y-112984297D01*
X133318124Y-112980406D01*
X133366032Y-112929625D01*
X133574710Y-112649322D01*
X133749438Y-112346683D01*
X133749444Y-112346670D01*
X133887854Y-112025800D01*
X133988083Y-111691011D01*
X133988085Y-111691002D01*
X134048763Y-111346880D01*
X134048764Y-111346869D01*
X134069084Y-110998003D01*
X134069084Y-110997996D01*
X134048764Y-110649130D01*
X134048763Y-110649119D01*
X133988085Y-110304997D01*
X133988083Y-110304988D01*
X133887854Y-109970199D01*
X133749444Y-109649329D01*
X133749438Y-109649316D01*
X133574710Y-109346677D01*
X133366032Y-109066374D01*
X133357850Y-109057702D01*
X132110334Y-110305218D01*
X131971145Y-110130680D01*
X131801701Y-109982642D01*
X131754190Y-109954255D01*
X133001180Y-108707265D01*
X133001179Y-108707264D01*
X132858519Y-108587557D01*
X132566538Y-108395519D01*
X132254260Y-108238685D01*
X132254254Y-108238683D01*
X131925869Y-108119161D01*
X131925866Y-108119160D01*
X131585828Y-108038570D01*
X131238723Y-107998000D01*
X130889277Y-107998000D01*
X130542172Y-108038570D01*
X130542170Y-108038570D01*
X130202133Y-108119160D01*
X130202130Y-108119161D01*
X129873745Y-108238683D01*
X129873739Y-108238685D01*
X129561461Y-108395519D01*
X129269480Y-108587557D01*
X129126819Y-108707264D01*
X129126818Y-108707265D01*
X130373874Y-109954321D01*
X130238253Y-110052856D01*
X130082761Y-110215488D01*
X130021198Y-110308751D01*
X128770148Y-109057701D01*
X128770147Y-109057702D01*
X128761976Y-109066363D01*
X128761972Y-109066368D01*
X128553289Y-109346677D01*
X128378561Y-109649316D01*
X128378555Y-109649329D01*
X128240145Y-109970199D01*
X128139916Y-110304988D01*
X128139914Y-110304997D01*
X128079236Y-110649119D01*
X128079235Y-110649130D01*
X128058916Y-110997996D01*
X128058916Y-110998003D01*
X128079235Y-111346869D01*
X128079236Y-111346880D01*
X128139914Y-111691002D01*
X128139916Y-111691011D01*
X128240145Y-112025800D01*
X128378555Y-112346670D01*
X128378561Y-112346683D01*
X128553289Y-112649322D01*
X128761967Y-112929625D01*
X128809876Y-112980406D01*
X128841563Y-113042678D01*
X128834553Y-113112195D01*
X128791072Y-113166887D01*
X128724926Y-113189389D01*
X128719681Y-113189500D01*
X127621096Y-113189500D01*
X127554057Y-113169815D01*
X127533415Y-113153181D01*
X126730386Y-112350152D01*
X126696901Y-112288829D01*
X126701885Y-112219137D01*
X126704208Y-112213357D01*
X126706595Y-112207824D01*
X126783857Y-112028712D01*
X126884367Y-111692984D01*
X126884717Y-111691002D01*
X126945220Y-111347868D01*
X126945219Y-111347868D01*
X126945222Y-111347857D01*
X126965599Y-110998000D01*
X126945222Y-110648143D01*
X126938526Y-110610168D01*
X126884369Y-110303024D01*
X126884367Y-110303017D01*
X126858163Y-110215488D01*
X126783857Y-109967288D01*
X126645050Y-109645499D01*
X126469825Y-109342000D01*
X126469824Y-109341998D01*
X126260554Y-109060899D01*
X126260549Y-109060893D01*
X126080540Y-108870096D01*
X126020057Y-108805988D01*
X126020050Y-108805982D01*
X126020048Y-108805980D01*
X125751600Y-108580724D01*
X125704591Y-108549806D01*
X125458800Y-108388147D01*
X125408569Y-108362920D01*
X125145633Y-108230868D01*
X125145627Y-108230865D01*
X124816322Y-108111008D01*
X124816301Y-108111001D01*
X124475321Y-108030186D01*
X124475306Y-108030184D01*
X124127225Y-107989500D01*
X123776775Y-107989500D01*
X123472204Y-108025098D01*
X123428693Y-108030184D01*
X123428678Y-108030186D01*
X123087698Y-108111001D01*
X123087677Y-108111008D01*
X122758376Y-108230863D01*
X122758375Y-108230864D01*
X122740349Y-108239917D01*
X122671606Y-108252412D01*
X122607020Y-108225757D01*
X122597020Y-108216786D01*
X121826819Y-107446585D01*
X121793334Y-107385262D01*
X121790500Y-107358904D01*
X121790500Y-107118974D01*
X121810185Y-107051935D01*
X121862989Y-107006180D01*
X121932147Y-106996236D01*
X121985624Y-107017400D01*
X122029510Y-107048129D01*
X122029516Y-107048133D01*
X122235673Y-107144265D01*
X122235682Y-107144269D01*
X122455389Y-107203139D01*
X122455400Y-107203141D01*
X122681998Y-107222966D01*
X122682002Y-107222966D01*
X122908599Y-107203141D01*
X122908610Y-107203139D01*
X123128317Y-107144269D01*
X123128331Y-107144264D01*
X123334478Y-107048136D01*
X123407471Y-106997024D01*
X122726400Y-106315953D01*
X122807148Y-106303165D01*
X122920045Y-106245641D01*
X123009641Y-106156045D01*
X123067165Y-106043148D01*
X123079953Y-105962400D01*
X123761024Y-106643471D01*
X123812136Y-106570478D01*
X123908264Y-106364331D01*
X123908269Y-106364317D01*
X123967139Y-106144610D01*
X123967141Y-106144599D01*
X123986966Y-105918002D01*
X123986966Y-105917997D01*
X123967141Y-105691400D01*
X123967139Y-105691389D01*
X123908269Y-105471682D01*
X123908264Y-105471668D01*
X123812136Y-105265521D01*
X123812132Y-105265513D01*
X123761025Y-105192526D01*
X123079953Y-105873598D01*
X123067165Y-105792852D01*
X123009641Y-105679955D01*
X122920045Y-105590359D01*
X122807148Y-105532835D01*
X122726400Y-105520046D01*
X123415534Y-104830912D01*
X123423192Y-104792808D01*
X123471807Y-104742625D01*
X123527399Y-104727964D01*
X123527346Y-104726959D01*
X123527335Y-104726856D01*
X123527340Y-104726855D01*
X123527331Y-104726677D01*
X123530635Y-104726500D01*
X123530638Y-104726500D01*
X123530640Y-104726499D01*
X123530654Y-104726499D01*
X123557692Y-104723591D01*
X123591201Y-104719989D01*
X123728204Y-104668889D01*
X123845261Y-104581261D01*
X123932889Y-104464204D01*
X123983989Y-104327201D01*
X123987591Y-104293692D01*
X123990499Y-104266654D01*
X123990500Y-104266637D01*
X123990500Y-102569362D01*
X123990499Y-102569345D01*
X123987157Y-102538270D01*
X123983989Y-102508799D01*
X123980127Y-102498446D01*
X123961522Y-102448564D01*
X123932889Y-102371796D01*
X123845261Y-102254739D01*
X123740188Y-102176082D01*
X123698318Y-102120149D01*
X123690500Y-102076816D01*
X123690500Y-98727756D01*
X123710185Y-98660717D01*
X123744650Y-98625301D01*
X123750219Y-98621505D01*
X123937931Y-98447334D01*
X124025769Y-98337188D01*
X124082957Y-98297047D01*
X124122716Y-98290500D01*
X125279377Y-98290500D01*
X125346416Y-98310185D01*
X125355539Y-98316647D01*
X125492420Y-98423186D01*
X125492424Y-98423189D01*
X125492426Y-98423190D01*
X125492429Y-98423192D01*
X125535695Y-98446606D01*
X125585286Y-98495825D01*
X125600394Y-98564042D01*
X125576224Y-98629597D01*
X125547802Y-98657236D01*
X125366922Y-98783890D01*
X125366920Y-98783891D01*
X125199891Y-98950920D01*
X125199886Y-98950926D01*
X125064400Y-99144420D01*
X125064399Y-99144422D01*
X124964570Y-99358507D01*
X124964567Y-99358513D01*
X124907364Y-99571999D01*
X124907364Y-99572000D01*
X125804314Y-99572000D01*
X125778507Y-99612156D01*
X125738000Y-99750111D01*
X125738000Y-99893889D01*
X125778507Y-100031844D01*
X125804314Y-100072000D01*
X124907364Y-100072000D01*
X124964567Y-100285486D01*
X124964570Y-100285492D01*
X125064399Y-100499578D01*
X125199894Y-100693082D01*
X125366917Y-100860105D01*
X125560421Y-100995600D01*
X125774507Y-101095429D01*
X125774516Y-101095433D01*
X125988000Y-101152634D01*
X125988000Y-100257501D01*
X126095685Y-100306680D01*
X126202237Y-100322000D01*
X126273763Y-100322000D01*
X126380315Y-100306680D01*
X126488000Y-100257501D01*
X126488000Y-101152633D01*
X126701483Y-101095433D01*
X126701492Y-101095429D01*
X126915578Y-100995600D01*
X127109082Y-100860105D01*
X127276105Y-100693082D01*
X127411600Y-100499578D01*
X127511429Y-100285492D01*
X127511432Y-100285486D01*
X127568636Y-100072000D01*
X126671686Y-100072000D01*
X126697493Y-100031844D01*
X126738000Y-99893889D01*
X126738000Y-99750111D01*
X126697493Y-99612156D01*
X126671686Y-99572000D01*
X127568636Y-99572000D01*
X127568635Y-99571999D01*
X127511432Y-99358513D01*
X127511429Y-99358507D01*
X127411600Y-99144422D01*
X127411599Y-99144420D01*
X127276113Y-98950926D01*
X127276108Y-98950920D01*
X127109082Y-98783894D01*
X126928197Y-98657236D01*
X126884572Y-98602659D01*
X126877380Y-98533160D01*
X126908902Y-98470806D01*
X126940300Y-98446608D01*
X126983576Y-98423189D01*
X127161240Y-98284906D01*
X127282594Y-98153082D01*
X127313715Y-98119276D01*
X127313716Y-98119274D01*
X127313722Y-98119268D01*
X127436860Y-97930791D01*
X127527296Y-97724616D01*
X127582564Y-97506368D01*
X127587190Y-97450542D01*
X127596489Y-97338330D01*
X129809710Y-97338330D01*
X129839925Y-97561387D01*
X129839926Y-97561390D01*
X129909483Y-97775465D01*
X130016146Y-97973678D01*
X130016148Y-97973681D01*
X130156489Y-98149663D01*
X130156491Y-98149664D01*
X130156492Y-98149666D01*
X130326004Y-98297765D01*
X130519236Y-98413215D01*
X130682266Y-98474401D01*
X130729976Y-98492307D01*
X130951450Y-98532500D01*
X130951453Y-98532500D01*
X131120148Y-98532500D01*
X131120155Y-98532500D01*
X131288188Y-98517377D01*
X131343249Y-98502181D01*
X131505160Y-98457496D01*
X131505162Y-98457495D01*
X131505170Y-98457493D01*
X131707973Y-98359829D01*
X131890078Y-98227522D01*
X132045632Y-98064825D01*
X132169635Y-97876968D01*
X132258103Y-97669988D01*
X132308191Y-97450537D01*
X132318290Y-97225670D01*
X132288075Y-97002613D01*
X132218517Y-96788536D01*
X132111852Y-96590319D01*
X132039167Y-96499175D01*
X131971510Y-96414336D01*
X131963610Y-96407434D01*
X131801996Y-96266235D01*
X131608764Y-96150785D01*
X131490775Y-96106503D01*
X131398023Y-96071692D01*
X131176550Y-96031500D01*
X131176547Y-96031500D01*
X131007845Y-96031500D01*
X130969399Y-96034960D01*
X130839813Y-96046622D01*
X130839807Y-96046623D01*
X130622839Y-96106503D01*
X130622826Y-96106508D01*
X130420033Y-96204167D01*
X130420025Y-96204171D01*
X130237927Y-96336473D01*
X130237925Y-96336474D01*
X130082366Y-96499176D01*
X129958363Y-96687033D01*
X129869899Y-96894004D01*
X129869895Y-96894017D01*
X129819810Y-97113457D01*
X129819808Y-97113468D01*
X129809710Y-97338325D01*
X129809710Y-97338330D01*
X127596489Y-97338330D01*
X127601156Y-97282005D01*
X127601156Y-97281994D01*
X127582565Y-97057640D01*
X127582563Y-97057628D01*
X127527296Y-96839385D01*
X127518138Y-96818507D01*
X127436860Y-96633209D01*
X127420540Y-96608230D01*
X127313723Y-96444734D01*
X127313715Y-96444723D01*
X127168510Y-96286991D01*
X127137587Y-96224337D01*
X127145447Y-96154911D01*
X127189594Y-96100755D01*
X127216405Y-96086827D01*
X127317506Y-96049117D01*
X127334204Y-96042889D01*
X127451261Y-95955261D01*
X127538889Y-95838204D01*
X127541514Y-95831165D01*
X127583384Y-95775233D01*
X127648848Y-95750816D01*
X127657695Y-95750500D01*
X131864904Y-95750500D01*
X131931943Y-95770185D01*
G37*
G04 #@! TD.AperFunction*
G04 #@! TA.AperFunction,Conductor*
G36*
X153397344Y-95770185D02*
G01*
X153443099Y-95822989D01*
X153446480Y-95831150D01*
X153449111Y-95838204D01*
X153536739Y-95955261D01*
X153630699Y-96025599D01*
X153652847Y-96042179D01*
X153653796Y-96042889D01*
X153783382Y-96091222D01*
X153839313Y-96133093D01*
X153863730Y-96198557D01*
X153848878Y-96266830D01*
X153827728Y-96295084D01*
X153711886Y-96410926D01*
X153576400Y-96604420D01*
X153576399Y-96604422D01*
X153476570Y-96818507D01*
X153476567Y-96818513D01*
X153419364Y-97031999D01*
X153419364Y-97032000D01*
X154316314Y-97032000D01*
X154290507Y-97072156D01*
X154250000Y-97210111D01*
X154250000Y-97353889D01*
X154290507Y-97491844D01*
X154316314Y-97532000D01*
X153419364Y-97532000D01*
X153476567Y-97745486D01*
X153476570Y-97745492D01*
X153576399Y-97959578D01*
X153711894Y-98153082D01*
X153878917Y-98320105D01*
X154059802Y-98446763D01*
X154103427Y-98501340D01*
X154110619Y-98570839D01*
X154079097Y-98633193D01*
X154047697Y-98657392D01*
X154004429Y-98680807D01*
X154004420Y-98680813D01*
X153867539Y-98787353D01*
X153802545Y-98812996D01*
X153791377Y-98813500D01*
X150580623Y-98813500D01*
X150513584Y-98793815D01*
X150504461Y-98787353D01*
X150367579Y-98680813D01*
X150367575Y-98680810D01*
X150324303Y-98657393D01*
X150274713Y-98608173D01*
X150259605Y-98539957D01*
X150283775Y-98474401D01*
X150312198Y-98446763D01*
X150493079Y-98320108D01*
X150660105Y-98153082D01*
X150795600Y-97959578D01*
X150895429Y-97745492D01*
X150895432Y-97745486D01*
X150952636Y-97532000D01*
X150055686Y-97532000D01*
X150081493Y-97491844D01*
X150122000Y-97353889D01*
X150122000Y-97210111D01*
X150081493Y-97072156D01*
X150055686Y-97032000D01*
X150952636Y-97032000D01*
X150952635Y-97031999D01*
X150895432Y-96818513D01*
X150895429Y-96818507D01*
X150795600Y-96604422D01*
X150795599Y-96604420D01*
X150660113Y-96410926D01*
X150660108Y-96410920D01*
X150544272Y-96295084D01*
X150510787Y-96233761D01*
X150515771Y-96164069D01*
X150557643Y-96108136D01*
X150588612Y-96091224D01*
X150718204Y-96042889D01*
X150835261Y-95955261D01*
X150922889Y-95838204D01*
X150925514Y-95831165D01*
X150967384Y-95775233D01*
X151032848Y-95750816D01*
X151041695Y-95750500D01*
X153330305Y-95750500D01*
X153397344Y-95770185D01*
G37*
G04 #@! TD.AperFunction*
G04 #@! TA.AperFunction,Conductor*
G36*
X157397344Y-95770185D02*
G01*
X157443099Y-95822989D01*
X157446480Y-95831150D01*
X157449111Y-95838204D01*
X157536739Y-95955261D01*
X157653796Y-96042889D01*
X157704549Y-96061819D01*
X157771595Y-96086827D01*
X157827528Y-96128699D01*
X157851944Y-96194163D01*
X157837092Y-96262436D01*
X157819490Y-96286991D01*
X157674279Y-96444730D01*
X157674276Y-96444734D01*
X157551140Y-96633207D01*
X157460703Y-96839385D01*
X157405436Y-97057628D01*
X157405434Y-97057640D01*
X157396296Y-97167922D01*
X157371143Y-97233107D01*
X157360401Y-97245363D01*
X155828585Y-98777181D01*
X155767262Y-98810666D01*
X155740904Y-98813500D01*
X155708623Y-98813500D01*
X155641584Y-98793815D01*
X155632461Y-98787353D01*
X155495579Y-98680813D01*
X155495575Y-98680810D01*
X155452303Y-98657393D01*
X155402713Y-98608173D01*
X155387605Y-98539957D01*
X155411775Y-98474401D01*
X155440198Y-98446763D01*
X155621079Y-98320108D01*
X155788105Y-98153082D01*
X155923600Y-97959578D01*
X156023429Y-97745492D01*
X156023432Y-97745486D01*
X156080636Y-97532000D01*
X155183686Y-97532000D01*
X155209493Y-97491844D01*
X155250000Y-97353889D01*
X155250000Y-97210111D01*
X155209493Y-97072156D01*
X155183686Y-97032000D01*
X156080636Y-97032000D01*
X156080635Y-97031999D01*
X156023432Y-96818513D01*
X156023429Y-96818507D01*
X155923600Y-96604422D01*
X155923599Y-96604420D01*
X155788113Y-96410926D01*
X155788108Y-96410920D01*
X155672272Y-96295084D01*
X155638787Y-96233761D01*
X155643771Y-96164069D01*
X155685643Y-96108136D01*
X155716612Y-96091224D01*
X155846204Y-96042889D01*
X155963261Y-95955261D01*
X156050889Y-95838204D01*
X156053514Y-95831165D01*
X156095384Y-95775233D01*
X156160848Y-95750816D01*
X156169695Y-95750500D01*
X157330305Y-95750500D01*
X157397344Y-95770185D01*
G37*
G04 #@! TD.AperFunction*
G04 #@! TA.AperFunction,Conductor*
G36*
X148623102Y-87900185D02*
G01*
X148628949Y-87904182D01*
X148641249Y-87913119D01*
X148708220Y-87942935D01*
X148815712Y-87990794D01*
X149002513Y-88030500D01*
X149193487Y-88030500D01*
X149380288Y-87990794D01*
X149554752Y-87913118D01*
X149567051Y-87904181D01*
X149632858Y-87880702D01*
X149639937Y-87880500D01*
X152964272Y-87880500D01*
X153031311Y-87900185D01*
X153077066Y-87952989D01*
X153087010Y-88022147D01*
X153082203Y-88042818D01*
X153030458Y-88202072D01*
X153010496Y-88392000D01*
X153030458Y-88581928D01*
X153030459Y-88581931D01*
X153089470Y-88763549D01*
X153089473Y-88763556D01*
X153184960Y-88928944D01*
X153312747Y-89070866D01*
X153467248Y-89183118D01*
X153641712Y-89260794D01*
X153828513Y-89300500D01*
X154019487Y-89300500D01*
X154206288Y-89260794D01*
X154380752Y-89183118D01*
X154393051Y-89174181D01*
X154458858Y-89150702D01*
X154465937Y-89150500D01*
X155398910Y-89150500D01*
X155465949Y-89170185D01*
X155486591Y-89186819D01*
X159471591Y-93171819D01*
X159505076Y-93233142D01*
X159500092Y-93302834D01*
X159458220Y-93358767D01*
X159392756Y-93383184D01*
X159383910Y-93383500D01*
X157851345Y-93383500D01*
X157790797Y-93390011D01*
X157790795Y-93390011D01*
X157653795Y-93441111D01*
X157643726Y-93448649D01*
X157536739Y-93528739D01*
X157449111Y-93645796D01*
X157446485Y-93652834D01*
X157404616Y-93708767D01*
X157339152Y-93733184D01*
X157330305Y-93733500D01*
X156169695Y-93733500D01*
X156102656Y-93713815D01*
X156056901Y-93661011D01*
X156053519Y-93652849D01*
X156050889Y-93645796D01*
X155963261Y-93528739D01*
X155846204Y-93441111D01*
X155709203Y-93390011D01*
X155648654Y-93383500D01*
X155648638Y-93383500D01*
X153851362Y-93383500D01*
X153851345Y-93383500D01*
X153790797Y-93390011D01*
X153790795Y-93390011D01*
X153653795Y-93441111D01*
X153643726Y-93448649D01*
X153536739Y-93528739D01*
X153449111Y-93645796D01*
X153446485Y-93652834D01*
X153404616Y-93708767D01*
X153339152Y-93733184D01*
X153330305Y-93733500D01*
X151041695Y-93733500D01*
X150974656Y-93713815D01*
X150928901Y-93661011D01*
X150925519Y-93652849D01*
X150922889Y-93645796D01*
X150835261Y-93528739D01*
X150718204Y-93441111D01*
X150581203Y-93390011D01*
X150520654Y-93383500D01*
X150520638Y-93383500D01*
X148723362Y-93383500D01*
X148723345Y-93383500D01*
X148662797Y-93390011D01*
X148662795Y-93390011D01*
X148525795Y-93441111D01*
X148408739Y-93528739D01*
X148321111Y-93645795D01*
X148270011Y-93782795D01*
X148270011Y-93782797D01*
X148263500Y-93843345D01*
X148263500Y-95640654D01*
X148270011Y-95701202D01*
X148270011Y-95701204D01*
X148315436Y-95822989D01*
X148321111Y-95838204D01*
X148408739Y-95955261D01*
X148502699Y-96025599D01*
X148524847Y-96042179D01*
X148525796Y-96042889D01*
X148655382Y-96091222D01*
X148711313Y-96133093D01*
X148735730Y-96198557D01*
X148720878Y-96266830D01*
X148699728Y-96295084D01*
X148583886Y-96410926D01*
X148448400Y-96604420D01*
X148448399Y-96604422D01*
X148348570Y-96818507D01*
X148348564Y-96818522D01*
X148339949Y-96850674D01*
X148303584Y-96910334D01*
X148240736Y-96940862D01*
X148171361Y-96932567D01*
X148132494Y-96906260D01*
X147834464Y-96608230D01*
X147826291Y-96599213D01*
X147798567Y-96565430D01*
X147645005Y-96439405D01*
X147644998Y-96439401D01*
X147469806Y-96345759D01*
X147420355Y-96330758D01*
X147279703Y-96288091D01*
X147147900Y-96275110D01*
X147082000Y-96268620D01*
X147081999Y-96268620D01*
X147038511Y-96272903D01*
X147026358Y-96273500D01*
X143634879Y-96273500D01*
X143567840Y-96253815D01*
X143522085Y-96201011D01*
X143512141Y-96131853D01*
X143541166Y-96068297D01*
X143579455Y-96041713D01*
X143578304Y-96039604D01*
X143586093Y-96035350D01*
X143701187Y-95949190D01*
X143701190Y-95949187D01*
X143787350Y-95834093D01*
X143787354Y-95834086D01*
X143837596Y-95699379D01*
X143837598Y-95699372D01*
X143843999Y-95639844D01*
X143844000Y-95639827D01*
X143844000Y-94992000D01*
X142927686Y-94992000D01*
X142953493Y-94951844D01*
X142994000Y-94813889D01*
X142994000Y-94670111D01*
X142953493Y-94532156D01*
X142927686Y-94492000D01*
X143844000Y-94492000D01*
X143844000Y-93844172D01*
X143843999Y-93844155D01*
X143837598Y-93784627D01*
X143837596Y-93784620D01*
X143787354Y-93649913D01*
X143787350Y-93649906D01*
X143701190Y-93534812D01*
X143701187Y-93534809D01*
X143586093Y-93448649D01*
X143586086Y-93448645D01*
X143451379Y-93398403D01*
X143451372Y-93398401D01*
X143391844Y-93392000D01*
X142744000Y-93392000D01*
X142744000Y-94306498D01*
X142636315Y-94257320D01*
X142529763Y-94242000D01*
X142458237Y-94242000D01*
X142351685Y-94257320D01*
X142244000Y-94306498D01*
X142244000Y-93392000D01*
X141596155Y-93392000D01*
X141536627Y-93398401D01*
X141536620Y-93398403D01*
X141401913Y-93448645D01*
X141401906Y-93448649D01*
X141286812Y-93534809D01*
X141286809Y-93534812D01*
X141200649Y-93649906D01*
X141200645Y-93649913D01*
X141150403Y-93784620D01*
X141150401Y-93784627D01*
X141144000Y-93844155D01*
X141144000Y-94492000D01*
X142060314Y-94492000D01*
X142034507Y-94532156D01*
X141994000Y-94670111D01*
X141994000Y-94813889D01*
X142034507Y-94951844D01*
X142060314Y-94992000D01*
X141144000Y-94992000D01*
X141144000Y-95639844D01*
X141150401Y-95699372D01*
X141150403Y-95699379D01*
X141200645Y-95834086D01*
X141200649Y-95834093D01*
X141286809Y-95949187D01*
X141286812Y-95949190D01*
X141401906Y-96035350D01*
X141409696Y-96039604D01*
X141408289Y-96042179D01*
X141452386Y-96075186D01*
X141476805Y-96140650D01*
X141461955Y-96208923D01*
X141412552Y-96258330D01*
X141353121Y-96273500D01*
X138016542Y-96273500D01*
X137949503Y-96253815D01*
X137903748Y-96201011D01*
X137893804Y-96131853D01*
X137922829Y-96068297D01*
X137928861Y-96061819D01*
X146073862Y-87916819D01*
X146135185Y-87883334D01*
X146161543Y-87880500D01*
X148556063Y-87880500D01*
X148623102Y-87900185D01*
G37*
G04 #@! TD.AperFunction*
G04 #@! TA.AperFunction,Conductor*
G36*
X128786720Y-81648185D02*
G01*
X128832475Y-81700989D01*
X128842419Y-81770147D01*
X128813394Y-81833703D01*
X128809876Y-81837594D01*
X128761967Y-81888374D01*
X128553289Y-82168677D01*
X128378561Y-82471316D01*
X128378555Y-82471329D01*
X128240145Y-82792199D01*
X128139916Y-83126988D01*
X128139914Y-83126997D01*
X128079236Y-83471119D01*
X128079235Y-83471130D01*
X128058916Y-83819996D01*
X128058916Y-83820003D01*
X128079235Y-84168869D01*
X128079236Y-84168880D01*
X128139914Y-84513002D01*
X128139916Y-84513011D01*
X128240145Y-84847800D01*
X128378555Y-85168670D01*
X128378561Y-85168683D01*
X128553289Y-85471322D01*
X128761967Y-85751625D01*
X128770148Y-85760296D01*
X130017664Y-84512780D01*
X130156855Y-84687320D01*
X130326299Y-84835358D01*
X130373808Y-84863743D01*
X129126818Y-86110733D01*
X129126819Y-86110734D01*
X129269484Y-86230445D01*
X129561461Y-86422480D01*
X129873739Y-86579314D01*
X129873745Y-86579316D01*
X130202130Y-86698838D01*
X130202133Y-86698839D01*
X130542171Y-86779429D01*
X130889276Y-86819999D01*
X130889277Y-86820000D01*
X131238723Y-86820000D01*
X131238723Y-86819999D01*
X131585827Y-86779429D01*
X131585829Y-86779429D01*
X131925866Y-86698839D01*
X131925869Y-86698838D01*
X132254254Y-86579316D01*
X132254260Y-86579314D01*
X132566538Y-86422480D01*
X132858509Y-86230449D01*
X132858510Y-86230448D01*
X133001179Y-86110734D01*
X133001180Y-86110733D01*
X131754126Y-84863678D01*
X131889747Y-84765144D01*
X132045239Y-84602512D01*
X132106801Y-84509248D01*
X133357850Y-85760297D01*
X133357851Y-85760296D01*
X133366022Y-85751636D01*
X133366033Y-85751623D01*
X133574710Y-85471322D01*
X133749438Y-85168683D01*
X133749444Y-85168670D01*
X133887854Y-84847800D01*
X133988083Y-84513011D01*
X133988085Y-84513002D01*
X134048763Y-84168880D01*
X134048764Y-84168869D01*
X134069084Y-83820003D01*
X134069084Y-83819996D01*
X134048764Y-83471130D01*
X134048763Y-83471119D01*
X133988085Y-83126997D01*
X133988083Y-83126988D01*
X133887854Y-82792199D01*
X133749444Y-82471329D01*
X133749438Y-82471316D01*
X133574710Y-82168677D01*
X133366032Y-81888374D01*
X133318124Y-81837594D01*
X133286437Y-81775322D01*
X133293447Y-81705805D01*
X133336928Y-81651113D01*
X133403074Y-81628611D01*
X133408319Y-81628500D01*
X138303016Y-81628500D01*
X138370055Y-81648185D01*
X138415810Y-81700989D01*
X138425754Y-81770147D01*
X138422126Y-81786827D01*
X138402555Y-81888374D01*
X138381975Y-81995151D01*
X138381975Y-82703803D01*
X138397056Y-82861739D01*
X138423657Y-82952334D01*
X138452787Y-83051544D01*
X138456698Y-83064862D01*
X138553704Y-83253026D01*
X138684567Y-83419432D01*
X138684569Y-83419434D01*
X138844552Y-83558061D01*
X138844563Y-83558069D01*
X138943782Y-83615352D01*
X139027893Y-83663913D01*
X139227948Y-83733153D01*
X139437491Y-83763281D01*
X139648949Y-83753208D01*
X139854679Y-83703298D01*
X140047246Y-83615356D01*
X140149798Y-83542329D01*
X140219685Y-83492563D01*
X140219686Y-83492561D01*
X140219690Y-83492559D01*
X140365778Y-83339346D01*
X140386673Y-83306831D01*
X140439475Y-83261078D01*
X140508633Y-83251134D01*
X140572189Y-83280158D01*
X140588456Y-83297217D01*
X140684567Y-83419432D01*
X140684569Y-83419434D01*
X140844552Y-83558061D01*
X140844563Y-83558069D01*
X140943782Y-83615352D01*
X141027893Y-83663913D01*
X141227948Y-83733153D01*
X141437491Y-83763281D01*
X141648949Y-83753208D01*
X141854679Y-83703298D01*
X142047246Y-83615356D01*
X142149798Y-83542329D01*
X142219685Y-83492563D01*
X142219686Y-83492561D01*
X142219690Y-83492559D01*
X142365778Y-83339346D01*
X142391535Y-83299267D01*
X142444336Y-83253513D01*
X142513495Y-83243568D01*
X142577051Y-83272591D01*
X142593320Y-83289654D01*
X142690743Y-83413537D01*
X142690746Y-83413540D01*
X142849505Y-83551105D01*
X142849516Y-83551114D01*
X143031435Y-83656144D01*
X143031442Y-83656147D01*
X143229962Y-83724856D01*
X143240475Y-83726367D01*
X143240475Y-82656617D01*
X143309527Y-82710363D01*
X143427899Y-82751000D01*
X143521548Y-82751000D01*
X143613921Y-82735586D01*
X143723989Y-82676019D01*
X143740475Y-82658110D01*
X143740475Y-83722257D01*
X143851884Y-83695229D01*
X144042982Y-83607959D01*
X144214094Y-83486110D01*
X144214100Y-83486104D01*
X144306245Y-83389465D01*
X144366754Y-83354530D01*
X144436545Y-83357854D01*
X144493459Y-83398382D01*
X144501527Y-83409936D01*
X144541444Y-83474651D01*
X144541445Y-83474652D01*
X144666823Y-83600030D01*
X144817737Y-83693115D01*
X144842074Y-83701179D01*
X144899519Y-83740952D01*
X144926342Y-83805467D01*
X144914027Y-83874243D01*
X144890751Y-83906566D01*
X136374138Y-92423181D01*
X136312815Y-92456666D01*
X136286457Y-92459500D01*
X132875937Y-92459500D01*
X132808898Y-92439815D01*
X132803051Y-92435818D01*
X132790750Y-92426880D01*
X132656807Y-92367246D01*
X132616288Y-92349206D01*
X132616286Y-92349205D01*
X132429487Y-92309500D01*
X132238513Y-92309500D01*
X132051714Y-92349205D01*
X132051712Y-92349206D01*
X131877253Y-92426880D01*
X131877246Y-92426883D01*
X131722745Y-92539135D01*
X131594959Y-92681057D01*
X131499473Y-92846443D01*
X131499470Y-92846450D01*
X131440459Y-93028068D01*
X131440458Y-93028072D01*
X131420496Y-93218000D01*
X131440458Y-93407928D01*
X131481685Y-93534812D01*
X131493503Y-93571182D01*
X131495498Y-93641023D01*
X131459418Y-93700856D01*
X131396717Y-93731684D01*
X131375572Y-93733500D01*
X127657695Y-93733500D01*
X127590656Y-93713815D01*
X127544901Y-93661011D01*
X127541519Y-93652849D01*
X127538889Y-93645796D01*
X127451261Y-93528739D01*
X127334204Y-93441111D01*
X127197203Y-93390011D01*
X127136654Y-93383500D01*
X127136638Y-93383500D01*
X125339362Y-93383500D01*
X125339345Y-93383500D01*
X125278797Y-93390011D01*
X125278795Y-93390011D01*
X125141795Y-93441111D01*
X125024739Y-93528739D01*
X124937111Y-93645795D01*
X124886011Y-93782795D01*
X124886011Y-93782797D01*
X124879500Y-93843345D01*
X124879500Y-95640654D01*
X124886011Y-95701202D01*
X124886011Y-95701204D01*
X124931436Y-95822989D01*
X124937111Y-95838204D01*
X125024739Y-95955261D01*
X125126582Y-96031500D01*
X125148896Y-96048204D01*
X125147340Y-96050281D01*
X125187132Y-96090071D01*
X125201985Y-96158344D01*
X125177569Y-96223809D01*
X125121637Y-96265681D01*
X125078301Y-96273500D01*
X124122716Y-96273500D01*
X124055677Y-96253815D01*
X124025769Y-96226812D01*
X123965141Y-96150787D01*
X123937931Y-96116666D01*
X123924532Y-96104234D01*
X123893226Y-96075186D01*
X123750219Y-95942495D01*
X123728218Y-95927495D01*
X123538649Y-95798248D01*
X123538638Y-95798241D01*
X123307940Y-95687144D01*
X123307921Y-95687137D01*
X123063248Y-95611666D01*
X123063238Y-95611663D01*
X122810041Y-95573500D01*
X122810034Y-95573500D01*
X122553966Y-95573500D01*
X122553958Y-95573500D01*
X122300761Y-95611663D01*
X122300755Y-95611665D01*
X122056067Y-95687141D01*
X121968301Y-95729407D01*
X121899359Y-95740758D01*
X121835225Y-95713035D01*
X121796260Y-95655040D01*
X121790500Y-95617686D01*
X121790500Y-87459095D01*
X121810185Y-87392056D01*
X121826815Y-87371418D01*
X122597021Y-86601211D01*
X122658342Y-86567728D01*
X122728033Y-86572712D01*
X122740345Y-86578080D01*
X122758374Y-86587135D01*
X123087690Y-86706996D01*
X123087696Y-86706997D01*
X123087698Y-86706998D01*
X123428678Y-86787813D01*
X123428685Y-86787814D01*
X123428694Y-86787816D01*
X123776775Y-86828500D01*
X123776782Y-86828500D01*
X124127218Y-86828500D01*
X124127225Y-86828500D01*
X124475306Y-86787816D01*
X124475315Y-86787813D01*
X124475321Y-86787813D01*
X124750371Y-86722623D01*
X124816310Y-86706996D01*
X125145626Y-86587135D01*
X125458800Y-86429853D01*
X125751597Y-86237278D01*
X126020057Y-86012012D01*
X126260551Y-85757104D01*
X126469825Y-85476000D01*
X126645050Y-85172501D01*
X126783857Y-84850712D01*
X126884367Y-84514984D01*
X126884717Y-84513002D01*
X126945220Y-84169868D01*
X126945219Y-84169868D01*
X126945222Y-84169857D01*
X126965599Y-83820000D01*
X126962295Y-83763281D01*
X126959906Y-83722257D01*
X126945222Y-83470143D01*
X126938526Y-83432168D01*
X126884369Y-83125024D01*
X126884367Y-83125017D01*
X126858163Y-83037488D01*
X126783857Y-82789288D01*
X126721404Y-82644507D01*
X126650934Y-82481139D01*
X126642456Y-82411786D01*
X126672819Y-82348858D01*
X126677092Y-82344364D01*
X127356638Y-81664819D01*
X127417961Y-81631334D01*
X127444319Y-81628500D01*
X128719681Y-81628500D01*
X128786720Y-81648185D01*
G37*
G04 #@! TD.AperFunction*
M02*
