M48
; DRILL file {KiCad 7.0.10} date Saturday, February 01, 2025 at 12:29:47 PM
; FORMAT={-:-/ absolute / metric / decimal}
; #@! TF.CreationDate,2025-02-01T12:29:47+01:00
; #@! TF.GenerationSoftware,Kicad,Pcbnew,7.0.10
; #@! TF.FileFunction,Plated,1,2,PTH
FMAT,2
METRIC
; #@! TA.AperFunction,Plated,PTH,ViaDrill
T1C0.400
; #@! TA.AperFunction,Plated,PTH,ComponentDrill
T2C0.750
; #@! TA.AperFunction,Plated,PTH,ComponentDrill
T3C0.800
; #@! TA.AperFunction,Plated,PTH,ComponentDrill
T4C0.900
; #@! TA.AperFunction,Plated,PTH,ComponentDrill
T5C1.000
; #@! TA.AperFunction,Plated,PTH,ComponentDrill
T6C1.200
; #@! TA.AperFunction,Plated,PTH,ComponentDrill
T7C2.500
%
G90
G05
T1
X132.334Y-93.218
X136.906Y-96.012
X140.462Y-100.838
X144.018Y-98.552
X146.812Y-100.33
X149.098Y-87.122
X151.638Y-106.172
X153.924Y-88.392
X155.194Y-102.87
X159.766Y-102.87
T2
X139.49Y-82.376
X139.49Y-112.621
X141.49Y-82.376
X141.49Y-112.621
X143.49Y-82.376
X143.49Y-112.621
X145.49Y-82.376
X145.49Y-112.621
T3
X122.682Y-103.418
X122.682Y-105.918
T4
X155.194Y-82.555
X155.194Y-85.095
X155.194Y-109.733
X155.194Y-112.273
T5
X126.238Y-94.742
X126.238Y-97.282
X126.238Y-99.822
X135.366Y-94.742
X135.366Y-97.282
X135.366Y-99.822
X142.494Y-94.742
X142.494Y-97.282
X142.494Y-99.822
X149.622Y-94.742
X149.622Y-97.282
X149.622Y-99.822
X154.75Y-94.742
X154.75Y-97.282
X154.75Y-99.822
X158.75Y-94.742
X158.75Y-97.282
X158.75Y-99.822
T6
X122.682Y-97.282
X162.306Y-97.267
T7
X123.952Y-83.82
X123.952Y-110.998
X131.064Y-83.82
X131.064Y-110.998
X161.036Y-83.82
X161.036Y-110.998
M30
