G04 #@! TF.GenerationSoftware,KiCad,Pcbnew,7.0.10*
G04 #@! TF.CreationDate,2025-02-01T12:29:44+01:00*
G04 #@! TF.ProjectId,Multi Sensor Board,4d756c74-6920-4536-956e-736f7220426f,rev?*
G04 #@! TF.SameCoordinates,Original*
G04 #@! TF.FileFunction,Legend,Top*
G04 #@! TF.FilePolarity,Positive*
%FSLAX46Y46*%
G04 Gerber Fmt 4.6, Leading zero omitted, Abs format (unit mm)*
G04 Created by KiCad (PCBNEW 7.0.10) date 2025-02-01 12:29:44*
%MOMM*%
%LPD*%
G01*
G04 APERTURE LIST*
G04 Aperture macros list*
%AMRoundRect*
0 Rectangle with rounded corners*
0 $1 Rounding radius*
0 $2 $3 $4 $5 $6 $7 $8 $9 X,Y pos of 4 corners*
0 Add a 4 corners polygon primitive as box body*
4,1,4,$2,$3,$4,$5,$6,$7,$8,$9,$2,$3,0*
0 Add four circle primitives for the rounded corners*
1,1,$1+$1,$2,$3*
1,1,$1+$1,$4,$5*
1,1,$1+$1,$6,$7*
1,1,$1+$1,$8,$9*
0 Add four rect primitives between the rounded corners*
20,1,$1+$1,$2,$3,$4,$5,0*
20,1,$1+$1,$4,$5,$6,$7,0*
20,1,$1+$1,$6,$7,$8,$9,0*
20,1,$1+$1,$8,$9,$2,$3,0*%
G04 Aperture macros list end*
%ADD10C,0.120000*%
%ADD11C,0.400000*%
%ADD12C,0.100000*%
%ADD13C,0.150000*%
%ADD14C,0.300000*%
%ADD15C,0.010000*%
%ADD16C,5.000000*%
%ADD17C,2.400000*%
%ADD18R,1.700000X1.700000*%
%ADD19O,1.700000X1.700000*%
%ADD20C,2.000000*%
%ADD21RoundRect,0.250000X0.350000X0.625000X-0.350000X0.625000X-0.350000X-0.625000X0.350000X-0.625000X0*%
%ADD22O,1.200000X1.750000*%
%ADD23RoundRect,0.250000X-0.350000X-0.625000X0.350000X-0.625000X0.350000X0.625000X-0.350000X0.625000X0*%
%ADD24R,1.800000X1.800000*%
%ADD25C,1.800000*%
%ADD26R,1.600000X1.600000*%
%ADD27C,1.600000*%
G04 APERTURE END LIST*
D10*
X141196643Y-84086832D02*
X141644004Y-84086832D01*
D11*
X158496000Y-104902000D02*
X156718000Y-104902000D01*
D10*
X143165886Y-109915241D02*
X143613247Y-109915241D01*
D12*
X145083884Y-84581466D02*
X145845789Y-84581466D01*
X145464836Y-84962419D02*
X145464836Y-84200514D01*
D13*
X130400588Y-87101938D02*
X130305350Y-87054319D01*
X130305350Y-87054319D02*
X130162493Y-87054319D01*
X130162493Y-87054319D02*
X130019636Y-87101938D01*
X130019636Y-87101938D02*
X129924398Y-87197176D01*
X129924398Y-87197176D02*
X129876779Y-87292414D01*
X129876779Y-87292414D02*
X129829160Y-87482890D01*
X129829160Y-87482890D02*
X129829160Y-87625747D01*
X129829160Y-87625747D02*
X129876779Y-87816223D01*
X129876779Y-87816223D02*
X129924398Y-87911461D01*
X129924398Y-87911461D02*
X130019636Y-88006700D01*
X130019636Y-88006700D02*
X130162493Y-88054319D01*
X130162493Y-88054319D02*
X130257731Y-88054319D01*
X130257731Y-88054319D02*
X130400588Y-88006700D01*
X130400588Y-88006700D02*
X130448207Y-87959080D01*
X130448207Y-87959080D02*
X130448207Y-87625747D01*
X130448207Y-87625747D02*
X130257731Y-87625747D01*
X130876779Y-88054319D02*
X130876779Y-87054319D01*
X130876779Y-87054319D02*
X131448207Y-88054319D01*
X131448207Y-88054319D02*
X131448207Y-87054319D01*
X131924398Y-88054319D02*
X131924398Y-87054319D01*
X131924398Y-87054319D02*
X132162493Y-87054319D01*
X132162493Y-87054319D02*
X132305350Y-87101938D01*
X132305350Y-87101938D02*
X132400588Y-87197176D01*
X132400588Y-87197176D02*
X132448207Y-87292414D01*
X132448207Y-87292414D02*
X132495826Y-87482890D01*
X132495826Y-87482890D02*
X132495826Y-87625747D01*
X132495826Y-87625747D02*
X132448207Y-87816223D01*
X132448207Y-87816223D02*
X132400588Y-87911461D01*
X132400588Y-87911461D02*
X132305350Y-88006700D01*
X132305350Y-88006700D02*
X132162493Y-88054319D01*
X132162493Y-88054319D02*
X131924398Y-88054319D01*
X127749541Y-90643152D02*
X127940017Y-91309819D01*
X127940017Y-91309819D02*
X128130493Y-90833628D01*
X128130493Y-90833628D02*
X128320969Y-91309819D01*
X128320969Y-91309819D02*
X128511445Y-90643152D01*
X128892398Y-91309819D02*
X128892398Y-90309819D01*
X129320969Y-91309819D02*
X129320969Y-90786009D01*
X129320969Y-90786009D02*
X129273350Y-90690771D01*
X129273350Y-90690771D02*
X129178112Y-90643152D01*
X129178112Y-90643152D02*
X129035255Y-90643152D01*
X129035255Y-90643152D02*
X128940017Y-90690771D01*
X128940017Y-90690771D02*
X128892398Y-90738390D01*
X129797160Y-91309819D02*
X129797160Y-90643152D01*
X129797160Y-90309819D02*
X129749541Y-90357438D01*
X129749541Y-90357438D02*
X129797160Y-90405057D01*
X129797160Y-90405057D02*
X129844779Y-90357438D01*
X129844779Y-90357438D02*
X129797160Y-90309819D01*
X129797160Y-90309819D02*
X129797160Y-90405057D01*
X130178112Y-90643152D02*
X130701921Y-90643152D01*
X130701921Y-90643152D02*
X130178112Y-91309819D01*
X130178112Y-91309819D02*
X130701921Y-91309819D01*
X130987636Y-90643152D02*
X131511445Y-90643152D01*
X131511445Y-90643152D02*
X130987636Y-91309819D01*
X130987636Y-91309819D02*
X131511445Y-91309819D01*
X131892398Y-91309819D02*
X131892398Y-90309819D01*
X131892398Y-90690771D02*
X131987636Y-90643152D01*
X131987636Y-90643152D02*
X132178112Y-90643152D01*
X132178112Y-90643152D02*
X132273350Y-90690771D01*
X132273350Y-90690771D02*
X132320969Y-90738390D01*
X132320969Y-90738390D02*
X132368588Y-90833628D01*
X132368588Y-90833628D02*
X132368588Y-91119342D01*
X132368588Y-91119342D02*
X132320969Y-91214580D01*
X132320969Y-91214580D02*
X132273350Y-91262200D01*
X132273350Y-91262200D02*
X132178112Y-91309819D01*
X132178112Y-91309819D02*
X131987636Y-91309819D01*
X131987636Y-91309819D02*
X131892398Y-91262200D01*
X132797160Y-91309819D02*
X132797160Y-90643152D01*
X132797160Y-90309819D02*
X132749541Y-90357438D01*
X132749541Y-90357438D02*
X132797160Y-90405057D01*
X132797160Y-90405057D02*
X132844779Y-90357438D01*
X132844779Y-90357438D02*
X132797160Y-90309819D01*
X132797160Y-90309819D02*
X132797160Y-90405057D01*
X133178112Y-90643152D02*
X133701921Y-90643152D01*
X133701921Y-90643152D02*
X133178112Y-91309819D01*
X133178112Y-91309819D02*
X133701921Y-91309819D01*
X133987636Y-90643152D02*
X134511445Y-90643152D01*
X134511445Y-90643152D02*
X133987636Y-91309819D01*
X133987636Y-91309819D02*
X134511445Y-91309819D01*
X134892398Y-91214580D02*
X134940017Y-91262200D01*
X134940017Y-91262200D02*
X134892398Y-91309819D01*
X134892398Y-91309819D02*
X134844779Y-91262200D01*
X134844779Y-91262200D02*
X134892398Y-91214580D01*
X134892398Y-91214580D02*
X134892398Y-91309819D01*
X135797159Y-91262200D02*
X135701921Y-91309819D01*
X135701921Y-91309819D02*
X135511445Y-91309819D01*
X135511445Y-91309819D02*
X135416207Y-91262200D01*
X135416207Y-91262200D02*
X135368588Y-91214580D01*
X135368588Y-91214580D02*
X135320969Y-91119342D01*
X135320969Y-91119342D02*
X135320969Y-90833628D01*
X135320969Y-90833628D02*
X135368588Y-90738390D01*
X135368588Y-90738390D02*
X135416207Y-90690771D01*
X135416207Y-90690771D02*
X135511445Y-90643152D01*
X135511445Y-90643152D02*
X135701921Y-90643152D01*
X135701921Y-90643152D02*
X135797159Y-90690771D01*
X136368588Y-91309819D02*
X136273350Y-91262200D01*
X136273350Y-91262200D02*
X136225731Y-91214580D01*
X136225731Y-91214580D02*
X136178112Y-91119342D01*
X136178112Y-91119342D02*
X136178112Y-90833628D01*
X136178112Y-90833628D02*
X136225731Y-90738390D01*
X136225731Y-90738390D02*
X136273350Y-90690771D01*
X136273350Y-90690771D02*
X136368588Y-90643152D01*
X136368588Y-90643152D02*
X136511445Y-90643152D01*
X136511445Y-90643152D02*
X136606683Y-90690771D01*
X136606683Y-90690771D02*
X136654302Y-90738390D01*
X136654302Y-90738390D02*
X136701921Y-90833628D01*
X136701921Y-90833628D02*
X136701921Y-91119342D01*
X136701921Y-91119342D02*
X136654302Y-91214580D01*
X136654302Y-91214580D02*
X136606683Y-91262200D01*
X136606683Y-91262200D02*
X136511445Y-91309819D01*
X136511445Y-91309819D02*
X136368588Y-91309819D01*
X137130493Y-91309819D02*
X137130493Y-90643152D01*
X137130493Y-90738390D02*
X137178112Y-90690771D01*
X137178112Y-90690771D02*
X137273350Y-90643152D01*
X137273350Y-90643152D02*
X137416207Y-90643152D01*
X137416207Y-90643152D02*
X137511445Y-90690771D01*
X137511445Y-90690771D02*
X137559064Y-90786009D01*
X137559064Y-90786009D02*
X137559064Y-91309819D01*
X137559064Y-90786009D02*
X137606683Y-90690771D01*
X137606683Y-90690771D02*
X137701921Y-90643152D01*
X137701921Y-90643152D02*
X137844778Y-90643152D01*
X137844778Y-90643152D02*
X137940017Y-90690771D01*
X137940017Y-90690771D02*
X137987636Y-90786009D01*
X137987636Y-90786009D02*
X137987636Y-91309819D01*
X139225731Y-90928866D02*
X139987636Y-90928866D01*
X141225731Y-91309819D02*
X141225731Y-90309819D01*
X141225731Y-90309819D02*
X141559064Y-91024104D01*
X141559064Y-91024104D02*
X141892397Y-90309819D01*
X141892397Y-90309819D02*
X141892397Y-91309819D01*
X142797159Y-90643152D02*
X142797159Y-91309819D01*
X142368588Y-90643152D02*
X142368588Y-91166961D01*
X142368588Y-91166961D02*
X142416207Y-91262200D01*
X142416207Y-91262200D02*
X142511445Y-91309819D01*
X142511445Y-91309819D02*
X142654302Y-91309819D01*
X142654302Y-91309819D02*
X142749540Y-91262200D01*
X142749540Y-91262200D02*
X142797159Y-91214580D01*
X143416207Y-91309819D02*
X143320969Y-91262200D01*
X143320969Y-91262200D02*
X143273350Y-91166961D01*
X143273350Y-91166961D02*
X143273350Y-90309819D01*
X143654303Y-90643152D02*
X144035255Y-90643152D01*
X143797160Y-90309819D02*
X143797160Y-91166961D01*
X143797160Y-91166961D02*
X143844779Y-91262200D01*
X143844779Y-91262200D02*
X143940017Y-91309819D01*
X143940017Y-91309819D02*
X144035255Y-91309819D01*
X144368589Y-91309819D02*
X144368589Y-90643152D01*
X144368589Y-90309819D02*
X144320970Y-90357438D01*
X144320970Y-90357438D02*
X144368589Y-90405057D01*
X144368589Y-90405057D02*
X144416208Y-90357438D01*
X144416208Y-90357438D02*
X144368589Y-90309819D01*
X144368589Y-90309819D02*
X144368589Y-90405057D01*
X145559065Y-91262200D02*
X145701922Y-91309819D01*
X145701922Y-91309819D02*
X145940017Y-91309819D01*
X145940017Y-91309819D02*
X146035255Y-91262200D01*
X146035255Y-91262200D02*
X146082874Y-91214580D01*
X146082874Y-91214580D02*
X146130493Y-91119342D01*
X146130493Y-91119342D02*
X146130493Y-91024104D01*
X146130493Y-91024104D02*
X146082874Y-90928866D01*
X146082874Y-90928866D02*
X146035255Y-90881247D01*
X146035255Y-90881247D02*
X145940017Y-90833628D01*
X145940017Y-90833628D02*
X145749541Y-90786009D01*
X145749541Y-90786009D02*
X145654303Y-90738390D01*
X145654303Y-90738390D02*
X145606684Y-90690771D01*
X145606684Y-90690771D02*
X145559065Y-90595533D01*
X145559065Y-90595533D02*
X145559065Y-90500295D01*
X145559065Y-90500295D02*
X145606684Y-90405057D01*
X145606684Y-90405057D02*
X145654303Y-90357438D01*
X145654303Y-90357438D02*
X145749541Y-90309819D01*
X145749541Y-90309819D02*
X145987636Y-90309819D01*
X145987636Y-90309819D02*
X146130493Y-90357438D01*
X146940017Y-91262200D02*
X146844779Y-91309819D01*
X146844779Y-91309819D02*
X146654303Y-91309819D01*
X146654303Y-91309819D02*
X146559065Y-91262200D01*
X146559065Y-91262200D02*
X146511446Y-91166961D01*
X146511446Y-91166961D02*
X146511446Y-90786009D01*
X146511446Y-90786009D02*
X146559065Y-90690771D01*
X146559065Y-90690771D02*
X146654303Y-90643152D01*
X146654303Y-90643152D02*
X146844779Y-90643152D01*
X146844779Y-90643152D02*
X146940017Y-90690771D01*
X146940017Y-90690771D02*
X146987636Y-90786009D01*
X146987636Y-90786009D02*
X146987636Y-90881247D01*
X146987636Y-90881247D02*
X146511446Y-90976485D01*
X147416208Y-90643152D02*
X147416208Y-91309819D01*
X147416208Y-90738390D02*
X147463827Y-90690771D01*
X147463827Y-90690771D02*
X147559065Y-90643152D01*
X147559065Y-90643152D02*
X147701922Y-90643152D01*
X147701922Y-90643152D02*
X147797160Y-90690771D01*
X147797160Y-90690771D02*
X147844779Y-90786009D01*
X147844779Y-90786009D02*
X147844779Y-91309819D01*
X148273351Y-91262200D02*
X148368589Y-91309819D01*
X148368589Y-91309819D02*
X148559065Y-91309819D01*
X148559065Y-91309819D02*
X148654303Y-91262200D01*
X148654303Y-91262200D02*
X148701922Y-91166961D01*
X148701922Y-91166961D02*
X148701922Y-91119342D01*
X148701922Y-91119342D02*
X148654303Y-91024104D01*
X148654303Y-91024104D02*
X148559065Y-90976485D01*
X148559065Y-90976485D02*
X148416208Y-90976485D01*
X148416208Y-90976485D02*
X148320970Y-90928866D01*
X148320970Y-90928866D02*
X148273351Y-90833628D01*
X148273351Y-90833628D02*
X148273351Y-90786009D01*
X148273351Y-90786009D02*
X148320970Y-90690771D01*
X148320970Y-90690771D02*
X148416208Y-90643152D01*
X148416208Y-90643152D02*
X148559065Y-90643152D01*
X148559065Y-90643152D02*
X148654303Y-90690771D01*
X149273351Y-91309819D02*
X149178113Y-91262200D01*
X149178113Y-91262200D02*
X149130494Y-91214580D01*
X149130494Y-91214580D02*
X149082875Y-91119342D01*
X149082875Y-91119342D02*
X149082875Y-90833628D01*
X149082875Y-90833628D02*
X149130494Y-90738390D01*
X149130494Y-90738390D02*
X149178113Y-90690771D01*
X149178113Y-90690771D02*
X149273351Y-90643152D01*
X149273351Y-90643152D02*
X149416208Y-90643152D01*
X149416208Y-90643152D02*
X149511446Y-90690771D01*
X149511446Y-90690771D02*
X149559065Y-90738390D01*
X149559065Y-90738390D02*
X149606684Y-90833628D01*
X149606684Y-90833628D02*
X149606684Y-91119342D01*
X149606684Y-91119342D02*
X149559065Y-91214580D01*
X149559065Y-91214580D02*
X149511446Y-91262200D01*
X149511446Y-91262200D02*
X149416208Y-91309819D01*
X149416208Y-91309819D02*
X149273351Y-91309819D01*
X150035256Y-91309819D02*
X150035256Y-90643152D01*
X150035256Y-90833628D02*
X150082875Y-90738390D01*
X150082875Y-90738390D02*
X150130494Y-90690771D01*
X150130494Y-90690771D02*
X150225732Y-90643152D01*
X150225732Y-90643152D02*
X150320970Y-90643152D01*
X151749542Y-90786009D02*
X151892399Y-90833628D01*
X151892399Y-90833628D02*
X151940018Y-90881247D01*
X151940018Y-90881247D02*
X151987637Y-90976485D01*
X151987637Y-90976485D02*
X151987637Y-91119342D01*
X151987637Y-91119342D02*
X151940018Y-91214580D01*
X151940018Y-91214580D02*
X151892399Y-91262200D01*
X151892399Y-91262200D02*
X151797161Y-91309819D01*
X151797161Y-91309819D02*
X151416209Y-91309819D01*
X151416209Y-91309819D02*
X151416209Y-90309819D01*
X151416209Y-90309819D02*
X151749542Y-90309819D01*
X151749542Y-90309819D02*
X151844780Y-90357438D01*
X151844780Y-90357438D02*
X151892399Y-90405057D01*
X151892399Y-90405057D02*
X151940018Y-90500295D01*
X151940018Y-90500295D02*
X151940018Y-90595533D01*
X151940018Y-90595533D02*
X151892399Y-90690771D01*
X151892399Y-90690771D02*
X151844780Y-90738390D01*
X151844780Y-90738390D02*
X151749542Y-90786009D01*
X151749542Y-90786009D02*
X151416209Y-90786009D01*
X152559066Y-91309819D02*
X152463828Y-91262200D01*
X152463828Y-91262200D02*
X152416209Y-91214580D01*
X152416209Y-91214580D02*
X152368590Y-91119342D01*
X152368590Y-91119342D02*
X152368590Y-90833628D01*
X152368590Y-90833628D02*
X152416209Y-90738390D01*
X152416209Y-90738390D02*
X152463828Y-90690771D01*
X152463828Y-90690771D02*
X152559066Y-90643152D01*
X152559066Y-90643152D02*
X152701923Y-90643152D01*
X152701923Y-90643152D02*
X152797161Y-90690771D01*
X152797161Y-90690771D02*
X152844780Y-90738390D01*
X152844780Y-90738390D02*
X152892399Y-90833628D01*
X152892399Y-90833628D02*
X152892399Y-91119342D01*
X152892399Y-91119342D02*
X152844780Y-91214580D01*
X152844780Y-91214580D02*
X152797161Y-91262200D01*
X152797161Y-91262200D02*
X152701923Y-91309819D01*
X152701923Y-91309819D02*
X152559066Y-91309819D01*
X153749542Y-91309819D02*
X153749542Y-90786009D01*
X153749542Y-90786009D02*
X153701923Y-90690771D01*
X153701923Y-90690771D02*
X153606685Y-90643152D01*
X153606685Y-90643152D02*
X153416209Y-90643152D01*
X153416209Y-90643152D02*
X153320971Y-90690771D01*
X153749542Y-91262200D02*
X153654304Y-91309819D01*
X153654304Y-91309819D02*
X153416209Y-91309819D01*
X153416209Y-91309819D02*
X153320971Y-91262200D01*
X153320971Y-91262200D02*
X153273352Y-91166961D01*
X153273352Y-91166961D02*
X153273352Y-91071723D01*
X153273352Y-91071723D02*
X153320971Y-90976485D01*
X153320971Y-90976485D02*
X153416209Y-90928866D01*
X153416209Y-90928866D02*
X153654304Y-90928866D01*
X153654304Y-90928866D02*
X153749542Y-90881247D01*
X154225733Y-91309819D02*
X154225733Y-90643152D01*
X154225733Y-90833628D02*
X154273352Y-90738390D01*
X154273352Y-90738390D02*
X154320971Y-90690771D01*
X154320971Y-90690771D02*
X154416209Y-90643152D01*
X154416209Y-90643152D02*
X154511447Y-90643152D01*
X155273352Y-91309819D02*
X155273352Y-90309819D01*
X155273352Y-91262200D02*
X155178114Y-91309819D01*
X155178114Y-91309819D02*
X154987638Y-91309819D01*
X154987638Y-91309819D02*
X154892400Y-91262200D01*
X154892400Y-91262200D02*
X154844781Y-91214580D01*
X154844781Y-91214580D02*
X154797162Y-91119342D01*
X154797162Y-91119342D02*
X154797162Y-90833628D01*
X154797162Y-90833628D02*
X154844781Y-90738390D01*
X154844781Y-90738390D02*
X154892400Y-90690771D01*
X154892400Y-90690771D02*
X154987638Y-90643152D01*
X154987638Y-90643152D02*
X155178114Y-90643152D01*
X155178114Y-90643152D02*
X155273352Y-90690771D01*
X128098779Y-97278866D02*
X128860684Y-97278866D01*
X128479731Y-97659819D02*
X128479731Y-96897914D01*
D14*
X158669272Y-108374542D02*
X158431177Y-108255495D01*
X158431177Y-108255495D02*
X158193082Y-108017400D01*
X158193082Y-108017400D02*
X157835939Y-107660257D01*
X157835939Y-107660257D02*
X157597844Y-107541209D01*
X157597844Y-107541209D02*
X157359748Y-107541209D01*
X157478796Y-108136447D02*
X157240701Y-108017400D01*
X157240701Y-108017400D02*
X157002606Y-107779304D01*
X157002606Y-107779304D02*
X156883558Y-107303114D01*
X156883558Y-107303114D02*
X156883558Y-106469780D01*
X156883558Y-106469780D02*
X157002606Y-105993590D01*
X157002606Y-105993590D02*
X157240701Y-105755495D01*
X157240701Y-105755495D02*
X157478796Y-105636447D01*
X157478796Y-105636447D02*
X157954987Y-105636447D01*
X157954987Y-105636447D02*
X158193082Y-105755495D01*
X158193082Y-105755495D02*
X158431177Y-105993590D01*
X158431177Y-105993590D02*
X158550225Y-106469780D01*
X158550225Y-106469780D02*
X158550225Y-107303114D01*
X158550225Y-107303114D02*
X158431177Y-107779304D01*
X158431177Y-107779304D02*
X158193082Y-108017400D01*
X158193082Y-108017400D02*
X157954987Y-108136447D01*
X157954987Y-108136447D02*
X157478796Y-108136447D01*
D13*
X123391826Y-87629200D02*
X124534684Y-87629200D01*
X123963255Y-88200628D02*
X123963255Y-87057771D01*
D12*
X143583016Y-110725228D02*
X143535397Y-110701419D01*
X143535397Y-110701419D02*
X143487778Y-110653800D01*
X143487778Y-110653800D02*
X143416350Y-110582371D01*
X143416350Y-110582371D02*
X143368731Y-110558561D01*
X143368731Y-110558561D02*
X143321112Y-110558561D01*
X143344921Y-110677609D02*
X143297302Y-110653800D01*
X143297302Y-110653800D02*
X143249683Y-110606180D01*
X143249683Y-110606180D02*
X143225874Y-110510942D01*
X143225874Y-110510942D02*
X143225874Y-110344276D01*
X143225874Y-110344276D02*
X143249683Y-110249038D01*
X143249683Y-110249038D02*
X143297302Y-110201419D01*
X143297302Y-110201419D02*
X143344921Y-110177609D01*
X143344921Y-110177609D02*
X143440159Y-110177609D01*
X143440159Y-110177609D02*
X143487778Y-110201419D01*
X143487778Y-110201419D02*
X143535397Y-110249038D01*
X143535397Y-110249038D02*
X143559207Y-110344276D01*
X143559207Y-110344276D02*
X143559207Y-110510942D01*
X143559207Y-110510942D02*
X143535397Y-110606180D01*
X143535397Y-110606180D02*
X143487778Y-110653800D01*
X143487778Y-110653800D02*
X143440159Y-110677609D01*
X143440159Y-110677609D02*
X143344921Y-110677609D01*
D13*
X137242779Y-99818866D02*
X138004684Y-99818866D01*
X151927160Y-100370491D02*
X152070017Y-100418110D01*
X152070017Y-100418110D02*
X152308112Y-100418110D01*
X152308112Y-100418110D02*
X152403350Y-100370491D01*
X152403350Y-100370491D02*
X152450969Y-100322871D01*
X152450969Y-100322871D02*
X152498588Y-100227633D01*
X152498588Y-100227633D02*
X152498588Y-100132395D01*
X152498588Y-100132395D02*
X152450969Y-100037157D01*
X152450969Y-100037157D02*
X152403350Y-99989538D01*
X152403350Y-99989538D02*
X152308112Y-99941919D01*
X152308112Y-99941919D02*
X152117636Y-99894300D01*
X152117636Y-99894300D02*
X152022398Y-99846681D01*
X152022398Y-99846681D02*
X151974779Y-99799062D01*
X151974779Y-99799062D02*
X151927160Y-99703824D01*
X151927160Y-99703824D02*
X151927160Y-99608586D01*
X151927160Y-99608586D02*
X151974779Y-99513348D01*
X151974779Y-99513348D02*
X152022398Y-99465729D01*
X152022398Y-99465729D02*
X152117636Y-99418110D01*
X152117636Y-99418110D02*
X152355731Y-99418110D01*
X152355731Y-99418110D02*
X152498588Y-99465729D01*
X151831922Y-97243157D02*
X152593827Y-97243157D01*
X160610779Y-99818866D02*
X161372684Y-99818866D01*
X130400588Y-106913938D02*
X130305350Y-106866319D01*
X130305350Y-106866319D02*
X130162493Y-106866319D01*
X130162493Y-106866319D02*
X130019636Y-106913938D01*
X130019636Y-106913938D02*
X129924398Y-107009176D01*
X129924398Y-107009176D02*
X129876779Y-107104414D01*
X129876779Y-107104414D02*
X129829160Y-107294890D01*
X129829160Y-107294890D02*
X129829160Y-107437747D01*
X129829160Y-107437747D02*
X129876779Y-107628223D01*
X129876779Y-107628223D02*
X129924398Y-107723461D01*
X129924398Y-107723461D02*
X130019636Y-107818700D01*
X130019636Y-107818700D02*
X130162493Y-107866319D01*
X130162493Y-107866319D02*
X130257731Y-107866319D01*
X130257731Y-107866319D02*
X130400588Y-107818700D01*
X130400588Y-107818700D02*
X130448207Y-107771080D01*
X130448207Y-107771080D02*
X130448207Y-107437747D01*
X130448207Y-107437747D02*
X130257731Y-107437747D01*
X130876779Y-107866319D02*
X130876779Y-106866319D01*
X130876779Y-106866319D02*
X131448207Y-107866319D01*
X131448207Y-107866319D02*
X131448207Y-106866319D01*
X131924398Y-107866319D02*
X131924398Y-106866319D01*
X131924398Y-106866319D02*
X132162493Y-106866319D01*
X132162493Y-106866319D02*
X132305350Y-106913938D01*
X132305350Y-106913938D02*
X132400588Y-107009176D01*
X132400588Y-107009176D02*
X132448207Y-107104414D01*
X132448207Y-107104414D02*
X132495826Y-107294890D01*
X132495826Y-107294890D02*
X132495826Y-107437747D01*
X132495826Y-107437747D02*
X132448207Y-107628223D01*
X132448207Y-107628223D02*
X132400588Y-107723461D01*
X132400588Y-107723461D02*
X132305350Y-107818700D01*
X132305350Y-107818700D02*
X132162493Y-107866319D01*
X132162493Y-107866319D02*
X131924398Y-107866319D01*
D12*
X139597165Y-84885918D02*
X139549546Y-84862109D01*
X139549546Y-84862109D02*
X139501927Y-84814490D01*
X139501927Y-84814490D02*
X139430499Y-84743061D01*
X139430499Y-84743061D02*
X139382880Y-84719251D01*
X139382880Y-84719251D02*
X139335261Y-84719251D01*
X139359070Y-84838299D02*
X139311451Y-84814490D01*
X139311451Y-84814490D02*
X139263832Y-84766870D01*
X139263832Y-84766870D02*
X139240023Y-84671632D01*
X139240023Y-84671632D02*
X139240023Y-84504966D01*
X139240023Y-84504966D02*
X139263832Y-84409728D01*
X139263832Y-84409728D02*
X139311451Y-84362109D01*
X139311451Y-84362109D02*
X139359070Y-84338299D01*
X139359070Y-84338299D02*
X139454308Y-84338299D01*
X139454308Y-84338299D02*
X139501927Y-84362109D01*
X139501927Y-84362109D02*
X139549546Y-84409728D01*
X139549546Y-84409728D02*
X139573356Y-84504966D01*
X139573356Y-84504966D02*
X139573356Y-84671632D01*
X139573356Y-84671632D02*
X139549546Y-84766870D01*
X139549546Y-84766870D02*
X139501927Y-84814490D01*
X139501927Y-84814490D02*
X139454308Y-84838299D01*
X139454308Y-84838299D02*
X139359070Y-84838299D01*
D14*
X158669272Y-89324542D02*
X158431177Y-89205495D01*
X158431177Y-89205495D02*
X158193082Y-88967400D01*
X158193082Y-88967400D02*
X157835939Y-88610257D01*
X157835939Y-88610257D02*
X157597844Y-88491209D01*
X157597844Y-88491209D02*
X157359748Y-88491209D01*
X157478796Y-89086447D02*
X157240701Y-88967400D01*
X157240701Y-88967400D02*
X157002606Y-88729304D01*
X157002606Y-88729304D02*
X156883558Y-88253114D01*
X156883558Y-88253114D02*
X156883558Y-87419780D01*
X156883558Y-87419780D02*
X157002606Y-86943590D01*
X157002606Y-86943590D02*
X157240701Y-86705495D01*
X157240701Y-86705495D02*
X157478796Y-86586447D01*
X157478796Y-86586447D02*
X157954987Y-86586447D01*
X157954987Y-86586447D02*
X158193082Y-86705495D01*
X158193082Y-86705495D02*
X158431177Y-86943590D01*
X158431177Y-86943590D02*
X158550225Y-87419780D01*
X158550225Y-87419780D02*
X158550225Y-88253114D01*
X158550225Y-88253114D02*
X158431177Y-88729304D01*
X158431177Y-88729304D02*
X158193082Y-88967400D01*
X158193082Y-88967400D02*
X157954987Y-89086447D01*
X157954987Y-89086447D02*
X157478796Y-89086447D01*
D13*
X144450017Y-97703107D02*
X144592874Y-97750726D01*
X144592874Y-97750726D02*
X144830969Y-97750726D01*
X144830969Y-97750726D02*
X144926207Y-97703107D01*
X144926207Y-97703107D02*
X144973826Y-97655487D01*
X144973826Y-97655487D02*
X145021445Y-97560249D01*
X145021445Y-97560249D02*
X145021445Y-97465011D01*
X145021445Y-97465011D02*
X144973826Y-97369773D01*
X144973826Y-97369773D02*
X144926207Y-97322154D01*
X144926207Y-97322154D02*
X144830969Y-97274535D01*
X144830969Y-97274535D02*
X144640493Y-97226916D01*
X144640493Y-97226916D02*
X144545255Y-97179297D01*
X144545255Y-97179297D02*
X144497636Y-97131678D01*
X144497636Y-97131678D02*
X144450017Y-97036440D01*
X144450017Y-97036440D02*
X144450017Y-96941202D01*
X144450017Y-96941202D02*
X144497636Y-96845964D01*
X144497636Y-96845964D02*
X144545255Y-96798345D01*
X144545255Y-96798345D02*
X144640493Y-96750726D01*
X144640493Y-96750726D02*
X144878588Y-96750726D01*
X144878588Y-96750726D02*
X145021445Y-96798345D01*
D12*
X145588417Y-110725228D02*
X145540798Y-110701419D01*
X145540798Y-110701419D02*
X145493179Y-110653800D01*
X145493179Y-110653800D02*
X145421751Y-110582371D01*
X145421751Y-110582371D02*
X145374132Y-110558561D01*
X145374132Y-110558561D02*
X145326513Y-110558561D01*
X145350322Y-110677609D02*
X145302703Y-110653800D01*
X145302703Y-110653800D02*
X145255084Y-110606180D01*
X145255084Y-110606180D02*
X145231275Y-110510942D01*
X145231275Y-110510942D02*
X145231275Y-110344276D01*
X145231275Y-110344276D02*
X145255084Y-110249038D01*
X145255084Y-110249038D02*
X145302703Y-110201419D01*
X145302703Y-110201419D02*
X145350322Y-110177609D01*
X145350322Y-110177609D02*
X145445560Y-110177609D01*
X145445560Y-110177609D02*
X145493179Y-110201419D01*
X145493179Y-110201419D02*
X145540798Y-110249038D01*
X145540798Y-110249038D02*
X145564608Y-110344276D01*
X145564608Y-110344276D02*
X145564608Y-110510942D01*
X145564608Y-110510942D02*
X145540798Y-110606180D01*
X145540798Y-110606180D02*
X145493179Y-110653800D01*
X145493179Y-110653800D02*
X145445560Y-110677609D01*
X145445560Y-110677609D02*
X145350322Y-110677609D01*
X141613773Y-84896819D02*
X141566154Y-84873010D01*
X141566154Y-84873010D02*
X141518535Y-84825391D01*
X141518535Y-84825391D02*
X141447107Y-84753962D01*
X141447107Y-84753962D02*
X141399488Y-84730152D01*
X141399488Y-84730152D02*
X141351869Y-84730152D01*
X141375678Y-84849200D02*
X141328059Y-84825391D01*
X141328059Y-84825391D02*
X141280440Y-84777771D01*
X141280440Y-84777771D02*
X141256631Y-84682533D01*
X141256631Y-84682533D02*
X141256631Y-84515867D01*
X141256631Y-84515867D02*
X141280440Y-84420629D01*
X141280440Y-84420629D02*
X141328059Y-84373010D01*
X141328059Y-84373010D02*
X141375678Y-84349200D01*
X141375678Y-84349200D02*
X141470916Y-84349200D01*
X141470916Y-84349200D02*
X141518535Y-84373010D01*
X141518535Y-84373010D02*
X141566154Y-84420629D01*
X141566154Y-84420629D02*
X141589964Y-84515867D01*
X141589964Y-84515867D02*
X141589964Y-84682533D01*
X141589964Y-84682533D02*
X141566154Y-84777771D01*
X141566154Y-84777771D02*
X141518535Y-84825391D01*
X141518535Y-84825391D02*
X141470916Y-84849200D01*
X141470916Y-84849200D02*
X141375678Y-84849200D01*
D13*
X137242779Y-94738866D02*
X138004684Y-94738866D01*
X137623731Y-95119819D02*
X137623731Y-94357914D01*
X160610779Y-94484866D02*
X161372684Y-94484866D01*
X160991731Y-94865819D02*
X160991731Y-94103914D01*
X144354779Y-99818866D02*
X145116684Y-99818866D01*
X144735731Y-100199819D02*
X144735731Y-99437914D01*
D12*
X143072266Y-84393044D02*
X143024647Y-84369234D01*
X143024647Y-84369234D02*
X142953218Y-84369234D01*
X142953218Y-84369234D02*
X142881790Y-84393044D01*
X142881790Y-84393044D02*
X142834171Y-84440663D01*
X142834171Y-84440663D02*
X142810361Y-84488282D01*
X142810361Y-84488282D02*
X142786552Y-84583520D01*
X142786552Y-84583520D02*
X142786552Y-84654948D01*
X142786552Y-84654948D02*
X142810361Y-84750186D01*
X142810361Y-84750186D02*
X142834171Y-84797805D01*
X142834171Y-84797805D02*
X142881790Y-84845425D01*
X142881790Y-84845425D02*
X142953218Y-84869234D01*
X142953218Y-84869234D02*
X143000837Y-84869234D01*
X143000837Y-84869234D02*
X143072266Y-84845425D01*
X143072266Y-84845425D02*
X143096075Y-84821615D01*
X143096075Y-84821615D02*
X143096075Y-84654948D01*
X143096075Y-84654948D02*
X143000837Y-84654948D01*
X143310361Y-84869234D02*
X143310361Y-84369234D01*
X143310361Y-84369234D02*
X143596075Y-84869234D01*
X143596075Y-84869234D02*
X143596075Y-84369234D01*
X143834171Y-84869234D02*
X143834171Y-84369234D01*
X143834171Y-84369234D02*
X143953219Y-84369234D01*
X143953219Y-84369234D02*
X144024647Y-84393044D01*
X144024647Y-84393044D02*
X144072266Y-84440663D01*
X144072266Y-84440663D02*
X144096076Y-84488282D01*
X144096076Y-84488282D02*
X144119885Y-84583520D01*
X144119885Y-84583520D02*
X144119885Y-84654948D01*
X144119885Y-84654948D02*
X144096076Y-84750186D01*
X144096076Y-84750186D02*
X144072266Y-84797805D01*
X144072266Y-84797805D02*
X144024647Y-84845425D01*
X144024647Y-84845425D02*
X143953219Y-84869234D01*
X143953219Y-84869234D02*
X143834171Y-84869234D01*
X139121451Y-110422707D02*
X139883356Y-110422707D01*
X139502403Y-110803660D02*
X139502403Y-110041755D01*
D13*
X151831922Y-94703157D02*
X152593827Y-94703157D01*
X152212874Y-95084110D02*
X152212874Y-94322205D01*
D12*
X141100622Y-110208002D02*
X141053003Y-110184192D01*
X141053003Y-110184192D02*
X140981574Y-110184192D01*
X140981574Y-110184192D02*
X140910146Y-110208002D01*
X140910146Y-110208002D02*
X140862527Y-110255621D01*
X140862527Y-110255621D02*
X140838717Y-110303240D01*
X140838717Y-110303240D02*
X140814908Y-110398478D01*
X140814908Y-110398478D02*
X140814908Y-110469906D01*
X140814908Y-110469906D02*
X140838717Y-110565144D01*
X140838717Y-110565144D02*
X140862527Y-110612763D01*
X140862527Y-110612763D02*
X140910146Y-110660383D01*
X140910146Y-110660383D02*
X140981574Y-110684192D01*
X140981574Y-110684192D02*
X141029193Y-110684192D01*
X141029193Y-110684192D02*
X141100622Y-110660383D01*
X141100622Y-110660383D02*
X141124431Y-110636573D01*
X141124431Y-110636573D02*
X141124431Y-110469906D01*
X141124431Y-110469906D02*
X141029193Y-110469906D01*
X141338717Y-110684192D02*
X141338717Y-110184192D01*
X141338717Y-110184192D02*
X141624431Y-110684192D01*
X141624431Y-110684192D02*
X141624431Y-110184192D01*
X141862527Y-110684192D02*
X141862527Y-110184192D01*
X141862527Y-110184192D02*
X141981575Y-110184192D01*
X141981575Y-110184192D02*
X142053003Y-110208002D01*
X142053003Y-110208002D02*
X142100622Y-110255621D01*
X142100622Y-110255621D02*
X142124432Y-110303240D01*
X142124432Y-110303240D02*
X142148241Y-110398478D01*
X142148241Y-110398478D02*
X142148241Y-110469906D01*
X142148241Y-110469906D02*
X142124432Y-110565144D01*
X142124432Y-110565144D02*
X142100622Y-110612763D01*
X142100622Y-110612763D02*
X142053003Y-110660383D01*
X142053003Y-110660383D02*
X141981575Y-110684192D01*
X141981575Y-110684192D02*
X141862527Y-110684192D01*
D13*
X128098779Y-99818866D02*
X128860684Y-99818866D01*
X144354779Y-94738866D02*
X145116684Y-94738866D01*
X128194017Y-95072200D02*
X128336874Y-95119819D01*
X128336874Y-95119819D02*
X128574969Y-95119819D01*
X128574969Y-95119819D02*
X128670207Y-95072200D01*
X128670207Y-95072200D02*
X128717826Y-95024580D01*
X128717826Y-95024580D02*
X128765445Y-94929342D01*
X128765445Y-94929342D02*
X128765445Y-94834104D01*
X128765445Y-94834104D02*
X128717826Y-94738866D01*
X128717826Y-94738866D02*
X128670207Y-94691247D01*
X128670207Y-94691247D02*
X128574969Y-94643628D01*
X128574969Y-94643628D02*
X128384493Y-94596009D01*
X128384493Y-94596009D02*
X128289255Y-94548390D01*
X128289255Y-94548390D02*
X128241636Y-94500771D01*
X128241636Y-94500771D02*
X128194017Y-94405533D01*
X128194017Y-94405533D02*
X128194017Y-94310295D01*
X128194017Y-94310295D02*
X128241636Y-94215057D01*
X128241636Y-94215057D02*
X128289255Y-94167438D01*
X128289255Y-94167438D02*
X128384493Y-94119819D01*
X128384493Y-94119819D02*
X128622588Y-94119819D01*
X128622588Y-94119819D02*
X128765445Y-94167438D01*
X123391826Y-107441200D02*
X124534684Y-107441200D01*
X123963255Y-108012628D02*
X123963255Y-106869771D01*
X137338017Y-97612200D02*
X137480874Y-97659819D01*
X137480874Y-97659819D02*
X137718969Y-97659819D01*
X137718969Y-97659819D02*
X137814207Y-97612200D01*
X137814207Y-97612200D02*
X137861826Y-97564580D01*
X137861826Y-97564580D02*
X137909445Y-97469342D01*
X137909445Y-97469342D02*
X137909445Y-97374104D01*
X137909445Y-97374104D02*
X137861826Y-97278866D01*
X137861826Y-97278866D02*
X137814207Y-97231247D01*
X137814207Y-97231247D02*
X137718969Y-97183628D01*
X137718969Y-97183628D02*
X137528493Y-97136009D01*
X137528493Y-97136009D02*
X137433255Y-97088390D01*
X137433255Y-97088390D02*
X137385636Y-97040771D01*
X137385636Y-97040771D02*
X137338017Y-96945533D01*
X137338017Y-96945533D02*
X137338017Y-96850295D01*
X137338017Y-96850295D02*
X137385636Y-96755057D01*
X137385636Y-96755057D02*
X137433255Y-96707438D01*
X137433255Y-96707438D02*
X137528493Y-96659819D01*
X137528493Y-96659819D02*
X137766588Y-96659819D01*
X137766588Y-96659819D02*
X137909445Y-96707438D01*
D15*
X142827509Y-105584905D02*
X142881311Y-105597777D01*
X142931736Y-105618520D01*
X142978023Y-105646548D01*
X143019412Y-105681281D01*
X143055140Y-105722133D01*
X143084447Y-105768523D01*
X143106572Y-105819868D01*
X143113544Y-105842785D01*
X143121339Y-105884749D01*
X143123949Y-105930738D01*
X143121426Y-105977166D01*
X143113819Y-106020448D01*
X143110895Y-106031146D01*
X143090827Y-106083282D01*
X143063570Y-106130654D01*
X143029968Y-106172753D01*
X142990862Y-106209071D01*
X142947094Y-106239098D01*
X142899506Y-106262326D01*
X142848939Y-106278246D01*
X142796236Y-106286348D01*
X142742239Y-106286125D01*
X142699509Y-106279789D01*
X142645446Y-106263639D01*
X142595252Y-106239506D01*
X142549702Y-106208108D01*
X142509573Y-106170166D01*
X142475639Y-106126399D01*
X142448678Y-106077527D01*
X142431418Y-106031146D01*
X142423166Y-105993184D01*
X142418928Y-105951038D01*
X142418808Y-105908264D01*
X142422906Y-105868417D01*
X142426280Y-105851872D01*
X142443972Y-105798085D01*
X142469231Y-105748842D01*
X142501303Y-105704737D01*
X142539434Y-105666363D01*
X142582869Y-105634315D01*
X142630854Y-105609185D01*
X142682636Y-105591567D01*
X142737459Y-105582054D01*
X142771091Y-105580484D01*
X142827509Y-105584905D01*
G36*
X142827509Y-105584905D02*
G01*
X142881311Y-105597777D01*
X142931736Y-105618520D01*
X142978023Y-105646548D01*
X143019412Y-105681281D01*
X143055140Y-105722133D01*
X143084447Y-105768523D01*
X143106572Y-105819868D01*
X143113544Y-105842785D01*
X143121339Y-105884749D01*
X143123949Y-105930738D01*
X143121426Y-105977166D01*
X143113819Y-106020448D01*
X143110895Y-106031146D01*
X143090827Y-106083282D01*
X143063570Y-106130654D01*
X143029968Y-106172753D01*
X142990862Y-106209071D01*
X142947094Y-106239098D01*
X142899506Y-106262326D01*
X142848939Y-106278246D01*
X142796236Y-106286348D01*
X142742239Y-106286125D01*
X142699509Y-106279789D01*
X142645446Y-106263639D01*
X142595252Y-106239506D01*
X142549702Y-106208108D01*
X142509573Y-106170166D01*
X142475639Y-106126399D01*
X142448678Y-106077527D01*
X142431418Y-106031146D01*
X142423166Y-105993184D01*
X142418928Y-105951038D01*
X142418808Y-105908264D01*
X142422906Y-105868417D01*
X142426280Y-105851872D01*
X142443972Y-105798085D01*
X142469231Y-105748842D01*
X142501303Y-105704737D01*
X142539434Y-105666363D01*
X142582869Y-105634315D01*
X142630854Y-105609185D01*
X142682636Y-105591567D01*
X142737459Y-105582054D01*
X142771091Y-105580484D01*
X142827509Y-105584905D01*
G37*
X142827574Y-108065341D02*
X142881533Y-108078314D01*
X142932200Y-108099358D01*
X142978809Y-108127975D01*
X143020593Y-108163668D01*
X143056785Y-108205936D01*
X143086618Y-108254283D01*
X143094834Y-108271260D01*
X143109429Y-108309043D01*
X143118588Y-108347200D01*
X143122945Y-108388892D01*
X143123526Y-108414127D01*
X143121879Y-108455842D01*
X143116379Y-108492504D01*
X143106187Y-108527719D01*
X143090462Y-108565094D01*
X143086427Y-108573455D01*
X143075983Y-108593655D01*
X143065818Y-108610319D01*
X143054094Y-108625916D01*
X143038973Y-108642913D01*
X143020622Y-108661764D01*
X143001046Y-108681014D01*
X142985192Y-108695255D01*
X142970569Y-108706314D01*
X142954685Y-108716015D01*
X142935048Y-108726185D01*
X142927996Y-108729628D01*
X142897680Y-108743037D01*
X142868366Y-108753689D01*
X142844022Y-108760236D01*
X142805405Y-108765413D01*
X142763130Y-108766702D01*
X142721634Y-108764113D01*
X142694891Y-108759887D01*
X142676886Y-108754887D01*
X142654118Y-108746808D01*
X142629975Y-108736920D01*
X142614501Y-108729808D01*
X142592603Y-108718769D01*
X142575418Y-108708730D01*
X142560258Y-108697735D01*
X142544434Y-108683827D01*
X142525260Y-108665047D01*
X142524445Y-108664227D01*
X142496591Y-108634396D01*
X142474994Y-108606702D01*
X142457970Y-108578563D01*
X142443835Y-108547394D01*
X142437864Y-108531397D01*
X142423292Y-108476882D01*
X142417605Y-108421815D01*
X142420601Y-108367150D01*
X142432077Y-108313839D01*
X142451832Y-108262838D01*
X142479664Y-108215099D01*
X142513683Y-108173341D01*
X142557127Y-108133699D01*
X142603994Y-108102630D01*
X142654255Y-108080148D01*
X142707883Y-108066264D01*
X142764847Y-108060991D01*
X142771091Y-108060937D01*
X142827574Y-108065341D01*
G36*
X142827574Y-108065341D02*
G01*
X142881533Y-108078314D01*
X142932200Y-108099358D01*
X142978809Y-108127975D01*
X143020593Y-108163668D01*
X143056785Y-108205936D01*
X143086618Y-108254283D01*
X143094834Y-108271260D01*
X143109429Y-108309043D01*
X143118588Y-108347200D01*
X143122945Y-108388892D01*
X143123526Y-108414127D01*
X143121879Y-108455842D01*
X143116379Y-108492504D01*
X143106187Y-108527719D01*
X143090462Y-108565094D01*
X143086427Y-108573455D01*
X143075983Y-108593655D01*
X143065818Y-108610319D01*
X143054094Y-108625916D01*
X143038973Y-108642913D01*
X143020622Y-108661764D01*
X143001046Y-108681014D01*
X142985192Y-108695255D01*
X142970569Y-108706314D01*
X142954685Y-108716015D01*
X142935048Y-108726185D01*
X142927996Y-108729628D01*
X142897680Y-108743037D01*
X142868366Y-108753689D01*
X142844022Y-108760236D01*
X142805405Y-108765413D01*
X142763130Y-108766702D01*
X142721634Y-108764113D01*
X142694891Y-108759887D01*
X142676886Y-108754887D01*
X142654118Y-108746808D01*
X142629975Y-108736920D01*
X142614501Y-108729808D01*
X142592603Y-108718769D01*
X142575418Y-108708730D01*
X142560258Y-108697735D01*
X142544434Y-108683827D01*
X142525260Y-108665047D01*
X142524445Y-108664227D01*
X142496591Y-108634396D01*
X142474994Y-108606702D01*
X142457970Y-108578563D01*
X142443835Y-108547394D01*
X142437864Y-108531397D01*
X142423292Y-108476882D01*
X142417605Y-108421815D01*
X142420601Y-108367150D01*
X142432077Y-108313839D01*
X142451832Y-108262838D01*
X142479664Y-108215099D01*
X142513683Y-108173341D01*
X142557127Y-108133699D01*
X142603994Y-108102630D01*
X142654255Y-108080148D01*
X142707883Y-108066264D01*
X142764847Y-108060991D01*
X142771091Y-108060937D01*
X142827574Y-108065341D01*
G37*
X142825170Y-106332369D02*
X142877515Y-106344666D01*
X142926143Y-106365266D01*
X142971612Y-106394388D01*
X142999674Y-106417931D01*
X143038160Y-106458993D01*
X143068210Y-106503643D01*
X143090045Y-106552328D01*
X143103887Y-106605496D01*
X143108178Y-106636853D01*
X143108923Y-106649339D01*
X143109602Y-106670256D01*
X143110214Y-106698834D01*
X143110759Y-106734300D01*
X143111237Y-106775883D01*
X143111649Y-106822811D01*
X143111994Y-106874312D01*
X143112274Y-106929614D01*
X143112488Y-106987946D01*
X143112635Y-107048536D01*
X143112717Y-107110613D01*
X143112734Y-107173403D01*
X143112685Y-107236137D01*
X143112571Y-107298041D01*
X143112392Y-107358345D01*
X143112148Y-107416276D01*
X143111840Y-107471062D01*
X143111466Y-107521933D01*
X143111029Y-107568116D01*
X143110527Y-107608840D01*
X143109961Y-107643332D01*
X143109331Y-107670821D01*
X143108637Y-107690536D01*
X143107964Y-107700946D01*
X143099633Y-107752266D01*
X143085347Y-107797787D01*
X143064273Y-107839393D01*
X143035583Y-107878968D01*
X143023372Y-107892924D01*
X142983156Y-107930904D01*
X142938919Y-107961497D01*
X142891699Y-107984094D01*
X142844771Y-107997651D01*
X142795066Y-108005305D01*
X142751602Y-108007150D01*
X142713471Y-108003223D01*
X142713364Y-108003202D01*
X142664469Y-107990752D01*
X142620950Y-107972609D01*
X142580804Y-107947694D01*
X142542026Y-107914929D01*
X142533227Y-107906307D01*
X142512543Y-107884744D01*
X142497049Y-107866355D01*
X142484752Y-107848503D01*
X142473660Y-107828554D01*
X142472023Y-107825309D01*
X142466812Y-107815089D01*
X142462131Y-107806043D01*
X142457952Y-107797648D01*
X142454247Y-107789384D01*
X142450987Y-107780728D01*
X142448144Y-107771159D01*
X142445690Y-107760155D01*
X142443596Y-107747195D01*
X142441834Y-107731758D01*
X142440376Y-107713321D01*
X142439193Y-107691363D01*
X142438257Y-107665362D01*
X142437540Y-107634797D01*
X142437013Y-107599147D01*
X142436648Y-107557889D01*
X142436416Y-107510502D01*
X142436290Y-107456465D01*
X142436241Y-107395255D01*
X142436241Y-107326352D01*
X142436261Y-107249234D01*
X142436273Y-107167218D01*
X142436273Y-106608418D01*
X142446909Y-106571681D01*
X142459470Y-106534432D01*
X142474679Y-106502218D01*
X142494124Y-106472421D01*
X142519391Y-106442427D01*
X142535403Y-106425839D01*
X142574761Y-106390578D01*
X142614373Y-106363837D01*
X142655741Y-106344988D01*
X142700371Y-106333400D01*
X142749765Y-106328443D01*
X142768549Y-106328159D01*
X142825170Y-106332369D01*
G36*
X142825170Y-106332369D02*
G01*
X142877515Y-106344666D01*
X142926143Y-106365266D01*
X142971612Y-106394388D01*
X142999674Y-106417931D01*
X143038160Y-106458993D01*
X143068210Y-106503643D01*
X143090045Y-106552328D01*
X143103887Y-106605496D01*
X143108178Y-106636853D01*
X143108923Y-106649339D01*
X143109602Y-106670256D01*
X143110214Y-106698834D01*
X143110759Y-106734300D01*
X143111237Y-106775883D01*
X143111649Y-106822811D01*
X143111994Y-106874312D01*
X143112274Y-106929614D01*
X143112488Y-106987946D01*
X143112635Y-107048536D01*
X143112717Y-107110613D01*
X143112734Y-107173403D01*
X143112685Y-107236137D01*
X143112571Y-107298041D01*
X143112392Y-107358345D01*
X143112148Y-107416276D01*
X143111840Y-107471062D01*
X143111466Y-107521933D01*
X143111029Y-107568116D01*
X143110527Y-107608840D01*
X143109961Y-107643332D01*
X143109331Y-107670821D01*
X143108637Y-107690536D01*
X143107964Y-107700946D01*
X143099633Y-107752266D01*
X143085347Y-107797787D01*
X143064273Y-107839393D01*
X143035583Y-107878968D01*
X143023372Y-107892924D01*
X142983156Y-107930904D01*
X142938919Y-107961497D01*
X142891699Y-107984094D01*
X142844771Y-107997651D01*
X142795066Y-108005305D01*
X142751602Y-108007150D01*
X142713471Y-108003223D01*
X142713364Y-108003202D01*
X142664469Y-107990752D01*
X142620950Y-107972609D01*
X142580804Y-107947694D01*
X142542026Y-107914929D01*
X142533227Y-107906307D01*
X142512543Y-107884744D01*
X142497049Y-107866355D01*
X142484752Y-107848503D01*
X142473660Y-107828554D01*
X142472023Y-107825309D01*
X142466812Y-107815089D01*
X142462131Y-107806043D01*
X142457952Y-107797648D01*
X142454247Y-107789384D01*
X142450987Y-107780728D01*
X142448144Y-107771159D01*
X142445690Y-107760155D01*
X142443596Y-107747195D01*
X142441834Y-107731758D01*
X142440376Y-107713321D01*
X142439193Y-107691363D01*
X142438257Y-107665362D01*
X142437540Y-107634797D01*
X142437013Y-107599147D01*
X142436648Y-107557889D01*
X142436416Y-107510502D01*
X142436290Y-107456465D01*
X142436241Y-107395255D01*
X142436241Y-107326352D01*
X142436261Y-107249234D01*
X142436273Y-107167218D01*
X142436273Y-106608418D01*
X142446909Y-106571681D01*
X142459470Y-106534432D01*
X142474679Y-106502218D01*
X142494124Y-106472421D01*
X142519391Y-106442427D01*
X142535403Y-106425839D01*
X142574761Y-106390578D01*
X142614373Y-106363837D01*
X142655741Y-106344988D01*
X142700371Y-106333400D01*
X142749765Y-106328443D01*
X142768549Y-106328159D01*
X142825170Y-106332369D01*
G37*
X142828052Y-103863839D02*
X142865764Y-103872408D01*
X142916927Y-103892849D01*
X142963866Y-103920690D01*
X143005751Y-103955059D01*
X143041754Y-103995085D01*
X143071045Y-104039895D01*
X143092796Y-104088619D01*
X143102283Y-104121058D01*
X143103538Y-104126862D01*
X143104660Y-104133344D01*
X143105656Y-104141026D01*
X143106532Y-104150431D01*
X143107298Y-104162083D01*
X143107960Y-104176503D01*
X143108526Y-104194215D01*
X143109002Y-104215743D01*
X143109398Y-104241608D01*
X143109719Y-104272335D01*
X143109974Y-104308445D01*
X143110170Y-104350462D01*
X143110315Y-104398909D01*
X143110415Y-104454309D01*
X143110479Y-104517184D01*
X143110514Y-104588059D01*
X143110527Y-104667454D01*
X143110528Y-104698800D01*
X143110535Y-104783854D01*
X143110540Y-104860198D01*
X143110514Y-104928357D01*
X143110428Y-104988858D01*
X143110255Y-105042226D01*
X143109966Y-105088988D01*
X143109533Y-105129668D01*
X143108928Y-105164794D01*
X143108123Y-105194892D01*
X143107089Y-105220486D01*
X143105799Y-105242103D01*
X143104225Y-105260269D01*
X143102337Y-105275510D01*
X143100109Y-105288352D01*
X143097511Y-105299320D01*
X143094516Y-105308941D01*
X143091096Y-105317741D01*
X143087222Y-105326245D01*
X143082866Y-105334980D01*
X143078000Y-105344471D01*
X143075712Y-105348980D01*
X143048942Y-105392765D01*
X143014976Y-105433333D01*
X142975625Y-105468873D01*
X142932703Y-105497574D01*
X142920437Y-105504065D01*
X142884673Y-105518404D01*
X142843544Y-105529112D01*
X142799900Y-105535827D01*
X142756596Y-105538187D01*
X142716484Y-105535828D01*
X142697200Y-105532474D01*
X142679260Y-105527227D01*
X142657010Y-105518989D01*
X142634239Y-105509210D01*
X142625619Y-105505085D01*
X142576402Y-105475758D01*
X142533560Y-105440006D01*
X142497529Y-105398352D01*
X142468746Y-105351315D01*
X142447650Y-105299419D01*
X142444628Y-105289338D01*
X142443378Y-105284539D01*
X142442259Y-105279085D01*
X142441263Y-105272468D01*
X142440384Y-105264180D01*
X142439614Y-105253713D01*
X142438946Y-105240558D01*
X142438373Y-105224206D01*
X142437888Y-105204148D01*
X142437483Y-105179878D01*
X142437151Y-105150885D01*
X142436886Y-105116661D01*
X142436679Y-105076699D01*
X142436524Y-105030489D01*
X142436414Y-104977523D01*
X142436341Y-104917293D01*
X142436298Y-104849290D01*
X142436277Y-104773005D01*
X142436273Y-104698800D01*
X142436279Y-104614834D01*
X142436301Y-104539594D01*
X142436347Y-104472573D01*
X142436424Y-104413261D01*
X142436539Y-104361148D01*
X142436699Y-104315726D01*
X142436912Y-104276486D01*
X142437185Y-104242918D01*
X142437525Y-104214514D01*
X142437939Y-104190763D01*
X142438434Y-104171158D01*
X142439019Y-104155188D01*
X142439699Y-104142346D01*
X142440482Y-104132121D01*
X142441376Y-104124004D01*
X142442387Y-104117487D01*
X142443523Y-104112060D01*
X142444663Y-104107673D01*
X142463492Y-104056547D01*
X142489836Y-104009532D01*
X142522841Y-103967433D01*
X142561651Y-103931058D01*
X142605413Y-103901214D01*
X142653272Y-103878707D01*
X142701735Y-103864861D01*
X142741988Y-103859811D01*
X142785358Y-103859528D01*
X142828052Y-103863839D01*
G36*
X142828052Y-103863839D02*
G01*
X142865764Y-103872408D01*
X142916927Y-103892849D01*
X142963866Y-103920690D01*
X143005751Y-103955059D01*
X143041754Y-103995085D01*
X143071045Y-104039895D01*
X143092796Y-104088619D01*
X143102283Y-104121058D01*
X143103538Y-104126862D01*
X143104660Y-104133344D01*
X143105656Y-104141026D01*
X143106532Y-104150431D01*
X143107298Y-104162083D01*
X143107960Y-104176503D01*
X143108526Y-104194215D01*
X143109002Y-104215743D01*
X143109398Y-104241608D01*
X143109719Y-104272335D01*
X143109974Y-104308445D01*
X143110170Y-104350462D01*
X143110315Y-104398909D01*
X143110415Y-104454309D01*
X143110479Y-104517184D01*
X143110514Y-104588059D01*
X143110527Y-104667454D01*
X143110528Y-104698800D01*
X143110535Y-104783854D01*
X143110540Y-104860198D01*
X143110514Y-104928357D01*
X143110428Y-104988858D01*
X143110255Y-105042226D01*
X143109966Y-105088988D01*
X143109533Y-105129668D01*
X143108928Y-105164794D01*
X143108123Y-105194892D01*
X143107089Y-105220486D01*
X143105799Y-105242103D01*
X143104225Y-105260269D01*
X143102337Y-105275510D01*
X143100109Y-105288352D01*
X143097511Y-105299320D01*
X143094516Y-105308941D01*
X143091096Y-105317741D01*
X143087222Y-105326245D01*
X143082866Y-105334980D01*
X143078000Y-105344471D01*
X143075712Y-105348980D01*
X143048942Y-105392765D01*
X143014976Y-105433333D01*
X142975625Y-105468873D01*
X142932703Y-105497574D01*
X142920437Y-105504065D01*
X142884673Y-105518404D01*
X142843544Y-105529112D01*
X142799900Y-105535827D01*
X142756596Y-105538187D01*
X142716484Y-105535828D01*
X142697200Y-105532474D01*
X142679260Y-105527227D01*
X142657010Y-105518989D01*
X142634239Y-105509210D01*
X142625619Y-105505085D01*
X142576402Y-105475758D01*
X142533560Y-105440006D01*
X142497529Y-105398352D01*
X142468746Y-105351315D01*
X142447650Y-105299419D01*
X142444628Y-105289338D01*
X142443378Y-105284539D01*
X142442259Y-105279085D01*
X142441263Y-105272468D01*
X142440384Y-105264180D01*
X142439614Y-105253713D01*
X142438946Y-105240558D01*
X142438373Y-105224206D01*
X142437888Y-105204148D01*
X142437483Y-105179878D01*
X142437151Y-105150885D01*
X142436886Y-105116661D01*
X142436679Y-105076699D01*
X142436524Y-105030489D01*
X142436414Y-104977523D01*
X142436341Y-104917293D01*
X142436298Y-104849290D01*
X142436277Y-104773005D01*
X142436273Y-104698800D01*
X142436279Y-104614834D01*
X142436301Y-104539594D01*
X142436347Y-104472573D01*
X142436424Y-104413261D01*
X142436539Y-104361148D01*
X142436699Y-104315726D01*
X142436912Y-104276486D01*
X142437185Y-104242918D01*
X142437525Y-104214514D01*
X142437939Y-104190763D01*
X142438434Y-104171158D01*
X142439019Y-104155188D01*
X142439699Y-104142346D01*
X142440482Y-104132121D01*
X142441376Y-104124004D01*
X142442387Y-104117487D01*
X142443523Y-104112060D01*
X142444663Y-104107673D01*
X142463492Y-104056547D01*
X142489836Y-104009532D01*
X142522841Y-103967433D01*
X142561651Y-103931058D01*
X142605413Y-103901214D01*
X142653272Y-103878707D01*
X142701735Y-103864861D01*
X142741988Y-103859811D01*
X142785358Y-103859528D01*
X142828052Y-103863839D01*
G37*
X140860528Y-105609406D02*
X140892114Y-105611703D01*
X140912273Y-105614935D01*
X140962978Y-105630569D01*
X141010301Y-105654204D01*
X141053349Y-105684944D01*
X141091226Y-105721896D01*
X141123038Y-105764163D01*
X141147890Y-105810852D01*
X141164886Y-105861068D01*
X141166847Y-105869509D01*
X141168314Y-105878819D01*
X141169552Y-105892590D01*
X141170576Y-105911454D01*
X141171401Y-105936046D01*
X141172041Y-105966999D01*
X141172510Y-106004948D01*
X141172825Y-106050527D01*
X141172998Y-106104368D01*
X141173038Y-106136748D01*
X141173088Y-106189943D01*
X141173177Y-106234629D01*
X141173331Y-106271534D01*
X141173573Y-106301385D01*
X141173931Y-106324910D01*
X141174429Y-106342838D01*
X141175093Y-106355894D01*
X141175947Y-106364807D01*
X141177017Y-106370305D01*
X141178329Y-106373115D01*
X141179907Y-106373965D01*
X141181282Y-106373754D01*
X141226893Y-106359745D01*
X141265440Y-106348520D01*
X141298551Y-106339730D01*
X141327849Y-106333027D01*
X141354963Y-106328063D01*
X141381518Y-106324491D01*
X141409139Y-106321962D01*
X141429412Y-106320658D01*
X141518643Y-106319890D01*
X141604785Y-106327715D01*
X141687687Y-106344094D01*
X141767201Y-106368987D01*
X141843175Y-106402356D01*
X141915460Y-106444161D01*
X141922915Y-106449096D01*
X141990096Y-106499029D01*
X142049639Y-106553843D01*
X142102124Y-106614201D01*
X142148129Y-106680768D01*
X142186959Y-106751582D01*
X142221009Y-106829846D01*
X142246696Y-106908587D01*
X142264333Y-106989193D01*
X142274234Y-107073053D01*
X142276799Y-107149338D01*
X142273015Y-107240518D01*
X142261832Y-107326737D01*
X142242975Y-107408716D01*
X142216169Y-107487174D01*
X142181139Y-107562833D01*
X142137610Y-107636413D01*
X142085308Y-107708633D01*
X142044774Y-107757125D01*
X142002392Y-107800486D01*
X141953440Y-107842433D01*
X141900565Y-107880957D01*
X141846413Y-107914049D01*
X141819746Y-107927901D01*
X141757311Y-107954067D01*
X141689306Y-107974959D01*
X141618026Y-107990144D01*
X141545765Y-107999191D01*
X141474818Y-108001667D01*
X141436437Y-108000018D01*
X141364946Y-107990641D01*
X141297901Y-107973443D01*
X141235578Y-107948538D01*
X141178255Y-107916041D01*
X141126207Y-107876068D01*
X141116628Y-107867347D01*
X141106696Y-107856965D01*
X141100431Y-107848319D01*
X141099309Y-107845154D01*
X141098142Y-107839619D01*
X141097423Y-107839164D01*
X141093182Y-107841494D01*
X141082008Y-107848110D01*
X141064827Y-107858449D01*
X141042568Y-107871950D01*
X141016158Y-107888049D01*
X140986525Y-107906185D01*
X140964148Y-107919923D01*
X140832759Y-108000682D01*
X140791698Y-107999166D01*
X140744724Y-107992938D01*
X140699443Y-107978263D01*
X140656735Y-107955898D01*
X140617477Y-107926597D01*
X140582550Y-107891115D01*
X140552832Y-107850206D01*
X140529201Y-107804626D01*
X140513978Y-107760655D01*
X140513024Y-107756727D01*
X140512147Y-107752056D01*
X140511344Y-107746253D01*
X140510613Y-107738931D01*
X140509949Y-107729703D01*
X140509350Y-107718181D01*
X140508813Y-107703978D01*
X140508333Y-107686707D01*
X140507908Y-107665981D01*
X140507535Y-107641411D01*
X140507210Y-107612611D01*
X140506930Y-107579194D01*
X140506691Y-107540771D01*
X140506491Y-107496956D01*
X140506326Y-107447362D01*
X140506193Y-107391600D01*
X140506088Y-107329285D01*
X140506008Y-107260027D01*
X140505950Y-107183441D01*
X140505944Y-107169338D01*
X141153134Y-107169338D01*
X141153156Y-107171837D01*
X141156590Y-107222824D01*
X141165967Y-107267435D01*
X141181660Y-107306660D01*
X141204039Y-107341489D01*
X141225926Y-107365800D01*
X141261895Y-107395712D01*
X141299536Y-107416597D01*
X141339267Y-107428582D01*
X141381507Y-107431791D01*
X141426675Y-107426350D01*
X141427806Y-107426112D01*
X141469854Y-107412669D01*
X141507299Y-107391409D01*
X141539453Y-107362879D01*
X141565627Y-107327628D01*
X141576110Y-107307965D01*
X141588180Y-107280079D01*
X141596444Y-107254361D01*
X141601491Y-107227876D01*
X141603910Y-107197691D01*
X141604340Y-107167218D01*
X141601553Y-107116951D01*
X141593496Y-107073406D01*
X141579766Y-107035456D01*
X141559959Y-107001975D01*
X141534809Y-106972948D01*
X141505098Y-106947613D01*
X141473965Y-106929508D01*
X141439024Y-106917517D01*
X141402617Y-106911061D01*
X141360962Y-106910567D01*
X141320007Y-106918552D01*
X141281084Y-106934279D01*
X141245525Y-106957012D01*
X141214661Y-106986014D01*
X141189824Y-107020550D01*
X141183603Y-107032170D01*
X141168941Y-107065564D01*
X141159472Y-107097281D01*
X141154451Y-107130734D01*
X141153134Y-107169338D01*
X140505944Y-107169338D01*
X140505911Y-107099138D01*
X140505888Y-107006732D01*
X140505876Y-106905834D01*
X140505873Y-106804691D01*
X140505873Y-105878746D01*
X140519276Y-105837852D01*
X140539641Y-105790096D01*
X140567926Y-105745502D01*
X140603009Y-105705350D01*
X140643766Y-105670923D01*
X140689076Y-105643500D01*
X140689985Y-105643050D01*
X140712344Y-105632998D01*
X140736089Y-105623906D01*
X140757304Y-105617223D01*
X140764491Y-105615488D01*
X140793115Y-105611312D01*
X140826328Y-105609280D01*
X140860528Y-105609406D01*
G36*
X140860528Y-105609406D02*
G01*
X140892114Y-105611703D01*
X140912273Y-105614935D01*
X140962978Y-105630569D01*
X141010301Y-105654204D01*
X141053349Y-105684944D01*
X141091226Y-105721896D01*
X141123038Y-105764163D01*
X141147890Y-105810852D01*
X141164886Y-105861068D01*
X141166847Y-105869509D01*
X141168314Y-105878819D01*
X141169552Y-105892590D01*
X141170576Y-105911454D01*
X141171401Y-105936046D01*
X141172041Y-105966999D01*
X141172510Y-106004948D01*
X141172825Y-106050527D01*
X141172998Y-106104368D01*
X141173038Y-106136748D01*
X141173088Y-106189943D01*
X141173177Y-106234629D01*
X141173331Y-106271534D01*
X141173573Y-106301385D01*
X141173931Y-106324910D01*
X141174429Y-106342838D01*
X141175093Y-106355894D01*
X141175947Y-106364807D01*
X141177017Y-106370305D01*
X141178329Y-106373115D01*
X141179907Y-106373965D01*
X141181282Y-106373754D01*
X141226893Y-106359745D01*
X141265440Y-106348520D01*
X141298551Y-106339730D01*
X141327849Y-106333027D01*
X141354963Y-106328063D01*
X141381518Y-106324491D01*
X141409139Y-106321962D01*
X141429412Y-106320658D01*
X141518643Y-106319890D01*
X141604785Y-106327715D01*
X141687687Y-106344094D01*
X141767201Y-106368987D01*
X141843175Y-106402356D01*
X141915460Y-106444161D01*
X141922915Y-106449096D01*
X141990096Y-106499029D01*
X142049639Y-106553843D01*
X142102124Y-106614201D01*
X142148129Y-106680768D01*
X142186959Y-106751582D01*
X142221009Y-106829846D01*
X142246696Y-106908587D01*
X142264333Y-106989193D01*
X142274234Y-107073053D01*
X142276799Y-107149338D01*
X142273015Y-107240518D01*
X142261832Y-107326737D01*
X142242975Y-107408716D01*
X142216169Y-107487174D01*
X142181139Y-107562833D01*
X142137610Y-107636413D01*
X142085308Y-107708633D01*
X142044774Y-107757125D01*
X142002392Y-107800486D01*
X141953440Y-107842433D01*
X141900565Y-107880957D01*
X141846413Y-107914049D01*
X141819746Y-107927901D01*
X141757311Y-107954067D01*
X141689306Y-107974959D01*
X141618026Y-107990144D01*
X141545765Y-107999191D01*
X141474818Y-108001667D01*
X141436437Y-108000018D01*
X141364946Y-107990641D01*
X141297901Y-107973443D01*
X141235578Y-107948538D01*
X141178255Y-107916041D01*
X141126207Y-107876068D01*
X141116628Y-107867347D01*
X141106696Y-107856965D01*
X141100431Y-107848319D01*
X141099309Y-107845154D01*
X141098142Y-107839619D01*
X141097423Y-107839164D01*
X141093182Y-107841494D01*
X141082008Y-107848110D01*
X141064827Y-107858449D01*
X141042568Y-107871950D01*
X141016158Y-107888049D01*
X140986525Y-107906185D01*
X140964148Y-107919923D01*
X140832759Y-108000682D01*
X140791698Y-107999166D01*
X140744724Y-107992938D01*
X140699443Y-107978263D01*
X140656735Y-107955898D01*
X140617477Y-107926597D01*
X140582550Y-107891115D01*
X140552832Y-107850206D01*
X140529201Y-107804626D01*
X140513978Y-107760655D01*
X140513024Y-107756727D01*
X140512147Y-107752056D01*
X140511344Y-107746253D01*
X140510613Y-107738931D01*
X140509949Y-107729703D01*
X140509350Y-107718181D01*
X140508813Y-107703978D01*
X140508333Y-107686707D01*
X140507908Y-107665981D01*
X140507535Y-107641411D01*
X140507210Y-107612611D01*
X140506930Y-107579194D01*
X140506691Y-107540771D01*
X140506491Y-107496956D01*
X140506326Y-107447362D01*
X140506193Y-107391600D01*
X140506088Y-107329285D01*
X140506008Y-107260027D01*
X140505950Y-107183441D01*
X140505944Y-107169338D01*
X141153134Y-107169338D01*
X141153156Y-107171837D01*
X141156590Y-107222824D01*
X141165967Y-107267435D01*
X141181660Y-107306660D01*
X141204039Y-107341489D01*
X141225926Y-107365800D01*
X141261895Y-107395712D01*
X141299536Y-107416597D01*
X141339267Y-107428582D01*
X141381507Y-107431791D01*
X141426675Y-107426350D01*
X141427806Y-107426112D01*
X141469854Y-107412669D01*
X141507299Y-107391409D01*
X141539453Y-107362879D01*
X141565627Y-107327628D01*
X141576110Y-107307965D01*
X141588180Y-107280079D01*
X141596444Y-107254361D01*
X141601491Y-107227876D01*
X141603910Y-107197691D01*
X141604340Y-107167218D01*
X141601553Y-107116951D01*
X141593496Y-107073406D01*
X141579766Y-107035456D01*
X141559959Y-107001975D01*
X141534809Y-106972948D01*
X141505098Y-106947613D01*
X141473965Y-106929508D01*
X141439024Y-106917517D01*
X141402617Y-106911061D01*
X141360962Y-106910567D01*
X141320007Y-106918552D01*
X141281084Y-106934279D01*
X141245525Y-106957012D01*
X141214661Y-106986014D01*
X141189824Y-107020550D01*
X141183603Y-107032170D01*
X141168941Y-107065564D01*
X141159472Y-107097281D01*
X141154451Y-107130734D01*
X141153134Y-107169338D01*
X140505944Y-107169338D01*
X140505911Y-107099138D01*
X140505888Y-107006732D01*
X140505876Y-106905834D01*
X140505873Y-106804691D01*
X140505873Y-105878746D01*
X140519276Y-105837852D01*
X140539641Y-105790096D01*
X140567926Y-105745502D01*
X140603009Y-105705350D01*
X140643766Y-105670923D01*
X140689076Y-105643500D01*
X140689985Y-105643050D01*
X140712344Y-105632998D01*
X140736089Y-105623906D01*
X140757304Y-105617223D01*
X140764491Y-105615488D01*
X140793115Y-105611312D01*
X140826328Y-105609280D01*
X140860528Y-105609406D01*
G37*
X144225116Y-106345190D02*
X144295303Y-106345230D01*
X144357773Y-106345322D01*
X144413032Y-106345486D01*
X144461587Y-106345742D01*
X144503943Y-106346110D01*
X144540607Y-106346611D01*
X144572085Y-106347266D01*
X144598884Y-106348093D01*
X144621510Y-106349115D01*
X144640469Y-106350350D01*
X144656268Y-106351820D01*
X144669413Y-106353545D01*
X144680411Y-106355545D01*
X144689767Y-106357841D01*
X144697988Y-106360452D01*
X144705580Y-106363399D01*
X144713051Y-106366703D01*
X144720905Y-106370384D01*
X144724061Y-106371869D01*
X144756762Y-106391927D01*
X144786380Y-106419185D01*
X144811403Y-106451744D01*
X144830320Y-106487701D01*
X144840068Y-106517754D01*
X144843153Y-106539278D01*
X144844108Y-106565658D01*
X144843098Y-106593810D01*
X144840289Y-106620652D01*
X144835847Y-106643103D01*
X144832837Y-106652291D01*
X144825964Y-106666879D01*
X144816032Y-106685137D01*
X144805203Y-106703091D01*
X144799438Y-106710995D01*
X144788167Y-106725404D01*
X144771845Y-106745766D01*
X144750927Y-106771529D01*
X144725866Y-106802143D01*
X144697117Y-106837055D01*
X144665134Y-106875714D01*
X144630372Y-106917569D01*
X144593285Y-106962067D01*
X144554327Y-107008657D01*
X144513953Y-107056788D01*
X144510413Y-107061000D01*
X144234850Y-107388891D01*
X144460089Y-107391391D01*
X144512364Y-107392000D01*
X144556250Y-107392590D01*
X144592592Y-107393198D01*
X144622238Y-107393862D01*
X144646032Y-107394616D01*
X144664822Y-107395499D01*
X144679454Y-107396546D01*
X144690774Y-107397795D01*
X144699630Y-107399281D01*
X144706866Y-107401042D01*
X144710728Y-107402227D01*
X144758571Y-107422387D01*
X144801932Y-107449582D01*
X144839923Y-107482903D01*
X144871659Y-107521441D01*
X144896251Y-107564288D01*
X144912369Y-107608829D01*
X144917257Y-107635013D01*
X144919930Y-107666108D01*
X144920390Y-107698993D01*
X144918641Y-107730551D01*
X144914687Y-107757661D01*
X144912188Y-107767582D01*
X144893162Y-107815367D01*
X144866422Y-107859222D01*
X144832940Y-107898110D01*
X144793688Y-107930998D01*
X144749638Y-107956848D01*
X144724478Y-107967416D01*
X144689946Y-107980018D01*
X144075728Y-107980805D01*
X143984679Y-107980907D01*
X143902423Y-107980964D01*
X143828516Y-107980973D01*
X143762514Y-107980931D01*
X143703973Y-107980832D01*
X143652451Y-107980674D01*
X143607502Y-107980454D01*
X143568683Y-107980166D01*
X143535552Y-107979808D01*
X143507663Y-107979375D01*
X143484573Y-107978865D01*
X143465839Y-107978273D01*
X143451017Y-107977595D01*
X143439663Y-107976828D01*
X143431333Y-107975968D01*
X143427223Y-107975338D01*
X143382132Y-107962680D01*
X143341512Y-107942114D01*
X143305944Y-107913953D01*
X143298093Y-107905958D01*
X143272057Y-107874660D01*
X143253978Y-107844036D01*
X143243047Y-107811858D01*
X143238449Y-107775901D01*
X143238767Y-107743284D01*
X143245067Y-107694312D01*
X143258210Y-107650950D01*
X143278062Y-107613597D01*
X143285229Y-107603723D01*
X143291119Y-107596462D01*
X143302523Y-107582707D01*
X143318979Y-107563006D01*
X143340026Y-107537909D01*
X143365201Y-107507963D01*
X143394042Y-107473717D01*
X143426088Y-107435720D01*
X143460876Y-107394521D01*
X143497945Y-107350667D01*
X143536832Y-107304707D01*
X143576086Y-107258358D01*
X143615767Y-107211504D01*
X143653699Y-107166666D01*
X143689463Y-107124346D01*
X143722639Y-107085040D01*
X143752807Y-107049250D01*
X143779546Y-107017474D01*
X143802437Y-106990211D01*
X143821060Y-106967961D01*
X143834993Y-106951222D01*
X143843818Y-106940495D01*
X143847115Y-106936277D01*
X143847128Y-106936240D01*
X143842677Y-106935739D01*
X143829993Y-106935277D01*
X143810080Y-106934867D01*
X143783942Y-106934521D01*
X143752583Y-106934253D01*
X143717005Y-106934076D01*
X143678212Y-106934002D01*
X143671864Y-106934000D01*
X143622742Y-106933858D01*
X143579202Y-106933442D01*
X143541934Y-106932771D01*
X143511628Y-106931861D01*
X143488972Y-106930731D01*
X143474658Y-106929396D01*
X143472128Y-106928966D01*
X143456526Y-106924575D01*
X143436325Y-106917273D01*
X143415129Y-106908398D01*
X143408400Y-106905291D01*
X143388643Y-106895208D01*
X143372064Y-106884749D01*
X143355975Y-106871912D01*
X143337685Y-106854696D01*
X143329831Y-106846826D01*
X143295699Y-106807444D01*
X143270405Y-106766988D01*
X143253551Y-106724429D01*
X143244740Y-106678740D01*
X143243573Y-106628893D01*
X143243805Y-106624582D01*
X143245833Y-106601689D01*
X143248976Y-106578908D01*
X143252665Y-106560132D01*
X143253954Y-106555309D01*
X143272416Y-106508989D01*
X143298653Y-106466325D01*
X143331596Y-106428369D01*
X143370170Y-106396174D01*
X143413305Y-106370792D01*
X143459775Y-106353317D01*
X143464609Y-106352108D01*
X143470223Y-106351024D01*
X143477120Y-106350059D01*
X143485803Y-106349206D01*
X143496776Y-106348458D01*
X143510540Y-106347807D01*
X143527600Y-106347249D01*
X143548457Y-106346775D01*
X143573616Y-106346378D01*
X143603579Y-106346053D01*
X143638849Y-106345791D01*
X143679930Y-106345587D01*
X143727323Y-106345433D01*
X143781533Y-106345323D01*
X143843062Y-106345250D01*
X143912413Y-106345206D01*
X143990090Y-106345186D01*
X144059564Y-106345182D01*
X144146705Y-106345181D01*
X144225116Y-106345190D01*
G36*
X144225116Y-106345190D02*
G01*
X144295303Y-106345230D01*
X144357773Y-106345322D01*
X144413032Y-106345486D01*
X144461587Y-106345742D01*
X144503943Y-106346110D01*
X144540607Y-106346611D01*
X144572085Y-106347266D01*
X144598884Y-106348093D01*
X144621510Y-106349115D01*
X144640469Y-106350350D01*
X144656268Y-106351820D01*
X144669413Y-106353545D01*
X144680411Y-106355545D01*
X144689767Y-106357841D01*
X144697988Y-106360452D01*
X144705580Y-106363399D01*
X144713051Y-106366703D01*
X144720905Y-106370384D01*
X144724061Y-106371869D01*
X144756762Y-106391927D01*
X144786380Y-106419185D01*
X144811403Y-106451744D01*
X144830320Y-106487701D01*
X144840068Y-106517754D01*
X144843153Y-106539278D01*
X144844108Y-106565658D01*
X144843098Y-106593810D01*
X144840289Y-106620652D01*
X144835847Y-106643103D01*
X144832837Y-106652291D01*
X144825964Y-106666879D01*
X144816032Y-106685137D01*
X144805203Y-106703091D01*
X144799438Y-106710995D01*
X144788167Y-106725404D01*
X144771845Y-106745766D01*
X144750927Y-106771529D01*
X144725866Y-106802143D01*
X144697117Y-106837055D01*
X144665134Y-106875714D01*
X144630372Y-106917569D01*
X144593285Y-106962067D01*
X144554327Y-107008657D01*
X144513953Y-107056788D01*
X144510413Y-107061000D01*
X144234850Y-107388891D01*
X144460089Y-107391391D01*
X144512364Y-107392000D01*
X144556250Y-107392590D01*
X144592592Y-107393198D01*
X144622238Y-107393862D01*
X144646032Y-107394616D01*
X144664822Y-107395499D01*
X144679454Y-107396546D01*
X144690774Y-107397795D01*
X144699630Y-107399281D01*
X144706866Y-107401042D01*
X144710728Y-107402227D01*
X144758571Y-107422387D01*
X144801932Y-107449582D01*
X144839923Y-107482903D01*
X144871659Y-107521441D01*
X144896251Y-107564288D01*
X144912369Y-107608829D01*
X144917257Y-107635013D01*
X144919930Y-107666108D01*
X144920390Y-107698993D01*
X144918641Y-107730551D01*
X144914687Y-107757661D01*
X144912188Y-107767582D01*
X144893162Y-107815367D01*
X144866422Y-107859222D01*
X144832940Y-107898110D01*
X144793688Y-107930998D01*
X144749638Y-107956848D01*
X144724478Y-107967416D01*
X144689946Y-107980018D01*
X144075728Y-107980805D01*
X143984679Y-107980907D01*
X143902423Y-107980964D01*
X143828516Y-107980973D01*
X143762514Y-107980931D01*
X143703973Y-107980832D01*
X143652451Y-107980674D01*
X143607502Y-107980454D01*
X143568683Y-107980166D01*
X143535552Y-107979808D01*
X143507663Y-107979375D01*
X143484573Y-107978865D01*
X143465839Y-107978273D01*
X143451017Y-107977595D01*
X143439663Y-107976828D01*
X143431333Y-107975968D01*
X143427223Y-107975338D01*
X143382132Y-107962680D01*
X143341512Y-107942114D01*
X143305944Y-107913953D01*
X143298093Y-107905958D01*
X143272057Y-107874660D01*
X143253978Y-107844036D01*
X143243047Y-107811858D01*
X143238449Y-107775901D01*
X143238767Y-107743284D01*
X143245067Y-107694312D01*
X143258210Y-107650950D01*
X143278062Y-107613597D01*
X143285229Y-107603723D01*
X143291119Y-107596462D01*
X143302523Y-107582707D01*
X143318979Y-107563006D01*
X143340026Y-107537909D01*
X143365201Y-107507963D01*
X143394042Y-107473717D01*
X143426088Y-107435720D01*
X143460876Y-107394521D01*
X143497945Y-107350667D01*
X143536832Y-107304707D01*
X143576086Y-107258358D01*
X143615767Y-107211504D01*
X143653699Y-107166666D01*
X143689463Y-107124346D01*
X143722639Y-107085040D01*
X143752807Y-107049250D01*
X143779546Y-107017474D01*
X143802437Y-106990211D01*
X143821060Y-106967961D01*
X143834993Y-106951222D01*
X143843818Y-106940495D01*
X143847115Y-106936277D01*
X143847128Y-106936240D01*
X143842677Y-106935739D01*
X143829993Y-106935277D01*
X143810080Y-106934867D01*
X143783942Y-106934521D01*
X143752583Y-106934253D01*
X143717005Y-106934076D01*
X143678212Y-106934002D01*
X143671864Y-106934000D01*
X143622742Y-106933858D01*
X143579202Y-106933442D01*
X143541934Y-106932771D01*
X143511628Y-106931861D01*
X143488972Y-106930731D01*
X143474658Y-106929396D01*
X143472128Y-106928966D01*
X143456526Y-106924575D01*
X143436325Y-106917273D01*
X143415129Y-106908398D01*
X143408400Y-106905291D01*
X143388643Y-106895208D01*
X143372064Y-106884749D01*
X143355975Y-106871912D01*
X143337685Y-106854696D01*
X143329831Y-106846826D01*
X143295699Y-106807444D01*
X143270405Y-106766988D01*
X143253551Y-106724429D01*
X143244740Y-106678740D01*
X143243573Y-106628893D01*
X143243805Y-106624582D01*
X143245833Y-106601689D01*
X143248976Y-106578908D01*
X143252665Y-106560132D01*
X143253954Y-106555309D01*
X143272416Y-106508989D01*
X143298653Y-106466325D01*
X143331596Y-106428369D01*
X143370170Y-106396174D01*
X143413305Y-106370792D01*
X143459775Y-106353317D01*
X143464609Y-106352108D01*
X143470223Y-106351024D01*
X143477120Y-106350059D01*
X143485803Y-106349206D01*
X143496776Y-106348458D01*
X143510540Y-106347807D01*
X143527600Y-106347249D01*
X143548457Y-106346775D01*
X143573616Y-106346378D01*
X143603579Y-106346053D01*
X143638849Y-106345791D01*
X143679930Y-106345587D01*
X143727323Y-106345433D01*
X143781533Y-106345323D01*
X143843062Y-106345250D01*
X143912413Y-106345206D01*
X143990090Y-106345186D01*
X144059564Y-106345182D01*
X144146705Y-106345181D01*
X144225116Y-106345190D01*
G37*
X143839071Y-103877398D02*
X143906798Y-103877508D01*
X143982692Y-103877669D01*
X144067252Y-103877875D01*
X144080346Y-103877908D01*
X144166109Y-103878138D01*
X144243125Y-103878367D01*
X144311882Y-103878603D01*
X144372870Y-103878853D01*
X144426578Y-103879124D01*
X144473494Y-103879424D01*
X144514108Y-103879760D01*
X144548908Y-103880138D01*
X144578383Y-103880567D01*
X144603023Y-103881054D01*
X144623316Y-103881606D01*
X144639752Y-103882230D01*
X144652819Y-103882934D01*
X144663006Y-103883725D01*
X144670802Y-103884611D01*
X144676697Y-103885597D01*
X144681179Y-103886693D01*
X144681837Y-103886891D01*
X144714874Y-103899016D01*
X144742239Y-103913869D01*
X144767476Y-103933569D01*
X144780246Y-103945741D01*
X144808807Y-103979359D01*
X144828687Y-104014806D01*
X144840426Y-104053378D01*
X144844564Y-104096372D01*
X144844583Y-104100325D01*
X144842315Y-104139549D01*
X144835137Y-104173616D01*
X144822237Y-104205648D01*
X144812666Y-104223097D01*
X144806686Y-104231688D01*
X144795139Y-104246825D01*
X144778433Y-104268011D01*
X144756975Y-104294746D01*
X144731172Y-104326534D01*
X144701432Y-104362876D01*
X144668162Y-104403274D01*
X144631769Y-104447230D01*
X144592660Y-104494246D01*
X144551244Y-104543824D01*
X144514135Y-104588078D01*
X144473958Y-104635933D01*
X144435513Y-104681773D01*
X144399212Y-104725106D01*
X144365464Y-104765439D01*
X144334681Y-104802279D01*
X144307273Y-104835133D01*
X144283652Y-104863510D01*
X144264229Y-104886915D01*
X144249413Y-104904858D01*
X144239617Y-104916845D01*
X144235250Y-104922383D01*
X144235055Y-104922705D01*
X144239523Y-104923187D01*
X144252324Y-104923636D01*
X144272558Y-104924042D01*
X144299321Y-104924397D01*
X144331710Y-104924688D01*
X144368825Y-104924908D01*
X144409762Y-104925046D01*
X144451882Y-104925091D01*
X144511817Y-104925212D01*
X144563711Y-104925571D01*
X144607352Y-104926164D01*
X144642530Y-104926986D01*
X144669033Y-104928033D01*
X144686649Y-104929301D01*
X144693182Y-104930230D01*
X144738308Y-104944260D01*
X144781021Y-104966311D01*
X144820069Y-104995248D01*
X144854197Y-105029934D01*
X144882154Y-105069235D01*
X144902685Y-105112016D01*
X144906685Y-105123673D01*
X144918474Y-105175408D01*
X144921501Y-105226442D01*
X144916203Y-105275954D01*
X144903013Y-105323124D01*
X144882370Y-105367130D01*
X144854708Y-105407153D01*
X144820464Y-105442372D01*
X144780074Y-105471966D01*
X144733973Y-105495115D01*
X144703800Y-105505555D01*
X144699290Y-105506736D01*
X144693942Y-105507798D01*
X144687266Y-105508749D01*
X144678771Y-105509594D01*
X144667968Y-105510341D01*
X144654366Y-105510998D01*
X144637475Y-105511570D01*
X144616804Y-105512064D01*
X144591863Y-105512488D01*
X144562162Y-105512849D01*
X144527210Y-105513153D01*
X144486518Y-105513407D01*
X144439595Y-105513618D01*
X144385950Y-105513793D01*
X144325093Y-105513939D01*
X144256534Y-105514062D01*
X144179783Y-105514171D01*
X144094349Y-105514271D01*
X144082655Y-105514283D01*
X144009086Y-105514349D01*
X143937895Y-105514386D01*
X143869646Y-105514397D01*
X143804906Y-105514381D01*
X143744239Y-105514340D01*
X143688211Y-105514275D01*
X143637387Y-105514188D01*
X143592333Y-105514078D01*
X143553615Y-105513946D01*
X143521797Y-105513795D01*
X143497445Y-105513625D01*
X143481124Y-105513437D01*
X143473400Y-105513231D01*
X143473055Y-105513203D01*
X143433222Y-105507611D01*
X143399832Y-105499723D01*
X143370237Y-105488868D01*
X143362327Y-105485234D01*
X143327036Y-105463881D01*
X143295809Y-105436261D01*
X143270024Y-105404024D01*
X143251057Y-105368820D01*
X143242100Y-105341305D01*
X143238084Y-105309982D01*
X143238814Y-105274236D01*
X143243801Y-105236841D01*
X143252556Y-105200575D01*
X143264590Y-105168215D01*
X143276343Y-105146866D01*
X143280873Y-105141035D01*
X143290947Y-105128683D01*
X143306130Y-105110330D01*
X143325986Y-105086494D01*
X143350079Y-105057695D01*
X143377974Y-105024452D01*
X143409235Y-104987282D01*
X143443427Y-104946707D01*
X143480115Y-104903243D01*
X143518861Y-104857411D01*
X143559232Y-104809729D01*
X143567137Y-104800400D01*
X143846991Y-104470200D01*
X143663487Y-104467644D01*
X143614927Y-104466948D01*
X143574548Y-104466242D01*
X143541292Y-104465384D01*
X143514105Y-104464231D01*
X143491929Y-104462641D01*
X143473711Y-104460473D01*
X143458393Y-104457584D01*
X143444920Y-104453832D01*
X143432237Y-104449075D01*
X143419287Y-104443171D01*
X143405015Y-104435977D01*
X143396855Y-104431749D01*
X143366544Y-104412412D01*
X143334960Y-104385457D01*
X143329455Y-104380084D01*
X143295984Y-104340532D01*
X143270461Y-104296823D01*
X143253095Y-104249839D01*
X143244096Y-104200465D01*
X143243673Y-104149585D01*
X143252035Y-104098082D01*
X143257838Y-104077655D01*
X143276776Y-104033053D01*
X143303377Y-103992049D01*
X143336473Y-103955712D01*
X143374898Y-103925107D01*
X143417487Y-103901304D01*
X143463073Y-103885369D01*
X143469575Y-103883838D01*
X143475252Y-103882737D01*
X143482124Y-103881754D01*
X143490689Y-103880884D01*
X143501444Y-103880122D01*
X143514889Y-103879464D01*
X143531521Y-103878905D01*
X143551837Y-103878439D01*
X143576337Y-103878062D01*
X143605518Y-103877769D01*
X143639878Y-103877556D01*
X143679915Y-103877417D01*
X143726128Y-103877347D01*
X143779014Y-103877342D01*
X143839071Y-103877398D01*
G36*
X143839071Y-103877398D02*
G01*
X143906798Y-103877508D01*
X143982692Y-103877669D01*
X144067252Y-103877875D01*
X144080346Y-103877908D01*
X144166109Y-103878138D01*
X144243125Y-103878367D01*
X144311882Y-103878603D01*
X144372870Y-103878853D01*
X144426578Y-103879124D01*
X144473494Y-103879424D01*
X144514108Y-103879760D01*
X144548908Y-103880138D01*
X144578383Y-103880567D01*
X144603023Y-103881054D01*
X144623316Y-103881606D01*
X144639752Y-103882230D01*
X144652819Y-103882934D01*
X144663006Y-103883725D01*
X144670802Y-103884611D01*
X144676697Y-103885597D01*
X144681179Y-103886693D01*
X144681837Y-103886891D01*
X144714874Y-103899016D01*
X144742239Y-103913869D01*
X144767476Y-103933569D01*
X144780246Y-103945741D01*
X144808807Y-103979359D01*
X144828687Y-104014806D01*
X144840426Y-104053378D01*
X144844564Y-104096372D01*
X144844583Y-104100325D01*
X144842315Y-104139549D01*
X144835137Y-104173616D01*
X144822237Y-104205648D01*
X144812666Y-104223097D01*
X144806686Y-104231688D01*
X144795139Y-104246825D01*
X144778433Y-104268011D01*
X144756975Y-104294746D01*
X144731172Y-104326534D01*
X144701432Y-104362876D01*
X144668162Y-104403274D01*
X144631769Y-104447230D01*
X144592660Y-104494246D01*
X144551244Y-104543824D01*
X144514135Y-104588078D01*
X144473958Y-104635933D01*
X144435513Y-104681773D01*
X144399212Y-104725106D01*
X144365464Y-104765439D01*
X144334681Y-104802279D01*
X144307273Y-104835133D01*
X144283652Y-104863510D01*
X144264229Y-104886915D01*
X144249413Y-104904858D01*
X144239617Y-104916845D01*
X144235250Y-104922383D01*
X144235055Y-104922705D01*
X144239523Y-104923187D01*
X144252324Y-104923636D01*
X144272558Y-104924042D01*
X144299321Y-104924397D01*
X144331710Y-104924688D01*
X144368825Y-104924908D01*
X144409762Y-104925046D01*
X144451882Y-104925091D01*
X144511817Y-104925212D01*
X144563711Y-104925571D01*
X144607352Y-104926164D01*
X144642530Y-104926986D01*
X144669033Y-104928033D01*
X144686649Y-104929301D01*
X144693182Y-104930230D01*
X144738308Y-104944260D01*
X144781021Y-104966311D01*
X144820069Y-104995248D01*
X144854197Y-105029934D01*
X144882154Y-105069235D01*
X144902685Y-105112016D01*
X144906685Y-105123673D01*
X144918474Y-105175408D01*
X144921501Y-105226442D01*
X144916203Y-105275954D01*
X144903013Y-105323124D01*
X144882370Y-105367130D01*
X144854708Y-105407153D01*
X144820464Y-105442372D01*
X144780074Y-105471966D01*
X144733973Y-105495115D01*
X144703800Y-105505555D01*
X144699290Y-105506736D01*
X144693942Y-105507798D01*
X144687266Y-105508749D01*
X144678771Y-105509594D01*
X144667968Y-105510341D01*
X144654366Y-105510998D01*
X144637475Y-105511570D01*
X144616804Y-105512064D01*
X144591863Y-105512488D01*
X144562162Y-105512849D01*
X144527210Y-105513153D01*
X144486518Y-105513407D01*
X144439595Y-105513618D01*
X144385950Y-105513793D01*
X144325093Y-105513939D01*
X144256534Y-105514062D01*
X144179783Y-105514171D01*
X144094349Y-105514271D01*
X144082655Y-105514283D01*
X144009086Y-105514349D01*
X143937895Y-105514386D01*
X143869646Y-105514397D01*
X143804906Y-105514381D01*
X143744239Y-105514340D01*
X143688211Y-105514275D01*
X143637387Y-105514188D01*
X143592333Y-105514078D01*
X143553615Y-105513946D01*
X143521797Y-105513795D01*
X143497445Y-105513625D01*
X143481124Y-105513437D01*
X143473400Y-105513231D01*
X143473055Y-105513203D01*
X143433222Y-105507611D01*
X143399832Y-105499723D01*
X143370237Y-105488868D01*
X143362327Y-105485234D01*
X143327036Y-105463881D01*
X143295809Y-105436261D01*
X143270024Y-105404024D01*
X143251057Y-105368820D01*
X143242100Y-105341305D01*
X143238084Y-105309982D01*
X143238814Y-105274236D01*
X143243801Y-105236841D01*
X143252556Y-105200575D01*
X143264590Y-105168215D01*
X143276343Y-105146866D01*
X143280873Y-105141035D01*
X143290947Y-105128683D01*
X143306130Y-105110330D01*
X143325986Y-105086494D01*
X143350079Y-105057695D01*
X143377974Y-105024452D01*
X143409235Y-104987282D01*
X143443427Y-104946707D01*
X143480115Y-104903243D01*
X143518861Y-104857411D01*
X143559232Y-104809729D01*
X143567137Y-104800400D01*
X143846991Y-104470200D01*
X143663487Y-104467644D01*
X143614927Y-104466948D01*
X143574548Y-104466242D01*
X143541292Y-104465384D01*
X143514105Y-104464231D01*
X143491929Y-104462641D01*
X143473711Y-104460473D01*
X143458393Y-104457584D01*
X143444920Y-104453832D01*
X143432237Y-104449075D01*
X143419287Y-104443171D01*
X143405015Y-104435977D01*
X143396855Y-104431749D01*
X143366544Y-104412412D01*
X143334960Y-104385457D01*
X143329455Y-104380084D01*
X143295984Y-104340532D01*
X143270461Y-104296823D01*
X143253095Y-104249839D01*
X143244096Y-104200465D01*
X143243673Y-104149585D01*
X143252035Y-104098082D01*
X143257838Y-104077655D01*
X143276776Y-104033053D01*
X143303377Y-103992049D01*
X143336473Y-103955712D01*
X143374898Y-103925107D01*
X143417487Y-103901304D01*
X143463073Y-103885369D01*
X143469575Y-103883838D01*
X143475252Y-103882737D01*
X143482124Y-103881754D01*
X143490689Y-103880884D01*
X143501444Y-103880122D01*
X143514889Y-103879464D01*
X143531521Y-103878905D01*
X143551837Y-103878439D01*
X143576337Y-103878062D01*
X143605518Y-103877769D01*
X143639878Y-103877556D01*
X143679915Y-103877417D01*
X143726128Y-103877347D01*
X143779014Y-103877342D01*
X143839071Y-103877398D01*
G37*
X145524386Y-103877226D02*
X145587716Y-103877318D01*
X145658794Y-103877479D01*
X145738124Y-103877688D01*
X145821400Y-103877908D01*
X145907295Y-103878124D01*
X145984463Y-103878318D01*
X146053411Y-103878511D01*
X146114647Y-103878721D01*
X146168681Y-103878970D01*
X146216021Y-103879277D01*
X146257175Y-103879662D01*
X146292652Y-103880144D01*
X146322960Y-103880743D01*
X146348607Y-103881480D01*
X146370101Y-103882374D01*
X146387952Y-103883445D01*
X146402668Y-103884713D01*
X146414757Y-103886198D01*
X146424727Y-103887919D01*
X146433087Y-103889896D01*
X146440345Y-103892150D01*
X146447010Y-103894700D01*
X146453590Y-103897565D01*
X146460593Y-103900767D01*
X146465660Y-103903058D01*
X146487348Y-103915783D01*
X146510552Y-103934501D01*
X146532757Y-103956898D01*
X146551445Y-103980656D01*
X146553665Y-103984003D01*
X146569400Y-104012956D01*
X146579516Y-104043441D01*
X146584541Y-104077719D01*
X146585009Y-104117959D01*
X146583926Y-104140663D01*
X146582197Y-104157202D01*
X146579117Y-104170650D01*
X146573984Y-104184078D01*
X146566148Y-104200457D01*
X146555147Y-104220762D01*
X146542477Y-104241583D01*
X146530812Y-104258532D01*
X146530426Y-104259039D01*
X146524721Y-104266150D01*
X146513527Y-104279780D01*
X146497304Y-104299378D01*
X146476510Y-104324396D01*
X146451602Y-104354285D01*
X146423041Y-104388494D01*
X146391284Y-104426477D01*
X146356789Y-104467682D01*
X146320015Y-104511560D01*
X146281422Y-104557564D01*
X146243188Y-104603094D01*
X145974598Y-104922782D01*
X146205108Y-104925311D01*
X146258618Y-104925905D01*
X146303778Y-104926468D01*
X146341471Y-104927087D01*
X146372583Y-104927843D01*
X146397998Y-104928821D01*
X146418602Y-104930105D01*
X146435278Y-104931778D01*
X146448913Y-104933924D01*
X146460390Y-104936628D01*
X146470594Y-104939972D01*
X146480411Y-104944041D01*
X146490725Y-104948919D01*
X146499365Y-104953181D01*
X146543362Y-104979887D01*
X146581317Y-105013083D01*
X146612708Y-105051854D01*
X146637012Y-105095284D01*
X146653706Y-105142456D01*
X146662267Y-105192454D01*
X146662585Y-105239127D01*
X146656175Y-105286654D01*
X146643476Y-105329053D01*
X146623561Y-105368718D01*
X146598748Y-105403997D01*
X146563346Y-105441301D01*
X146521801Y-105471808D01*
X146474472Y-105495280D01*
X146444855Y-105505478D01*
X146440362Y-105506671D01*
X146435080Y-105507745D01*
X146428515Y-105508704D01*
X146420176Y-105509558D01*
X146409573Y-105510311D01*
X146396211Y-105510973D01*
X146379601Y-105511549D01*
X146359251Y-105512046D01*
X146334667Y-105512471D01*
X146305359Y-105512832D01*
X146270836Y-105513136D01*
X146230604Y-105513388D01*
X146184173Y-105513597D01*
X146131051Y-105513769D01*
X146070745Y-105513912D01*
X146002765Y-105514031D01*
X145926617Y-105514135D01*
X145841812Y-105514229D01*
X145826019Y-105514245D01*
X145752544Y-105514307D01*
X145681416Y-105514341D01*
X145613203Y-105514349D01*
X145548475Y-105514332D01*
X145487800Y-105514291D01*
X145431750Y-105514226D01*
X145380892Y-105514139D01*
X145335798Y-105514030D01*
X145297035Y-105513901D01*
X145265174Y-105513753D01*
X145240784Y-105513586D01*
X145224435Y-105513403D01*
X145216696Y-105513202D01*
X145216419Y-105513182D01*
X145168071Y-105506382D01*
X145126649Y-105495020D01*
X145090746Y-105478519D01*
X145058958Y-105456306D01*
X145043842Y-105442557D01*
X145014712Y-105407586D01*
X144993102Y-105367845D01*
X144983311Y-105339485D01*
X144979491Y-105314945D01*
X144979166Y-105284877D01*
X144982100Y-105252204D01*
X144988059Y-105219848D01*
X144994889Y-105196023D01*
X144997144Y-105189357D01*
X144999199Y-105183375D01*
X145001401Y-105177641D01*
X145004098Y-105171718D01*
X145007640Y-105165169D01*
X145012373Y-105157555D01*
X145018646Y-105148439D01*
X145026807Y-105137385D01*
X145037205Y-105123955D01*
X145050186Y-105107711D01*
X145066101Y-105088216D01*
X145085296Y-105065033D01*
X145108120Y-105037724D01*
X145134920Y-105005852D01*
X145166046Y-104968980D01*
X145201845Y-104926670D01*
X145242665Y-104878484D01*
X145288854Y-104823987D01*
X145324501Y-104781927D01*
X145588678Y-104470200D01*
X145404857Y-104467651D01*
X145358448Y-104466983D01*
X145320281Y-104466350D01*
X145289363Y-104465695D01*
X145264702Y-104464958D01*
X145245303Y-104464082D01*
X145230174Y-104463008D01*
X145218322Y-104461677D01*
X145208752Y-104460031D01*
X145200473Y-104458012D01*
X145192490Y-104455561D01*
X145191019Y-104455073D01*
X145144911Y-104435008D01*
X145102465Y-104407350D01*
X145064808Y-104373241D01*
X145033067Y-104333819D01*
X145008370Y-104290224D01*
X144995854Y-104257764D01*
X144989610Y-104229786D01*
X144986107Y-104196537D01*
X144985381Y-104161309D01*
X144987463Y-104127395D01*
X144992388Y-104098089D01*
X144994174Y-104091509D01*
X145011359Y-104047983D01*
X145035541Y-104006572D01*
X145065353Y-103968956D01*
X145099429Y-103936811D01*
X145136401Y-103911813D01*
X145143761Y-103907950D01*
X145152655Y-103903439D01*
X145160710Y-103899378D01*
X145168433Y-103895745D01*
X145176327Y-103892516D01*
X145184898Y-103889671D01*
X145194651Y-103887185D01*
X145206091Y-103885038D01*
X145219723Y-103883206D01*
X145236052Y-103881668D01*
X145255584Y-103880400D01*
X145278822Y-103879380D01*
X145306273Y-103878587D01*
X145338441Y-103877997D01*
X145375831Y-103877588D01*
X145418949Y-103877338D01*
X145468299Y-103877225D01*
X145524386Y-103877226D01*
G36*
X145524386Y-103877226D02*
G01*
X145587716Y-103877318D01*
X145658794Y-103877479D01*
X145738124Y-103877688D01*
X145821400Y-103877908D01*
X145907295Y-103878124D01*
X145984463Y-103878318D01*
X146053411Y-103878511D01*
X146114647Y-103878721D01*
X146168681Y-103878970D01*
X146216021Y-103879277D01*
X146257175Y-103879662D01*
X146292652Y-103880144D01*
X146322960Y-103880743D01*
X146348607Y-103881480D01*
X146370101Y-103882374D01*
X146387952Y-103883445D01*
X146402668Y-103884713D01*
X146414757Y-103886198D01*
X146424727Y-103887919D01*
X146433087Y-103889896D01*
X146440345Y-103892150D01*
X146447010Y-103894700D01*
X146453590Y-103897565D01*
X146460593Y-103900767D01*
X146465660Y-103903058D01*
X146487348Y-103915783D01*
X146510552Y-103934501D01*
X146532757Y-103956898D01*
X146551445Y-103980656D01*
X146553665Y-103984003D01*
X146569400Y-104012956D01*
X146579516Y-104043441D01*
X146584541Y-104077719D01*
X146585009Y-104117959D01*
X146583926Y-104140663D01*
X146582197Y-104157202D01*
X146579117Y-104170650D01*
X146573984Y-104184078D01*
X146566148Y-104200457D01*
X146555147Y-104220762D01*
X146542477Y-104241583D01*
X146530812Y-104258532D01*
X146530426Y-104259039D01*
X146524721Y-104266150D01*
X146513527Y-104279780D01*
X146497304Y-104299378D01*
X146476510Y-104324396D01*
X146451602Y-104354285D01*
X146423041Y-104388494D01*
X146391284Y-104426477D01*
X146356789Y-104467682D01*
X146320015Y-104511560D01*
X146281422Y-104557564D01*
X146243188Y-104603094D01*
X145974598Y-104922782D01*
X146205108Y-104925311D01*
X146258618Y-104925905D01*
X146303778Y-104926468D01*
X146341471Y-104927087D01*
X146372583Y-104927843D01*
X146397998Y-104928821D01*
X146418602Y-104930105D01*
X146435278Y-104931778D01*
X146448913Y-104933924D01*
X146460390Y-104936628D01*
X146470594Y-104939972D01*
X146480411Y-104944041D01*
X146490725Y-104948919D01*
X146499365Y-104953181D01*
X146543362Y-104979887D01*
X146581317Y-105013083D01*
X146612708Y-105051854D01*
X146637012Y-105095284D01*
X146653706Y-105142456D01*
X146662267Y-105192454D01*
X146662585Y-105239127D01*
X146656175Y-105286654D01*
X146643476Y-105329053D01*
X146623561Y-105368718D01*
X146598748Y-105403997D01*
X146563346Y-105441301D01*
X146521801Y-105471808D01*
X146474472Y-105495280D01*
X146444855Y-105505478D01*
X146440362Y-105506671D01*
X146435080Y-105507745D01*
X146428515Y-105508704D01*
X146420176Y-105509558D01*
X146409573Y-105510311D01*
X146396211Y-105510973D01*
X146379601Y-105511549D01*
X146359251Y-105512046D01*
X146334667Y-105512471D01*
X146305359Y-105512832D01*
X146270836Y-105513136D01*
X146230604Y-105513388D01*
X146184173Y-105513597D01*
X146131051Y-105513769D01*
X146070745Y-105513912D01*
X146002765Y-105514031D01*
X145926617Y-105514135D01*
X145841812Y-105514229D01*
X145826019Y-105514245D01*
X145752544Y-105514307D01*
X145681416Y-105514341D01*
X145613203Y-105514349D01*
X145548475Y-105514332D01*
X145487800Y-105514291D01*
X145431750Y-105514226D01*
X145380892Y-105514139D01*
X145335798Y-105514030D01*
X145297035Y-105513901D01*
X145265174Y-105513753D01*
X145240784Y-105513586D01*
X145224435Y-105513403D01*
X145216696Y-105513202D01*
X145216419Y-105513182D01*
X145168071Y-105506382D01*
X145126649Y-105495020D01*
X145090746Y-105478519D01*
X145058958Y-105456306D01*
X145043842Y-105442557D01*
X145014712Y-105407586D01*
X144993102Y-105367845D01*
X144983311Y-105339485D01*
X144979491Y-105314945D01*
X144979166Y-105284877D01*
X144982100Y-105252204D01*
X144988059Y-105219848D01*
X144994889Y-105196023D01*
X144997144Y-105189357D01*
X144999199Y-105183375D01*
X145001401Y-105177641D01*
X145004098Y-105171718D01*
X145007640Y-105165169D01*
X145012373Y-105157555D01*
X145018646Y-105148439D01*
X145026807Y-105137385D01*
X145037205Y-105123955D01*
X145050186Y-105107711D01*
X145066101Y-105088216D01*
X145085296Y-105065033D01*
X145108120Y-105037724D01*
X145134920Y-105005852D01*
X145166046Y-104968980D01*
X145201845Y-104926670D01*
X145242665Y-104878484D01*
X145288854Y-104823987D01*
X145324501Y-104781927D01*
X145588678Y-104470200D01*
X145404857Y-104467651D01*
X145358448Y-104466983D01*
X145320281Y-104466350D01*
X145289363Y-104465695D01*
X145264702Y-104464958D01*
X145245303Y-104464082D01*
X145230174Y-104463008D01*
X145218322Y-104461677D01*
X145208752Y-104460031D01*
X145200473Y-104458012D01*
X145192490Y-104455561D01*
X145191019Y-104455073D01*
X145144911Y-104435008D01*
X145102465Y-104407350D01*
X145064808Y-104373241D01*
X145033067Y-104333819D01*
X145008370Y-104290224D01*
X144995854Y-104257764D01*
X144989610Y-104229786D01*
X144986107Y-104196537D01*
X144985381Y-104161309D01*
X144987463Y-104127395D01*
X144992388Y-104098089D01*
X144994174Y-104091509D01*
X145011359Y-104047983D01*
X145035541Y-104006572D01*
X145065353Y-103968956D01*
X145099429Y-103936811D01*
X145136401Y-103911813D01*
X145143761Y-103907950D01*
X145152655Y-103903439D01*
X145160710Y-103899378D01*
X145168433Y-103895745D01*
X145176327Y-103892516D01*
X145184898Y-103889671D01*
X145194651Y-103887185D01*
X145206091Y-103885038D01*
X145219723Y-103883206D01*
X145236052Y-103881668D01*
X145255584Y-103880400D01*
X145278822Y-103879380D01*
X145306273Y-103878587D01*
X145338441Y-103877997D01*
X145375831Y-103877588D01*
X145418949Y-103877338D01*
X145468299Y-103877225D01*
X145524386Y-103877226D01*
G37*
X145706923Y-106345169D02*
X145792506Y-106345182D01*
X145800619Y-106345182D01*
X145888199Y-106345198D01*
X145967004Y-106345251D01*
X146037495Y-106345344D01*
X146100134Y-106345482D01*
X146155380Y-106345671D01*
X146203696Y-106345915D01*
X146245542Y-106346220D01*
X146281380Y-106346589D01*
X146311671Y-106347028D01*
X146336876Y-106347541D01*
X146357456Y-106348134D01*
X146373872Y-106348812D01*
X146386585Y-106349578D01*
X146396057Y-106350438D01*
X146402748Y-106351397D01*
X146403291Y-106351501D01*
X146448488Y-106364543D01*
X146488022Y-106384873D01*
X146521839Y-106412451D01*
X146549886Y-106447238D01*
X146565229Y-106474160D01*
X146573416Y-106491309D01*
X146578770Y-106504944D01*
X146581990Y-106518107D01*
X146583776Y-106533839D01*
X146584825Y-106555180D01*
X146585001Y-106560187D01*
X146584890Y-106595724D01*
X146581354Y-106625412D01*
X146573646Y-106652244D01*
X146561016Y-106679210D01*
X146550875Y-106696522D01*
X146544963Y-106704811D01*
X146533545Y-106719599D01*
X146517076Y-106740332D01*
X146496011Y-106766456D01*
X146470805Y-106797414D01*
X146441914Y-106832651D01*
X146409792Y-106871614D01*
X146374895Y-106913747D01*
X146337679Y-106958494D01*
X146298597Y-107005301D01*
X146258106Y-107053613D01*
X146253540Y-107059049D01*
X145976453Y-107388891D01*
X146201417Y-107391200D01*
X146426382Y-107393509D01*
X146463328Y-107406500D01*
X146485502Y-107415435D01*
X146508787Y-107426611D01*
X146528309Y-107437683D01*
X146529080Y-107438179D01*
X146555163Y-107457888D01*
X146581472Y-107482604D01*
X146605291Y-107509493D01*
X146623907Y-107535719D01*
X146626207Y-107539639D01*
X146646037Y-107583632D01*
X146658318Y-107631302D01*
X146663005Y-107680939D01*
X146660056Y-107730839D01*
X146649426Y-107779293D01*
X146633374Y-107820015D01*
X146613995Y-107851946D01*
X146588032Y-107883770D01*
X146557843Y-107913127D01*
X146525789Y-107937656D01*
X146501986Y-107951444D01*
X146493313Y-107955756D01*
X146485445Y-107959646D01*
X146477887Y-107963135D01*
X146470144Y-107966245D01*
X146461723Y-107968996D01*
X146452128Y-107971411D01*
X146440865Y-107973510D01*
X146427439Y-107975316D01*
X146411357Y-107976849D01*
X146392124Y-107978132D01*
X146369244Y-107979186D01*
X146342224Y-107980032D01*
X146310569Y-107980692D01*
X146273785Y-107981187D01*
X146231377Y-107981539D01*
X146182850Y-107981769D01*
X146127710Y-107981899D01*
X146065463Y-107981950D01*
X145995615Y-107981945D01*
X145917669Y-107981903D01*
X145831133Y-107981847D01*
X145802928Y-107981830D01*
X145712578Y-107981763D01*
X145631023Y-107981666D01*
X145557819Y-107981533D01*
X145492523Y-107981360D01*
X145434693Y-107981143D01*
X145383886Y-107980876D01*
X145339660Y-107980557D01*
X145301572Y-107980179D01*
X145269180Y-107979738D01*
X145242040Y-107979229D01*
X145219711Y-107978649D01*
X145201749Y-107977993D01*
X145187712Y-107977255D01*
X145177158Y-107976431D01*
X145169644Y-107975518D01*
X145168068Y-107975253D01*
X145125485Y-107963292D01*
X145086242Y-107943951D01*
X145051434Y-107918224D01*
X145022154Y-107887103D01*
X144999494Y-107851580D01*
X144984547Y-107812649D01*
X144983227Y-107807385D01*
X144979258Y-107775962D01*
X144980294Y-107739995D01*
X144985803Y-107702326D01*
X144995256Y-107665794D01*
X145008123Y-107633241D01*
X145019359Y-107613636D01*
X145024105Y-107607535D01*
X145034392Y-107594922D01*
X145049778Y-107576323D01*
X145069824Y-107552262D01*
X145094086Y-107523265D01*
X145122126Y-107489857D01*
X145153501Y-107452565D01*
X145187770Y-107411913D01*
X145224493Y-107368426D01*
X145263227Y-107322631D01*
X145303533Y-107275053D01*
X145308782Y-107268862D01*
X145348961Y-107221457D01*
X145387424Y-107176029D01*
X145423752Y-107133078D01*
X145457527Y-107093100D01*
X145488330Y-107056592D01*
X145515741Y-107024052D01*
X145539343Y-106995976D01*
X145558716Y-106972863D01*
X145573442Y-106955208D01*
X145583101Y-106943510D01*
X145587276Y-106938266D01*
X145587412Y-106938047D01*
X145583313Y-106937121D01*
X145570900Y-106936276D01*
X145551096Y-106935533D01*
X145524824Y-106934912D01*
X145493006Y-106934436D01*
X145456566Y-106934125D01*
X145416426Y-106934001D01*
X145411737Y-106934000D01*
X145362731Y-106933954D01*
X145321900Y-106933737D01*
X145288182Y-106933227D01*
X145260514Y-106932306D01*
X145237837Y-106930851D01*
X145219088Y-106928744D01*
X145203205Y-106925864D01*
X145189127Y-106922091D01*
X145175792Y-106917304D01*
X145162139Y-106911383D01*
X145147106Y-106904208D01*
X145146613Y-106903967D01*
X145118512Y-106887214D01*
X145089254Y-106864558D01*
X145061603Y-106838459D01*
X145038325Y-106811377D01*
X145031234Y-106801388D01*
X145008275Y-106758675D01*
X144993052Y-106712274D01*
X144985590Y-106663579D01*
X144985911Y-106613984D01*
X144994040Y-106564885D01*
X145010000Y-106517674D01*
X145025865Y-106486463D01*
X145043875Y-106460899D01*
X145067579Y-106434440D01*
X145094333Y-106409619D01*
X145121495Y-106388964D01*
X145138148Y-106378956D01*
X145147255Y-106374076D01*
X145155331Y-106369689D01*
X145162885Y-106365767D01*
X145170430Y-106362286D01*
X145178477Y-106359218D01*
X145187536Y-106356539D01*
X145198120Y-106354221D01*
X145210738Y-106352240D01*
X145225902Y-106350568D01*
X145244123Y-106349180D01*
X145265913Y-106348049D01*
X145291781Y-106347150D01*
X145322241Y-106346457D01*
X145357802Y-106345943D01*
X145398975Y-106345582D01*
X145446273Y-106345349D01*
X145500205Y-106345217D01*
X145561284Y-106345161D01*
X145630019Y-106345153D01*
X145706923Y-106345169D01*
G36*
X145706923Y-106345169D02*
G01*
X145792506Y-106345182D01*
X145800619Y-106345182D01*
X145888199Y-106345198D01*
X145967004Y-106345251D01*
X146037495Y-106345344D01*
X146100134Y-106345482D01*
X146155380Y-106345671D01*
X146203696Y-106345915D01*
X146245542Y-106346220D01*
X146281380Y-106346589D01*
X146311671Y-106347028D01*
X146336876Y-106347541D01*
X146357456Y-106348134D01*
X146373872Y-106348812D01*
X146386585Y-106349578D01*
X146396057Y-106350438D01*
X146402748Y-106351397D01*
X146403291Y-106351501D01*
X146448488Y-106364543D01*
X146488022Y-106384873D01*
X146521839Y-106412451D01*
X146549886Y-106447238D01*
X146565229Y-106474160D01*
X146573416Y-106491309D01*
X146578770Y-106504944D01*
X146581990Y-106518107D01*
X146583776Y-106533839D01*
X146584825Y-106555180D01*
X146585001Y-106560187D01*
X146584890Y-106595724D01*
X146581354Y-106625412D01*
X146573646Y-106652244D01*
X146561016Y-106679210D01*
X146550875Y-106696522D01*
X146544963Y-106704811D01*
X146533545Y-106719599D01*
X146517076Y-106740332D01*
X146496011Y-106766456D01*
X146470805Y-106797414D01*
X146441914Y-106832651D01*
X146409792Y-106871614D01*
X146374895Y-106913747D01*
X146337679Y-106958494D01*
X146298597Y-107005301D01*
X146258106Y-107053613D01*
X146253540Y-107059049D01*
X145976453Y-107388891D01*
X146201417Y-107391200D01*
X146426382Y-107393509D01*
X146463328Y-107406500D01*
X146485502Y-107415435D01*
X146508787Y-107426611D01*
X146528309Y-107437683D01*
X146529080Y-107438179D01*
X146555163Y-107457888D01*
X146581472Y-107482604D01*
X146605291Y-107509493D01*
X146623907Y-107535719D01*
X146626207Y-107539639D01*
X146646037Y-107583632D01*
X146658318Y-107631302D01*
X146663005Y-107680939D01*
X146660056Y-107730839D01*
X146649426Y-107779293D01*
X146633374Y-107820015D01*
X146613995Y-107851946D01*
X146588032Y-107883770D01*
X146557843Y-107913127D01*
X146525789Y-107937656D01*
X146501986Y-107951444D01*
X146493313Y-107955756D01*
X146485445Y-107959646D01*
X146477887Y-107963135D01*
X146470144Y-107966245D01*
X146461723Y-107968996D01*
X146452128Y-107971411D01*
X146440865Y-107973510D01*
X146427439Y-107975316D01*
X146411357Y-107976849D01*
X146392124Y-107978132D01*
X146369244Y-107979186D01*
X146342224Y-107980032D01*
X146310569Y-107980692D01*
X146273785Y-107981187D01*
X146231377Y-107981539D01*
X146182850Y-107981769D01*
X146127710Y-107981899D01*
X146065463Y-107981950D01*
X145995615Y-107981945D01*
X145917669Y-107981903D01*
X145831133Y-107981847D01*
X145802928Y-107981830D01*
X145712578Y-107981763D01*
X145631023Y-107981666D01*
X145557819Y-107981533D01*
X145492523Y-107981360D01*
X145434693Y-107981143D01*
X145383886Y-107980876D01*
X145339660Y-107980557D01*
X145301572Y-107980179D01*
X145269180Y-107979738D01*
X145242040Y-107979229D01*
X145219711Y-107978649D01*
X145201749Y-107977993D01*
X145187712Y-107977255D01*
X145177158Y-107976431D01*
X145169644Y-107975518D01*
X145168068Y-107975253D01*
X145125485Y-107963292D01*
X145086242Y-107943951D01*
X145051434Y-107918224D01*
X145022154Y-107887103D01*
X144999494Y-107851580D01*
X144984547Y-107812649D01*
X144983227Y-107807385D01*
X144979258Y-107775962D01*
X144980294Y-107739995D01*
X144985803Y-107702326D01*
X144995256Y-107665794D01*
X145008123Y-107633241D01*
X145019359Y-107613636D01*
X145024105Y-107607535D01*
X145034392Y-107594922D01*
X145049778Y-107576323D01*
X145069824Y-107552262D01*
X145094086Y-107523265D01*
X145122126Y-107489857D01*
X145153501Y-107452565D01*
X145187770Y-107411913D01*
X145224493Y-107368426D01*
X145263227Y-107322631D01*
X145303533Y-107275053D01*
X145308782Y-107268862D01*
X145348961Y-107221457D01*
X145387424Y-107176029D01*
X145423752Y-107133078D01*
X145457527Y-107093100D01*
X145488330Y-107056592D01*
X145515741Y-107024052D01*
X145539343Y-106995976D01*
X145558716Y-106972863D01*
X145573442Y-106955208D01*
X145583101Y-106943510D01*
X145587276Y-106938266D01*
X145587412Y-106938047D01*
X145583313Y-106937121D01*
X145570900Y-106936276D01*
X145551096Y-106935533D01*
X145524824Y-106934912D01*
X145493006Y-106934436D01*
X145456566Y-106934125D01*
X145416426Y-106934001D01*
X145411737Y-106934000D01*
X145362731Y-106933954D01*
X145321900Y-106933737D01*
X145288182Y-106933227D01*
X145260514Y-106932306D01*
X145237837Y-106930851D01*
X145219088Y-106928744D01*
X145203205Y-106925864D01*
X145189127Y-106922091D01*
X145175792Y-106917304D01*
X145162139Y-106911383D01*
X145147106Y-106904208D01*
X145146613Y-106903967D01*
X145118512Y-106887214D01*
X145089254Y-106864558D01*
X145061603Y-106838459D01*
X145038325Y-106811377D01*
X145031234Y-106801388D01*
X145008275Y-106758675D01*
X144993052Y-106712274D01*
X144985590Y-106663579D01*
X144985911Y-106613984D01*
X144994040Y-106564885D01*
X145010000Y-106517674D01*
X145025865Y-106486463D01*
X145043875Y-106460899D01*
X145067579Y-106434440D01*
X145094333Y-106409619D01*
X145121495Y-106388964D01*
X145138148Y-106378956D01*
X145147255Y-106374076D01*
X145155331Y-106369689D01*
X145162885Y-106365767D01*
X145170430Y-106362286D01*
X145178477Y-106359218D01*
X145187536Y-106356539D01*
X145198120Y-106354221D01*
X145210738Y-106352240D01*
X145225902Y-106350568D01*
X145244123Y-106349180D01*
X145265913Y-106348049D01*
X145291781Y-106347150D01*
X145322241Y-106346457D01*
X145357802Y-106345943D01*
X145398975Y-106345582D01*
X145446273Y-106345349D01*
X145500205Y-106345217D01*
X145561284Y-106345161D01*
X145630019Y-106345153D01*
X145706923Y-106345169D01*
G37*
X140870062Y-103081048D02*
X140890587Y-103082157D01*
X140907267Y-103084310D01*
X140922793Y-103087845D01*
X140938443Y-103092630D01*
X140990216Y-103114295D01*
X141036971Y-103143177D01*
X141078036Y-103178569D01*
X141112740Y-103219763D01*
X141140412Y-103266054D01*
X141160381Y-103316734D01*
X141164217Y-103330499D01*
X141166221Y-103338853D01*
X141167904Y-103347484D01*
X141169294Y-103357246D01*
X141170419Y-103368993D01*
X141171307Y-103383575D01*
X141171984Y-103401847D01*
X141172480Y-103424661D01*
X141172821Y-103452869D01*
X141173036Y-103487325D01*
X141173151Y-103528882D01*
X141173196Y-103578392D01*
X141173200Y-103606669D01*
X141173200Y-103847716D01*
X141236700Y-103828077D01*
X141287168Y-103813630D01*
X141333298Y-103803178D01*
X141378741Y-103796086D01*
X141427152Y-103791720D01*
X141453714Y-103790356D01*
X141538413Y-103791363D01*
X141621911Y-103801183D01*
X141703462Y-103819573D01*
X141782316Y-103846288D01*
X141857727Y-103881085D01*
X141928947Y-103923721D01*
X141980941Y-103962127D01*
X142001467Y-103979852D01*
X142025356Y-104002296D01*
X142050288Y-104027116D01*
X142073941Y-104051971D01*
X142093995Y-104074518D01*
X142102254Y-104084582D01*
X142147355Y-104149077D01*
X142186606Y-104220604D01*
X142219927Y-104298981D01*
X142247236Y-104384028D01*
X142261148Y-104440182D01*
X142273950Y-104497909D01*
X142275784Y-104835037D01*
X142276139Y-104901716D01*
X142276402Y-104959860D01*
X142276538Y-105010169D01*
X142276510Y-105053343D01*
X142276282Y-105090083D01*
X142275817Y-105121088D01*
X142275079Y-105147060D01*
X142274031Y-105168700D01*
X142272636Y-105186706D01*
X142270859Y-105201781D01*
X142268662Y-105214624D01*
X142266009Y-105225936D01*
X142262863Y-105236417D01*
X142259188Y-105246768D01*
X142254947Y-105257689D01*
X142253560Y-105261180D01*
X142229170Y-105310443D01*
X142197501Y-105354039D01*
X142158631Y-105391888D01*
X142112633Y-105423912D01*
X142081638Y-105440300D01*
X142043067Y-105455740D01*
X142003949Y-105465152D01*
X141961532Y-105469047D01*
X141928273Y-105468759D01*
X141875154Y-105463069D01*
X141826992Y-105450303D01*
X141782514Y-105429898D01*
X141740444Y-105401291D01*
X141706171Y-105370645D01*
X141686685Y-105350424D01*
X141672038Y-105332569D01*
X141659796Y-105313750D01*
X141647527Y-105290639D01*
X141647124Y-105289827D01*
X141640176Y-105275900D01*
X141634167Y-105263682D01*
X141629023Y-105252416D01*
X141624669Y-105241346D01*
X141621030Y-105229715D01*
X141618031Y-105216766D01*
X141615599Y-105201742D01*
X141613657Y-105183887D01*
X141612131Y-105162444D01*
X141610948Y-105136657D01*
X141610030Y-105105768D01*
X141609306Y-105069022D01*
X141608698Y-105025660D01*
X141608133Y-104974928D01*
X141607536Y-104916067D01*
X141607228Y-104885837D01*
X141606568Y-104823841D01*
X141605944Y-104770380D01*
X141605334Y-104724752D01*
X141604715Y-104686254D01*
X141604062Y-104654186D01*
X141603352Y-104627844D01*
X141602563Y-104606529D01*
X141601671Y-104589536D01*
X141600653Y-104576166D01*
X141599485Y-104565716D01*
X141598144Y-104557484D01*
X141596607Y-104550769D01*
X141596036Y-104548709D01*
X141579024Y-104505193D01*
X141555112Y-104467182D01*
X141525085Y-104435275D01*
X141489734Y-104410072D01*
X141449844Y-104392173D01*
X141406205Y-104382177D01*
X141374615Y-104380200D01*
X141333786Y-104384824D01*
X141294902Y-104398341D01*
X141258534Y-104420514D01*
X141238869Y-104437197D01*
X141222550Y-104453919D01*
X141210224Y-104470257D01*
X141200350Y-104488884D01*
X141191390Y-104512477D01*
X141186273Y-104528610D01*
X141184264Y-104535411D01*
X141182528Y-104542114D01*
X141181039Y-104549431D01*
X141179769Y-104558073D01*
X141178694Y-104568753D01*
X141177787Y-104582182D01*
X141177023Y-104599074D01*
X141176375Y-104620140D01*
X141175818Y-104646092D01*
X141175326Y-104677643D01*
X141174872Y-104715504D01*
X141174430Y-104760388D01*
X141173976Y-104813007D01*
X141173482Y-104874072D01*
X141173426Y-104881218D01*
X141170891Y-105199873D01*
X141156414Y-105240334D01*
X141142265Y-105275785D01*
X141126566Y-105305823D01*
X141107422Y-105333421D01*
X141082934Y-105361550D01*
X141071600Y-105373231D01*
X141029934Y-105409431D01*
X140985219Y-105436990D01*
X140937051Y-105456073D01*
X140885024Y-105466847D01*
X140836073Y-105469589D01*
X140812437Y-105468728D01*
X140788197Y-105466691D01*
X140767621Y-105463866D01*
X140762742Y-105462911D01*
X140745452Y-105457964D01*
X140723545Y-105450006D01*
X140700553Y-105440371D01*
X140689320Y-105435132D01*
X140667515Y-105423893D01*
X140649729Y-105412875D01*
X140633062Y-105399964D01*
X140614611Y-105383045D01*
X140605168Y-105373773D01*
X140574201Y-105339905D01*
X140550087Y-105305962D01*
X140530923Y-105268926D01*
X140517960Y-105235279D01*
X140505873Y-105199873D01*
X140504594Y-104290091D01*
X140504431Y-104179729D01*
X140504275Y-104078210D01*
X140504138Y-103985142D01*
X140504031Y-103900132D01*
X140503967Y-103822787D01*
X140503958Y-103752715D01*
X140504016Y-103689523D01*
X140504152Y-103632819D01*
X140504380Y-103582208D01*
X140504710Y-103537299D01*
X140505155Y-103497699D01*
X140505728Y-103463016D01*
X140506440Y-103432855D01*
X140507302Y-103406826D01*
X140508329Y-103384534D01*
X140509530Y-103365587D01*
X140510919Y-103349593D01*
X140512507Y-103336158D01*
X140514307Y-103324891D01*
X140516331Y-103315397D01*
X140518590Y-103307285D01*
X140521097Y-103300162D01*
X140523863Y-103293635D01*
X140526901Y-103287310D01*
X140530224Y-103280797D01*
X140533842Y-103273701D01*
X140535930Y-103269473D01*
X140564282Y-103221463D01*
X140599595Y-103179141D01*
X140641093Y-103143156D01*
X140687998Y-103114153D01*
X140739532Y-103092782D01*
X140752946Y-103088736D01*
X140771231Y-103084608D01*
X140792116Y-103082036D01*
X140817972Y-103080808D01*
X140843000Y-103080645D01*
X140870062Y-103081048D01*
G36*
X140870062Y-103081048D02*
G01*
X140890587Y-103082157D01*
X140907267Y-103084310D01*
X140922793Y-103087845D01*
X140938443Y-103092630D01*
X140990216Y-103114295D01*
X141036971Y-103143177D01*
X141078036Y-103178569D01*
X141112740Y-103219763D01*
X141140412Y-103266054D01*
X141160381Y-103316734D01*
X141164217Y-103330499D01*
X141166221Y-103338853D01*
X141167904Y-103347484D01*
X141169294Y-103357246D01*
X141170419Y-103368993D01*
X141171307Y-103383575D01*
X141171984Y-103401847D01*
X141172480Y-103424661D01*
X141172821Y-103452869D01*
X141173036Y-103487325D01*
X141173151Y-103528882D01*
X141173196Y-103578392D01*
X141173200Y-103606669D01*
X141173200Y-103847716D01*
X141236700Y-103828077D01*
X141287168Y-103813630D01*
X141333298Y-103803178D01*
X141378741Y-103796086D01*
X141427152Y-103791720D01*
X141453714Y-103790356D01*
X141538413Y-103791363D01*
X141621911Y-103801183D01*
X141703462Y-103819573D01*
X141782316Y-103846288D01*
X141857727Y-103881085D01*
X141928947Y-103923721D01*
X141980941Y-103962127D01*
X142001467Y-103979852D01*
X142025356Y-104002296D01*
X142050288Y-104027116D01*
X142073941Y-104051971D01*
X142093995Y-104074518D01*
X142102254Y-104084582D01*
X142147355Y-104149077D01*
X142186606Y-104220604D01*
X142219927Y-104298981D01*
X142247236Y-104384028D01*
X142261148Y-104440182D01*
X142273950Y-104497909D01*
X142275784Y-104835037D01*
X142276139Y-104901716D01*
X142276402Y-104959860D01*
X142276538Y-105010169D01*
X142276510Y-105053343D01*
X142276282Y-105090083D01*
X142275817Y-105121088D01*
X142275079Y-105147060D01*
X142274031Y-105168700D01*
X142272636Y-105186706D01*
X142270859Y-105201781D01*
X142268662Y-105214624D01*
X142266009Y-105225936D01*
X142262863Y-105236417D01*
X142259188Y-105246768D01*
X142254947Y-105257689D01*
X142253560Y-105261180D01*
X142229170Y-105310443D01*
X142197501Y-105354039D01*
X142158631Y-105391888D01*
X142112633Y-105423912D01*
X142081638Y-105440300D01*
X142043067Y-105455740D01*
X142003949Y-105465152D01*
X141961532Y-105469047D01*
X141928273Y-105468759D01*
X141875154Y-105463069D01*
X141826992Y-105450303D01*
X141782514Y-105429898D01*
X141740444Y-105401291D01*
X141706171Y-105370645D01*
X141686685Y-105350424D01*
X141672038Y-105332569D01*
X141659796Y-105313750D01*
X141647527Y-105290639D01*
X141647124Y-105289827D01*
X141640176Y-105275900D01*
X141634167Y-105263682D01*
X141629023Y-105252416D01*
X141624669Y-105241346D01*
X141621030Y-105229715D01*
X141618031Y-105216766D01*
X141615599Y-105201742D01*
X141613657Y-105183887D01*
X141612131Y-105162444D01*
X141610948Y-105136657D01*
X141610030Y-105105768D01*
X141609306Y-105069022D01*
X141608698Y-105025660D01*
X141608133Y-104974928D01*
X141607536Y-104916067D01*
X141607228Y-104885837D01*
X141606568Y-104823841D01*
X141605944Y-104770380D01*
X141605334Y-104724752D01*
X141604715Y-104686254D01*
X141604062Y-104654186D01*
X141603352Y-104627844D01*
X141602563Y-104606529D01*
X141601671Y-104589536D01*
X141600653Y-104576166D01*
X141599485Y-104565716D01*
X141598144Y-104557484D01*
X141596607Y-104550769D01*
X141596036Y-104548709D01*
X141579024Y-104505193D01*
X141555112Y-104467182D01*
X141525085Y-104435275D01*
X141489734Y-104410072D01*
X141449844Y-104392173D01*
X141406205Y-104382177D01*
X141374615Y-104380200D01*
X141333786Y-104384824D01*
X141294902Y-104398341D01*
X141258534Y-104420514D01*
X141238869Y-104437197D01*
X141222550Y-104453919D01*
X141210224Y-104470257D01*
X141200350Y-104488884D01*
X141191390Y-104512477D01*
X141186273Y-104528610D01*
X141184264Y-104535411D01*
X141182528Y-104542114D01*
X141181039Y-104549431D01*
X141179769Y-104558073D01*
X141178694Y-104568753D01*
X141177787Y-104582182D01*
X141177023Y-104599074D01*
X141176375Y-104620140D01*
X141175818Y-104646092D01*
X141175326Y-104677643D01*
X141174872Y-104715504D01*
X141174430Y-104760388D01*
X141173976Y-104813007D01*
X141173482Y-104874072D01*
X141173426Y-104881218D01*
X141170891Y-105199873D01*
X141156414Y-105240334D01*
X141142265Y-105275785D01*
X141126566Y-105305823D01*
X141107422Y-105333421D01*
X141082934Y-105361550D01*
X141071600Y-105373231D01*
X141029934Y-105409431D01*
X140985219Y-105436990D01*
X140937051Y-105456073D01*
X140885024Y-105466847D01*
X140836073Y-105469589D01*
X140812437Y-105468728D01*
X140788197Y-105466691D01*
X140767621Y-105463866D01*
X140762742Y-105462911D01*
X140745452Y-105457964D01*
X140723545Y-105450006D01*
X140700553Y-105440371D01*
X140689320Y-105435132D01*
X140667515Y-105423893D01*
X140649729Y-105412875D01*
X140633062Y-105399964D01*
X140614611Y-105383045D01*
X140605168Y-105373773D01*
X140574201Y-105339905D01*
X140550087Y-105305962D01*
X140530923Y-105268926D01*
X140517960Y-105235279D01*
X140505873Y-105199873D01*
X140504594Y-104290091D01*
X140504431Y-104179729D01*
X140504275Y-104078210D01*
X140504138Y-103985142D01*
X140504031Y-103900132D01*
X140503967Y-103822787D01*
X140503958Y-103752715D01*
X140504016Y-103689523D01*
X140504152Y-103632819D01*
X140504380Y-103582208D01*
X140504710Y-103537299D01*
X140505155Y-103497699D01*
X140505728Y-103463016D01*
X140506440Y-103432855D01*
X140507302Y-103406826D01*
X140508329Y-103384534D01*
X140509530Y-103365587D01*
X140510919Y-103349593D01*
X140512507Y-103336158D01*
X140514307Y-103324891D01*
X140516331Y-103315397D01*
X140518590Y-103307285D01*
X140521097Y-103300162D01*
X140523863Y-103293635D01*
X140526901Y-103287310D01*
X140530224Y-103280797D01*
X140533842Y-103273701D01*
X140535930Y-103269473D01*
X140564282Y-103221463D01*
X140599595Y-103179141D01*
X140641093Y-103143156D01*
X140687998Y-103114153D01*
X140739532Y-103092782D01*
X140752946Y-103088736D01*
X140771231Y-103084608D01*
X140792116Y-103082036D01*
X140817972Y-103080808D01*
X140843000Y-103080645D01*
X140870062Y-103081048D01*
G37*
X139107547Y-103851185D02*
X139160075Y-103861306D01*
X139206881Y-103878180D01*
X139248426Y-103901972D01*
X139285170Y-103932852D01*
X139286207Y-103933893D01*
X139300303Y-103948728D01*
X139313333Y-103963952D01*
X139325628Y-103980282D01*
X139337516Y-103998437D01*
X139349326Y-104019132D01*
X139361386Y-104043085D01*
X139374027Y-104071014D01*
X139387576Y-104103636D01*
X139402362Y-104141667D01*
X139418714Y-104185826D01*
X139436962Y-104236829D01*
X139457434Y-104295393D01*
X139474019Y-104343469D01*
X139488329Y-104385023D01*
X139501778Y-104423895D01*
X139514062Y-104459213D01*
X139524872Y-104490106D01*
X139533905Y-104515701D01*
X139540852Y-104535127D01*
X139545408Y-104547513D01*
X139547243Y-104551963D01*
X139549526Y-104548853D01*
X139554292Y-104538269D01*
X139561036Y-104521478D01*
X139569250Y-104499745D01*
X139578430Y-104474335D01*
X139579556Y-104471144D01*
X139606204Y-104395574D01*
X139630005Y-104328305D01*
X139651118Y-104268905D01*
X139669702Y-104216942D01*
X139685915Y-104171985D01*
X139699918Y-104133600D01*
X139711868Y-104101355D01*
X139721925Y-104074820D01*
X139730247Y-104053560D01*
X139736995Y-104037145D01*
X139742325Y-104025142D01*
X139746399Y-104017119D01*
X139746836Y-104016360D01*
X139769060Y-103985085D01*
X139798163Y-103954028D01*
X139831933Y-103925016D01*
X139868153Y-103899876D01*
X139904610Y-103880435D01*
X139918441Y-103874783D01*
X139967742Y-103860986D01*
X140020304Y-103854270D01*
X140073211Y-103854847D01*
X140113328Y-103860597D01*
X140160061Y-103874840D01*
X140205499Y-103897201D01*
X140248164Y-103926567D01*
X140286582Y-103961823D01*
X140319277Y-104001852D01*
X140336352Y-104029164D01*
X140350615Y-104057839D01*
X140360759Y-104085985D01*
X140367304Y-104115990D01*
X140370774Y-104150245D01*
X140371693Y-104190800D01*
X140371466Y-104217782D01*
X140370797Y-104237987D01*
X140369347Y-104253876D01*
X140366777Y-104267908D01*
X140362750Y-104282543D01*
X140356928Y-104300239D01*
X140356451Y-104301637D01*
X140351729Y-104313542D01*
X140343184Y-104333001D01*
X140331137Y-104359363D01*
X140315910Y-104391975D01*
X140297824Y-104430186D01*
X140277201Y-104473344D01*
X140254363Y-104520799D01*
X140229630Y-104571899D01*
X140203326Y-104625993D01*
X140175770Y-104682428D01*
X140147285Y-104740554D01*
X140118192Y-104799718D01*
X140088813Y-104859271D01*
X140059470Y-104918559D01*
X140030484Y-104976933D01*
X140002176Y-105033739D01*
X139974868Y-105088328D01*
X139948882Y-105140046D01*
X139924539Y-105188244D01*
X139902161Y-105232269D01*
X139882070Y-105271470D01*
X139864586Y-105305196D01*
X139850032Y-105332795D01*
X139838729Y-105353616D01*
X139830999Y-105367007D01*
X139829126Y-105369922D01*
X139793924Y-105414917D01*
X139755006Y-105451551D01*
X139711929Y-105480103D01*
X139664250Y-105500848D01*
X139611525Y-105514064D01*
X139594204Y-105516660D01*
X139539666Y-105519182D01*
X139486598Y-105512935D01*
X139435816Y-105498364D01*
X139388133Y-105475913D01*
X139344363Y-105446028D01*
X139305321Y-105409153D01*
X139271820Y-105365732D01*
X139250844Y-105329182D01*
X139246823Y-105320345D01*
X139239726Y-105303882D01*
X139229943Y-105280728D01*
X139217862Y-105251820D01*
X139203874Y-105218093D01*
X139188368Y-105180483D01*
X139171733Y-105139925D01*
X139154358Y-105097355D01*
X139152851Y-105093655D01*
X139135775Y-105051782D01*
X139119694Y-105012514D01*
X139104953Y-104976680D01*
X139091896Y-104945110D01*
X139080870Y-104918637D01*
X139072218Y-104898090D01*
X139066285Y-104884300D01*
X139063417Y-104878098D01*
X139063258Y-104877857D01*
X139060924Y-104881277D01*
X139055513Y-104892417D01*
X139047393Y-104910427D01*
X139036932Y-104934456D01*
X139024497Y-104963654D01*
X139010454Y-104997171D01*
X138995171Y-105034155D01*
X138984493Y-105060275D01*
X138960173Y-105119983D01*
X138938995Y-105171807D01*
X138920621Y-105216419D01*
X138904711Y-105254490D01*
X138890928Y-105286693D01*
X138878932Y-105313699D01*
X138868385Y-105336179D01*
X138858949Y-105354805D01*
X138850284Y-105370249D01*
X138842052Y-105383183D01*
X138833914Y-105394277D01*
X138825533Y-105404205D01*
X138816568Y-105413637D01*
X138806682Y-105423245D01*
X138796837Y-105432486D01*
X138769682Y-105454641D01*
X138737931Y-105475414D01*
X138704509Y-105493172D01*
X138672339Y-105506288D01*
X138656017Y-105510984D01*
X138641066Y-105513533D01*
X138620645Y-105515786D01*
X138597505Y-105517579D01*
X138574400Y-105518748D01*
X138554080Y-105519127D01*
X138539299Y-105518552D01*
X138536219Y-105518145D01*
X138525371Y-105516233D01*
X138509471Y-105513429D01*
X138496964Y-105511222D01*
X138472193Y-105504586D01*
X138443745Y-105493423D01*
X138414889Y-105479291D01*
X138388898Y-105463748D01*
X138373806Y-105452568D01*
X138343414Y-105423611D01*
X138313452Y-105388502D01*
X138286295Y-105350118D01*
X138277911Y-105336474D01*
X138272118Y-105325954D01*
X138262522Y-105307649D01*
X138249376Y-105282068D01*
X138232935Y-105249722D01*
X138213454Y-105211124D01*
X138191186Y-105166782D01*
X138166386Y-105117210D01*
X138139308Y-105062916D01*
X138110207Y-105004413D01*
X138079336Y-104942211D01*
X138046950Y-104876821D01*
X138013303Y-104808755D01*
X137978650Y-104738523D01*
X137943245Y-104666635D01*
X137907342Y-104593604D01*
X137871196Y-104519939D01*
X137850184Y-104477053D01*
X137827670Y-104430858D01*
X137808985Y-104391831D01*
X137793774Y-104358905D01*
X137781678Y-104331016D01*
X137772341Y-104307097D01*
X137765405Y-104286082D01*
X137760514Y-104266907D01*
X137757311Y-104248505D01*
X137755438Y-104229811D01*
X137754538Y-104209759D01*
X137754272Y-104190800D01*
X137755037Y-104153439D01*
X137758268Y-104122012D01*
X137764655Y-104093388D01*
X137774885Y-104064438D01*
X137788791Y-104033782D01*
X137799634Y-104013228D01*
X137811174Y-103995598D01*
X137825487Y-103978111D01*
X137844650Y-103957986D01*
X137847649Y-103954987D01*
X137866121Y-103937619D01*
X137885405Y-103921188D01*
X137902966Y-103907769D01*
X137914130Y-103900565D01*
X137961740Y-103878530D01*
X138012182Y-103863298D01*
X138063615Y-103855148D01*
X138114197Y-103854360D01*
X138162087Y-103861215D01*
X138166335Y-103862250D01*
X138219532Y-103879837D01*
X138268032Y-103904228D01*
X138311034Y-103934799D01*
X138347736Y-103970929D01*
X138377336Y-104011993D01*
X138390127Y-104036091D01*
X138394531Y-104046562D01*
X138401636Y-104064822D01*
X138411100Y-104089942D01*
X138422583Y-104120988D01*
X138435745Y-104157031D01*
X138450243Y-104197140D01*
X138465737Y-104240382D01*
X138481886Y-104285826D01*
X138490323Y-104309718D01*
X138506212Y-104354676D01*
X138521230Y-104396911D01*
X138535093Y-104435640D01*
X138547515Y-104470079D01*
X138558212Y-104499443D01*
X138566897Y-104522948D01*
X138573286Y-104539809D01*
X138577094Y-104549242D01*
X138578047Y-104551018D01*
X138580060Y-104546793D01*
X138584734Y-104534706D01*
X138591754Y-104515638D01*
X138600806Y-104490471D01*
X138611574Y-104460085D01*
X138623743Y-104425362D01*
X138636997Y-104387184D01*
X138646982Y-104358209D01*
X138667844Y-104297649D01*
X138686110Y-104245085D01*
X138702103Y-104199753D01*
X138716145Y-104160885D01*
X138728557Y-104127715D01*
X138739661Y-104099477D01*
X138749778Y-104075404D01*
X138759231Y-104054730D01*
X138768342Y-104036689D01*
X138777431Y-104020514D01*
X138786821Y-104005439D01*
X138796834Y-103990698D01*
X138807467Y-103975962D01*
X138841513Y-103935244D01*
X138877964Y-103902751D01*
X138918044Y-103877548D01*
X138959851Y-103859765D01*
X138977563Y-103854099D01*
X138993148Y-103850477D01*
X139009667Y-103848482D01*
X139030178Y-103847698D01*
X139048837Y-103847649D01*
X139107547Y-103851185D01*
G36*
X139107547Y-103851185D02*
G01*
X139160075Y-103861306D01*
X139206881Y-103878180D01*
X139248426Y-103901972D01*
X139285170Y-103932852D01*
X139286207Y-103933893D01*
X139300303Y-103948728D01*
X139313333Y-103963952D01*
X139325628Y-103980282D01*
X139337516Y-103998437D01*
X139349326Y-104019132D01*
X139361386Y-104043085D01*
X139374027Y-104071014D01*
X139387576Y-104103636D01*
X139402362Y-104141667D01*
X139418714Y-104185826D01*
X139436962Y-104236829D01*
X139457434Y-104295393D01*
X139474019Y-104343469D01*
X139488329Y-104385023D01*
X139501778Y-104423895D01*
X139514062Y-104459213D01*
X139524872Y-104490106D01*
X139533905Y-104515701D01*
X139540852Y-104535127D01*
X139545408Y-104547513D01*
X139547243Y-104551963D01*
X139549526Y-104548853D01*
X139554292Y-104538269D01*
X139561036Y-104521478D01*
X139569250Y-104499745D01*
X139578430Y-104474335D01*
X139579556Y-104471144D01*
X139606204Y-104395574D01*
X139630005Y-104328305D01*
X139651118Y-104268905D01*
X139669702Y-104216942D01*
X139685915Y-104171985D01*
X139699918Y-104133600D01*
X139711868Y-104101355D01*
X139721925Y-104074820D01*
X139730247Y-104053560D01*
X139736995Y-104037145D01*
X139742325Y-104025142D01*
X139746399Y-104017119D01*
X139746836Y-104016360D01*
X139769060Y-103985085D01*
X139798163Y-103954028D01*
X139831933Y-103925016D01*
X139868153Y-103899876D01*
X139904610Y-103880435D01*
X139918441Y-103874783D01*
X139967742Y-103860986D01*
X140020304Y-103854270D01*
X140073211Y-103854847D01*
X140113328Y-103860597D01*
X140160061Y-103874840D01*
X140205499Y-103897201D01*
X140248164Y-103926567D01*
X140286582Y-103961823D01*
X140319277Y-104001852D01*
X140336352Y-104029164D01*
X140350615Y-104057839D01*
X140360759Y-104085985D01*
X140367304Y-104115990D01*
X140370774Y-104150245D01*
X140371693Y-104190800D01*
X140371466Y-104217782D01*
X140370797Y-104237987D01*
X140369347Y-104253876D01*
X140366777Y-104267908D01*
X140362750Y-104282543D01*
X140356928Y-104300239D01*
X140356451Y-104301637D01*
X140351729Y-104313542D01*
X140343184Y-104333001D01*
X140331137Y-104359363D01*
X140315910Y-104391975D01*
X140297824Y-104430186D01*
X140277201Y-104473344D01*
X140254363Y-104520799D01*
X140229630Y-104571899D01*
X140203326Y-104625993D01*
X140175770Y-104682428D01*
X140147285Y-104740554D01*
X140118192Y-104799718D01*
X140088813Y-104859271D01*
X140059470Y-104918559D01*
X140030484Y-104976933D01*
X140002176Y-105033739D01*
X139974868Y-105088328D01*
X139948882Y-105140046D01*
X139924539Y-105188244D01*
X139902161Y-105232269D01*
X139882070Y-105271470D01*
X139864586Y-105305196D01*
X139850032Y-105332795D01*
X139838729Y-105353616D01*
X139830999Y-105367007D01*
X139829126Y-105369922D01*
X139793924Y-105414917D01*
X139755006Y-105451551D01*
X139711929Y-105480103D01*
X139664250Y-105500848D01*
X139611525Y-105514064D01*
X139594204Y-105516660D01*
X139539666Y-105519182D01*
X139486598Y-105512935D01*
X139435816Y-105498364D01*
X139388133Y-105475913D01*
X139344363Y-105446028D01*
X139305321Y-105409153D01*
X139271820Y-105365732D01*
X139250844Y-105329182D01*
X139246823Y-105320345D01*
X139239726Y-105303882D01*
X139229943Y-105280728D01*
X139217862Y-105251820D01*
X139203874Y-105218093D01*
X139188368Y-105180483D01*
X139171733Y-105139925D01*
X139154358Y-105097355D01*
X139152851Y-105093655D01*
X139135775Y-105051782D01*
X139119694Y-105012514D01*
X139104953Y-104976680D01*
X139091896Y-104945110D01*
X139080870Y-104918637D01*
X139072218Y-104898090D01*
X139066285Y-104884300D01*
X139063417Y-104878098D01*
X139063258Y-104877857D01*
X139060924Y-104881277D01*
X139055513Y-104892417D01*
X139047393Y-104910427D01*
X139036932Y-104934456D01*
X139024497Y-104963654D01*
X139010454Y-104997171D01*
X138995171Y-105034155D01*
X138984493Y-105060275D01*
X138960173Y-105119983D01*
X138938995Y-105171807D01*
X138920621Y-105216419D01*
X138904711Y-105254490D01*
X138890928Y-105286693D01*
X138878932Y-105313699D01*
X138868385Y-105336179D01*
X138858949Y-105354805D01*
X138850284Y-105370249D01*
X138842052Y-105383183D01*
X138833914Y-105394277D01*
X138825533Y-105404205D01*
X138816568Y-105413637D01*
X138806682Y-105423245D01*
X138796837Y-105432486D01*
X138769682Y-105454641D01*
X138737931Y-105475414D01*
X138704509Y-105493172D01*
X138672339Y-105506288D01*
X138656017Y-105510984D01*
X138641066Y-105513533D01*
X138620645Y-105515786D01*
X138597505Y-105517579D01*
X138574400Y-105518748D01*
X138554080Y-105519127D01*
X138539299Y-105518552D01*
X138536219Y-105518145D01*
X138525371Y-105516233D01*
X138509471Y-105513429D01*
X138496964Y-105511222D01*
X138472193Y-105504586D01*
X138443745Y-105493423D01*
X138414889Y-105479291D01*
X138388898Y-105463748D01*
X138373806Y-105452568D01*
X138343414Y-105423611D01*
X138313452Y-105388502D01*
X138286295Y-105350118D01*
X138277911Y-105336474D01*
X138272118Y-105325954D01*
X138262522Y-105307649D01*
X138249376Y-105282068D01*
X138232935Y-105249722D01*
X138213454Y-105211124D01*
X138191186Y-105166782D01*
X138166386Y-105117210D01*
X138139308Y-105062916D01*
X138110207Y-105004413D01*
X138079336Y-104942211D01*
X138046950Y-104876821D01*
X138013303Y-104808755D01*
X137978650Y-104738523D01*
X137943245Y-104666635D01*
X137907342Y-104593604D01*
X137871196Y-104519939D01*
X137850184Y-104477053D01*
X137827670Y-104430858D01*
X137808985Y-104391831D01*
X137793774Y-104358905D01*
X137781678Y-104331016D01*
X137772341Y-104307097D01*
X137765405Y-104286082D01*
X137760514Y-104266907D01*
X137757311Y-104248505D01*
X137755438Y-104229811D01*
X137754538Y-104209759D01*
X137754272Y-104190800D01*
X137755037Y-104153439D01*
X137758268Y-104122012D01*
X137764655Y-104093388D01*
X137774885Y-104064438D01*
X137788791Y-104033782D01*
X137799634Y-104013228D01*
X137811174Y-103995598D01*
X137825487Y-103978111D01*
X137844650Y-103957986D01*
X137847649Y-103954987D01*
X137866121Y-103937619D01*
X137885405Y-103921188D01*
X137902966Y-103907769D01*
X137914130Y-103900565D01*
X137961740Y-103878530D01*
X138012182Y-103863298D01*
X138063615Y-103855148D01*
X138114197Y-103854360D01*
X138162087Y-103861215D01*
X138166335Y-103862250D01*
X138219532Y-103879837D01*
X138268032Y-103904228D01*
X138311034Y-103934799D01*
X138347736Y-103970929D01*
X138377336Y-104011993D01*
X138390127Y-104036091D01*
X138394531Y-104046562D01*
X138401636Y-104064822D01*
X138411100Y-104089942D01*
X138422583Y-104120988D01*
X138435745Y-104157031D01*
X138450243Y-104197140D01*
X138465737Y-104240382D01*
X138481886Y-104285826D01*
X138490323Y-104309718D01*
X138506212Y-104354676D01*
X138521230Y-104396911D01*
X138535093Y-104435640D01*
X138547515Y-104470079D01*
X138558212Y-104499443D01*
X138566897Y-104522948D01*
X138573286Y-104539809D01*
X138577094Y-104549242D01*
X138578047Y-104551018D01*
X138580060Y-104546793D01*
X138584734Y-104534706D01*
X138591754Y-104515638D01*
X138600806Y-104490471D01*
X138611574Y-104460085D01*
X138623743Y-104425362D01*
X138636997Y-104387184D01*
X138646982Y-104358209D01*
X138667844Y-104297649D01*
X138686110Y-104245085D01*
X138702103Y-104199753D01*
X138716145Y-104160885D01*
X138728557Y-104127715D01*
X138739661Y-104099477D01*
X138749778Y-104075404D01*
X138759231Y-104054730D01*
X138768342Y-104036689D01*
X138777431Y-104020514D01*
X138786821Y-104005439D01*
X138796834Y-103990698D01*
X138807467Y-103975962D01*
X138841513Y-103935244D01*
X138877964Y-103902751D01*
X138918044Y-103877548D01*
X138959851Y-103859765D01*
X138977563Y-103854099D01*
X138993148Y-103850477D01*
X139009667Y-103848482D01*
X139030178Y-103847698D01*
X139048837Y-103847649D01*
X139107547Y-103851185D01*
G37*
D10*
X160706000Y-95867000D02*
X163906000Y-95867000D01*
X160706000Y-98667000D02*
X160706000Y-95867000D01*
X163906000Y-95867000D02*
X163906000Y-98667000D01*
X163906000Y-98667000D02*
X160706000Y-98667000D01*
X141164000Y-93412000D02*
X142494000Y-93412000D01*
X141164000Y-94742000D02*
X141164000Y-93412000D01*
X141164000Y-96012000D02*
X141164000Y-101152000D01*
X141164000Y-96012000D02*
X143824000Y-96012000D01*
X141164000Y-101152000D02*
X143824000Y-101152000D01*
X143824000Y-96012000D02*
X143824000Y-101152000D01*
X148292000Y-93412000D02*
X149622000Y-93412000D01*
X148292000Y-94742000D02*
X148292000Y-93412000D01*
X148292000Y-96012000D02*
X148292000Y-101152000D01*
X148292000Y-96012000D02*
X150952000Y-96012000D01*
X148292000Y-101152000D02*
X150952000Y-101152000D01*
X150952000Y-96012000D02*
X150952000Y-101152000D01*
X134036000Y-93412000D02*
X135366000Y-93412000D01*
X134036000Y-94742000D02*
X134036000Y-93412000D01*
X134036000Y-96012000D02*
X134036000Y-101152000D01*
X134036000Y-96012000D02*
X136696000Y-96012000D01*
X134036000Y-101152000D02*
X136696000Y-101152000D01*
X136696000Y-96012000D02*
X136696000Y-101152000D01*
X121082000Y-95882000D02*
X124282000Y-95882000D01*
X121082000Y-98682000D02*
X121082000Y-95882000D01*
X124282000Y-95882000D02*
X124282000Y-98682000D01*
X124282000Y-98682000D02*
X121082000Y-98682000D01*
X157420000Y-93412000D02*
X158750000Y-93412000D01*
X157420000Y-94742000D02*
X157420000Y-93412000D01*
X157420000Y-96012000D02*
X157420000Y-101152000D01*
X157420000Y-96012000D02*
X160080000Y-96012000D01*
X157420000Y-101152000D02*
X160080000Y-101152000D01*
X160080000Y-96012000D02*
X160080000Y-101152000D01*
X147550475Y-83836000D02*
X147550475Y-76016000D01*
X147550475Y-82236000D02*
X146630475Y-82236000D01*
X147550475Y-76016000D02*
X137430475Y-76016000D01*
X146790475Y-79876000D02*
X146790475Y-78276000D01*
X146790475Y-78276000D02*
X145790475Y-78276000D01*
X146630475Y-83836000D02*
X147550475Y-83836000D01*
X146630475Y-82236000D02*
X146630475Y-83836000D01*
X146350475Y-82236000D02*
X146630475Y-82236000D01*
X146350475Y-82236000D02*
X146350475Y-83451000D01*
X146290475Y-78276000D02*
X146290475Y-76016000D01*
X145790475Y-79876000D02*
X146790475Y-79876000D01*
X145790475Y-78276000D02*
X145790475Y-79876000D01*
X145790475Y-78276000D02*
X145790475Y-76016000D01*
X144990475Y-80376000D02*
X139990475Y-80376000D01*
X144990475Y-76016000D02*
X144990475Y-80376000D01*
X139990475Y-80376000D02*
X139990475Y-76016000D01*
X139190475Y-79876000D02*
X138190475Y-79876000D01*
X139190475Y-78276000D02*
X139190475Y-79876000D01*
X138350475Y-83836000D02*
X138350475Y-82236000D01*
X138350475Y-82236000D02*
X138630475Y-82236000D01*
X138190475Y-79876000D02*
X138190475Y-78276000D01*
X138190475Y-78276000D02*
X139190475Y-78276000D01*
X137430475Y-83836000D02*
X138350475Y-83836000D01*
X137430475Y-82236000D02*
X138350475Y-82236000D01*
X137430475Y-76016000D02*
X137430475Y-83836000D01*
X153420000Y-93412000D02*
X154750000Y-93412000D01*
X153420000Y-94742000D02*
X153420000Y-93412000D01*
X153420000Y-96012000D02*
X153420000Y-101152000D01*
X153420000Y-96012000D02*
X156080000Y-96012000D01*
X153420000Y-101152000D02*
X156080000Y-101152000D01*
X156080000Y-96012000D02*
X156080000Y-101152000D01*
X137430475Y-111161129D02*
X137430475Y-118981129D01*
X137430475Y-112761129D02*
X138350475Y-112761129D01*
X137430475Y-118981129D02*
X147550475Y-118981129D01*
X138190475Y-115121129D02*
X138190475Y-116721129D01*
X138190475Y-116721129D02*
X139190475Y-116721129D01*
X138350475Y-111161129D02*
X137430475Y-111161129D01*
X138350475Y-112761129D02*
X138350475Y-111161129D01*
X138630475Y-112761129D02*
X138350475Y-112761129D01*
X138630475Y-112761129D02*
X138630475Y-111546129D01*
X138690475Y-116721129D02*
X138690475Y-118981129D01*
X139190475Y-115121129D02*
X138190475Y-115121129D01*
X139190475Y-116721129D02*
X139190475Y-115121129D01*
X139190475Y-116721129D02*
X139190475Y-118981129D01*
X139990475Y-114621129D02*
X144990475Y-114621129D01*
X139990475Y-118981129D02*
X139990475Y-114621129D01*
X144990475Y-114621129D02*
X144990475Y-118981129D01*
X145790475Y-115121129D02*
X146790475Y-115121129D01*
X145790475Y-116721129D02*
X145790475Y-115121129D01*
X146630475Y-111161129D02*
X146630475Y-112761129D01*
X146630475Y-112761129D02*
X146350475Y-112761129D01*
X146790475Y-115121129D02*
X146790475Y-116721129D01*
X146790475Y-116721129D02*
X145790475Y-116721129D01*
X147550475Y-111161129D02*
X146630475Y-111161129D01*
X147550475Y-112761129D02*
X146630475Y-112761129D01*
X147550475Y-118981129D02*
X147550475Y-111161129D01*
X124908000Y-93412000D02*
X126238000Y-93412000D01*
X124908000Y-94742000D02*
X124908000Y-93412000D01*
X124908000Y-96012000D02*
X124908000Y-101152000D01*
X124908000Y-96012000D02*
X127568000Y-96012000D01*
X124908000Y-101152000D02*
X127568000Y-101152000D01*
X127568000Y-96012000D02*
X127568000Y-101152000D01*
X153958000Y-85385000D02*
X154114000Y-85385000D01*
X156274000Y-85385000D02*
X156430000Y-85385000D01*
X154115392Y-82152666D02*
G75*
G03*
X153958485Y-85384999I1078608J-1672334D01*
G01*
X154114164Y-82783871D02*
G75*
G03*
X154114001Y-84865960I1079836J-1041129D01*
G01*
X156273999Y-84865960D02*
G75*
G03*
X156273836Y-82783871I-1079999J1040960D01*
G01*
X156429515Y-85384999D02*
G75*
G03*
X156272608Y-82152666I-1235515J1559999D01*
G01*
X153958000Y-112563000D02*
X154114000Y-112563000D01*
X156274000Y-112563000D02*
X156430000Y-112563000D01*
X154115392Y-109330666D02*
G75*
G03*
X153958485Y-112562999I1078608J-1672334D01*
G01*
X154114164Y-109961871D02*
G75*
G03*
X154114001Y-112043960I1079836J-1041129D01*
G01*
X156273999Y-112043960D02*
G75*
G03*
X156273836Y-109961871I-1079999J1040960D01*
G01*
X156429515Y-112562999D02*
G75*
G03*
X156272608Y-109330666I-1235515J1559999D01*
G01*
%LPC*%
D16*
X161036000Y-83820000D03*
D17*
X162306000Y-97267000D03*
D18*
X142494000Y-94742000D03*
D19*
X142494000Y-97282000D03*
X142494000Y-99822000D03*
D18*
X149622000Y-94742000D03*
D19*
X149622000Y-97282000D03*
X149622000Y-99822000D03*
D18*
X135366000Y-94742000D03*
D19*
X135366000Y-97282000D03*
X135366000Y-99822000D03*
D17*
X122682000Y-97282000D03*
D16*
X131064000Y-110998000D03*
X131064000Y-83820000D03*
D18*
X158750000Y-94742000D03*
D19*
X158750000Y-97282000D03*
X158750000Y-99822000D03*
D20*
X131064000Y-97282000D03*
X149860000Y-83820000D03*
D16*
X123952000Y-83820000D03*
D20*
X149860000Y-110998000D03*
D21*
X145490475Y-82376000D03*
D22*
X143490475Y-82376000D03*
X141490475Y-82376000D03*
X139490475Y-82376000D03*
D18*
X154750000Y-94742000D03*
D19*
X154750000Y-97282000D03*
X154750000Y-99822000D03*
D16*
X123952000Y-110998000D03*
D23*
X139490475Y-112621129D03*
D22*
X141490475Y-112621129D03*
X143490475Y-112621129D03*
X145490475Y-112621129D03*
D18*
X126238000Y-94742000D03*
D19*
X126238000Y-97282000D03*
X126238000Y-99822000D03*
D24*
X155194000Y-85095000D03*
D25*
X155194000Y-82555000D03*
D24*
X155194000Y-112273000D03*
D25*
X155194000Y-109733000D03*
D16*
X161036000Y-110998000D03*
D26*
X122682000Y-103418000D03*
D27*
X122682000Y-105918000D03*
%LPD*%
M02*
